# Blender v3.6.19 OBJ File: 'Candles.blend'
# www.blender.org
mtllib Flame1.mtl
o Flame1_BezierCurve.003
v 1.103671 0.185706 2.504812
v 1.112611 0.185418 2.509282
v 1.118991 0.184866 2.518712
v 1.122902 0.184272 2.529121
v 1.124774 0.183632 2.540544
v 1.125034 0.182940 2.553018
v 1.121699 0.183200 2.568281
v 1.122428 0.181388 2.581262
v 1.120419 0.180521 2.597103
v 1.121343 0.177974 2.614253
v 1.117127 0.178582 2.632405
v 1.113605 0.179320 2.651812
v 1.114561 0.178163 2.672646
v 1.095716 0.183930 2.510606
v 1.091065 0.182407 2.520900
v 1.088973 0.181284 2.531779
v 1.089029 0.180484 2.543345
v 1.090825 0.179927 2.555699
v 1.091540 0.180544 2.570645
v 1.097994 0.179236 2.583177
v 1.102547 0.178947 2.598504
v 1.110033 0.176978 2.615139
v 1.111542 0.178090 2.632843
v 1.112069 0.179185 2.651932
v 1.103742 0.185612 2.504801
v 1.110214 0.191351 2.509807
v 1.114976 0.194742 2.519588
v 1.118003 0.196300 2.530188
v 1.119600 0.196320 2.541671
v 1.120073 0.195095 2.554098
v 1.117317 0.193927 2.569234
v 1.118869 0.190092 2.582036
v 1.117803 0.186903 2.597671
v 1.119669 0.182037 2.614615
v 1.116273 0.180625 2.632588
v 1.113325 0.179943 2.651869
v 1.114486 0.178262 2.672657
v 1.099263 0.178348 2.510012
v 1.096875 0.173250 2.519927
v 1.096010 0.170187 2.530601
v 1.096430 0.168809 2.542105
v 1.097899 0.168767 2.554514
v 1.097768 0.170715 2.569601
v 1.103030 0.171286 2.582333
v 1.106218 0.173148 2.597888
v 1.112338 0.173333 2.614752
v 1.112653 0.176326 2.632656
v 1.112329 0.178761 2.651888
v 1.103706 0.185856 2.504818
v 1.110121 0.179538 2.509134
v 1.114849 0.175039 2.518462
v 1.117859 0.172286 2.528816
v 1.119455 0.170978 2.540221
v 1.119938 0.170810 2.552709
v 1.117203 0.172489 2.568008
v 1.118781 0.172690 2.581040
v 1.117745 0.174132 2.596940
v 1.119641 0.173894 2.614148
v 1.116273 0.176508 2.632351
v 1.113348 0.178654 2.651793
v 1.114524 0.178006 2.672640
v 1.097185 0.190433 2.510867
v 1.093467 0.193047 2.521327
v 1.091880 0.194166 2.532296
v 1.092085 0.194028 2.543889
v 1.093745 0.192871 2.556218
v 1.094110 0.191938 2.571102
v 1.100071 0.188448 2.583546
v 1.104061 0.185658 2.598773
v 1.110982 0.181187 2.615308
v 1.111997 0.180109 2.632924
v 1.112172 0.179644 2.651951
vt 0.000000 0.000000
vt 0.000000 0.000000
vt 0.000000 0.000000
vt 0.000000 0.000000
vt 0.000000 0.000000
vt 0.000000 0.000000
vt 0.000000 0.000000
vt 0.000000 0.000000
vt 0.000000 0.000000
vt 0.000000 0.000000
vt 0.000000 0.000000
vt 0.000000 0.000000
vt 0.000000 0.000000
vt 0.000000 0.000000
vt 0.000000 0.000000
vt 0.000000 0.000000
vt 0.000000 0.000000
vt 0.000000 0.000000
vt 0.000000 0.000000
vt 0.000000 0.000000
vt 0.000000 0.000000
vt 0.000000 0.000000
vt 0.000000 0.000000
vt 0.000000 0.000000
vt 0.000000 0.000000
vt 0.000000 0.000000
vt 0.000000 0.000000
vt 0.000000 0.000000
vt 0.000000 0.000000
vt 0.000000 0.000000
vt 0.000000 0.000000
vt 0.000000 0.000000
vt 0.000000 0.000000
vt 0.000000 0.000000
vt 0.000000 0.000000
vt 0.000000 0.000000
vt 0.000000 0.000000
vt 0.000000 0.000000
vt 0.000000 0.000000
vt 0.000000 0.000000
vt 0.000000 0.000000
vt 0.000000 0.000000
vt 0.000000 0.000000
vt 0.000000 0.000000
vt 0.000000 0.000000
vt 0.000000 0.000000
vt 0.000000 0.000000
vt 0.000000 0.000000
vt 0.000000 0.000000
vt 0.000000 0.000000
vt 0.000000 0.000000
vt 0.000000 0.000000
vt 0.000000 0.000000
vt 0.000000 0.000000
vt 0.000000 0.000000
vt 0.000000 0.000000
vt 0.000000 0.000000
vt 0.000000 0.000000
vt 0.000000 0.000000
vt 0.000000 0.000000
vt 0.000000 0.000000
vt 0.000000 0.000000
vt 0.000000 0.000000
vt 0.000000 0.000000
vt 0.000000 0.000000
vt 0.000000 0.000000
vt 0.000000 0.000000
vt 0.000000 0.000000
vt 0.000000 0.000000
vt 0.000000 0.000000
vt 0.000000 0.000000
vt 0.000000 0.000000
vn 0.0723 -0.9967 -0.0368
vn 0.0969 -0.9943 -0.0453
vn 0.0741 -0.9956 -0.0572
vn 0.7490 -0.6339 -0.1927
vn 0.7623 -0.6432 -0.0725
vn 0.7622 -0.6431 -0.0745
vn 0.6370 0.7708 -0.0092
vn 0.6366 0.7705 -0.0336
vn 0.6488 0.7606 -0.0236
vn 0.0701 -0.9766 -0.2032
vn 0.0768 -0.9885 -0.1305
vn 0.0799 -0.9922 -0.0958
vn 0.0815 -0.9937 -0.0770
vn 0.0826 -0.9946 -0.0630
vn 0.0827 -0.9946 -0.0630
vn 0.0865 -0.9961 -0.0158
vn 0.0798 -0.9921 -0.0970
vn 0.0801 -0.9924 -0.0933
vn 0.0829 -0.9947 -0.0603
vn 0.0830 -0.9948 -0.0584
vn 0.0918 -0.9943 0.0546
vn 0.0879 -0.9961 0.0026
vn 0.0830 -0.9948 -0.0591
vn 0.0875 -0.9962 -0.0024
vn 0.0806 -0.9929 -0.0877
vn -0.2971 -0.9533 0.0535
vn 0.7410 -0.6279 -0.2382
vn 0.7530 -0.6368 -0.1658
vn 0.7572 -0.6398 -0.1311
vn 0.7591 -0.6411 -0.1124
vn 0.7604 -0.6420 -0.0984
vn 0.7648 -0.6443 -0.0090
vn 0.7648 -0.6442 -0.0056
vn 0.7495 -0.6342 -0.1897
vn 0.7537 -0.6373 -0.1602
vn 0.7598 -0.6416 -0.1047
vn 0.7599 -0.6417 -0.1038
vn 0.7622 -0.6405 0.0938
vn 0.7649 -0.6442 0.0048
vn 0.7607 -0.6422 -0.0944
vn 0.7648 -0.6442 0.0030
vn 0.7540 -0.6375 -0.1582
vn 0.6459 0.7630 0.0243
vn 0.6477 0.7596 0.0592
vn 0.6488 0.7493 0.1325
vn 0.6477 0.7596 0.0591
vn 0.6446 0.7645 0.0055
vn 0.6435 0.7654 -0.0085
vn 0.4316 0.9009 0.0459
vn 0.6446 0.7645 0.0057
vn 0.6402 0.7670 -0.0427
vn 0.6382 0.7675 -0.0606
vn 0.6450 0.7641 0.0109
vn 0.6416 0.7665 -0.0293
vn 0.6417 0.7664 -0.0284
vn 0.6442 0.7649 -0.0001
vn 0.6432 0.7656 -0.0125
vn 0.6443 0.7648 0.0013
vn 0.6450 0.7641 0.0112
vn 0.6404 0.7669 -0.0407
g Flame1_BezierCurve.003_None
usemtl None
s 1
f 18/1/1 7/2/2 20/3/3
f 44/4/4 43/5/5 31/6/6
f 66/7/7 68/8/8 55/9/9
f 1/10/10 2/11/11 14/12/11
f 2/11/11 3/13/12 14/12/11
f 3/13/12 4/14/13 16/15/13
f 4/14/13 5/16/14 17/17/15
f 5/16/14 6/18/16 18/1/1
f 6/18/16 7/2/2 18/1/1
f 7/2/2 8/19/17 20/3/3
f 8/19/17 9/20/18 20/3/3
f 9/20/18 10/21/19 22/22/20
f 10/21/19 11/23/21 22/22/20
f 12/24/22 13/25/23 24/26/24
f 11/23/21 12/24/22 23/27/21
f 22/22/20 11/23/21 23/27/21
f 4/14/13 17/17/15 16/15/13
f 12/24/22 24/26/24 23/27/21
f 22/22/20 21/28/25 9/20/18
f 21/28/25 20/3/3 9/20/18
f 5/16/14 18/1/1 17/17/15
f 16/15/13 15/29/12 3/13/12
f 15/29/12 14/12/11 3/13/12
f 20/3/3 19/30/26 18/1/1
f 25/31/27 26/32/28 38/33/28
f 26/32/28 27/34/29 38/33/28
f 27/34/29 28/35/30 40/36/30
f 28/35/30 29/37/31 41/38/31
f 29/37/31 30/39/32 42/40/33
f 30/39/32 31/6/6 42/40/33
f 31/6/6 32/41/34 44/4/4
f 32/41/34 33/42/35 44/4/4
f 33/42/35 34/43/36 46/44/37
f 34/43/36 35/45/38 46/44/37
f 46/44/37 35/45/38 47/46/38
f 36/47/39 37/48/40 48/49/41
f 35/45/38 36/47/39 47/46/38
f 36/47/39 48/49/41 47/46/38
f 42/40/33 31/6/6 43/5/5
f 46/44/37 45/50/42 33/42/35
f 45/50/42 44/4/4 33/42/35
f 28/35/30 41/38/31 40/36/30
f 40/36/30 39/51/29 27/34/29
f 39/51/29 38/33/28 27/34/29
f 42/40/33 41/38/31 29/37/31
f 51/52/43 50/53/44 63/54/43
f 50/53/44 49/55/45 62/56/46
f 63/54/43 50/53/44 62/56/46
f 63/54/43 64/57/47 51/52/43
f 64/57/47 65/58/48 52/59/47
f 51/52/43 64/57/47 52/59/47
f 66/7/7 67/60/49 68/8/8
f 65/58/48 66/7/7 53/61/48
f 53/61/48 52/59/47 65/58/48
f 55/9/9 54/62/50 66/7/7
f 54/62/50 53/61/48 66/7/7
f 57/63/51 56/64/52 68/8/8
f 56/64/52 55/9/9 68/8/8
f 59/65/53 58/66/54 70/67/55
f 58/66/54 57/63/51 70/67/55
f 72/68/56 61/69/57 60/70/58
f 60/70/58 59/65/53 71/71/59
f 59/65/53 70/67/55 71/71/59
f 70/67/55 57/63/51 69/72/60
f 71/71/59 72/68/56 60/70/58
f 68/8/8 69/72/60 57/63/51
