# Blender v3.6.19 OBJ File: 'Candles.blend'
# www.blender.org
mtllib Flame5b.mtl
o Flame5b_BezierCurve.014
v 0.603086 6.084183 2.483710
v 0.599550 6.077587 2.486536
v 0.596868 6.073070 2.492684
v 0.595105 6.070440 2.499517
v 0.594097 6.069377 2.507053
v 0.593680 6.069559 2.515308
v 0.595389 6.072116 2.525474
v 0.593957 6.072376 2.534047
v 0.594322 6.074368 2.544566
v 0.592329 6.074800 2.555891
v 0.594682 6.077916 2.567988
v 0.596892 6.080470 2.580908
v 0.595995 6.080381 2.594688
v 0.604857 6.090916 2.487650
v 0.605640 6.095101 2.494526
v 0.605764 6.097208 2.501755
v 0.605326 6.097576 2.509410
v 0.604426 6.096547 2.517564
v 0.604864 6.095910 2.527464
v 0.601633 6.091653 2.535659
v 0.599936 6.088468 2.545744
v 0.595882 6.083722 2.556636
v 0.596437 6.082322 2.568356
v 0.597374 6.081682 2.581009
v 0.603180 6.083996 2.483710
v 0.596462 6.087115 2.486690
v 0.591695 6.088955 2.492938
v 0.588792 6.089797 2.499826
v 0.587430 6.089803 2.507378
v 0.587287 6.089131 2.515619
v 0.589742 6.089394 2.525749
v 0.589369 6.086398 2.534269
v 0.590950 6.084658 2.544728
v 0.590171 6.081358 2.555994
v 0.593580 6.081228 2.568039
v 0.596528 6.081501 2.580922
v 0.595896 6.080577 2.594688
v 0.609760 6.081738 2.487666
v 0.613675 6.080069 2.494553
v 0.615497 6.079000 2.501787
v 0.615563 6.078428 2.509444
v 0.614211 6.078246 2.517597
v 0.613479 6.079796 2.527493
v 0.608601 6.078623 2.535682
v 0.605017 6.078970 2.545762
v 0.599073 6.077759 2.556647
v 0.597975 6.079451 2.568362
v 0.597737 6.081012 2.581011
v 0.602988 6.084165 2.483701
v 0.604946 6.077139 2.486979
v 0.605859 6.072342 2.493423
v 0.606059 6.069562 2.500418
v 0.605655 6.068455 2.508003
v 0.604753 6.068679 2.516219
v 0.605163 6.071342 2.526278
v 0.601889 6.071751 2.534700
v 0.600141 6.073915 2.545045
v 0.596036 6.074517 2.556196
v 0.596551 6.077784 2.568143
v 0.597469 6.080445 2.580956
v 0.596098 6.080400 2.594697
v 0.599290 6.090362 2.487149
v 0.596510 6.094199 2.493703
v 0.594700 6.096117 2.500758
v 0.593688 6.096431 2.508362
v 0.593301 6.095453 2.516562
v 0.595066 6.094947 2.526581
v 0.593708 6.090876 2.534945
v 0.594157 6.087903 2.545224
v 0.592250 6.083369 2.556309
v 0.594682 6.082155 2.568198
v 0.596955 6.081647 2.580972
v 0.603186 6.084099 2.483715
v 0.596055 6.081706 2.486416
v 0.591018 6.079940 2.492482
v 0.587967 6.078813 2.499270
v 0.586560 6.078212 2.506792
v 0.586453 6.078025 2.515058
v 0.589007 6.079590 2.525253
v 0.588773 6.078442 2.533867
v 0.590513 6.078820 2.544433
v 0.589893 6.077638 2.555805
v 0.593440 6.079350 2.567944
v 0.596486 6.080918 2.580893
v 0.595890 6.080470 2.594683
v 0.609213 6.087331 2.487866
v 0.612767 6.089236 2.494879
v 0.614392 6.090108 2.502183
v 0.614398 6.090112 2.509860
v 0.613096 6.089414 2.517994
v 0.612495 6.089631 2.527842
v 0.607803 6.086577 2.535965
v 0.604432 6.084770 2.545968
v 0.598701 6.081403 2.556777
v 0.597790 6.081210 2.568424
v 0.597682 6.081429 2.581025
vt 0.000000 0.000000
vt 0.000000 0.000000
vt 0.000000 0.000000
vt 0.000000 0.000000
vt 0.000000 0.000000
vt 0.000000 0.000000
vt 0.000000 0.000000
vt 0.000000 0.000000
vt 0.000000 0.000000
vt 0.000000 0.000000
vt 0.000000 0.000000
vt 0.000000 0.000000
vt 0.000000 0.000000
vt 0.000000 0.000000
vt 0.000000 0.000000
vt 0.000000 0.000000
vt 0.000000 0.000000
vt 0.000000 0.000000
vt 0.000000 0.000000
vt 0.000000 0.000000
vt 0.000000 0.000000
vt 0.000000 0.000000
vt 0.000000 0.000000
vt 0.000000 0.000000
vt 0.000000 0.000000
vt 0.000000 0.000000
vt 0.000000 0.000000
vt 0.000000 0.000000
vt 0.000000 0.000000
vt 0.000000 0.000000
vt 0.000000 0.000000
vt 0.000000 0.000000
vt 0.000000 0.000000
vt 0.000000 0.000000
vt 0.000000 0.000000
vt 0.000000 0.000000
vt 0.000000 0.000000
vt 0.000000 0.000000
vt 0.000000 0.000000
vt 0.000000 0.000000
vt 0.000000 0.000000
vt 0.000000 0.000000
vt 0.000000 0.000000
vt 0.000000 0.000000
vt 0.000000 0.000000
vt 0.000000 0.000000
vt 0.000000 0.000000
vt 0.000000 0.000000
vt 0.000000 0.000000
vt 0.000000 0.000000
vt 0.000000 0.000000
vt 0.000000 0.000000
vt 0.000000 0.000000
vt 0.000000 0.000000
vt 0.000000 0.000000
vt 0.000000 0.000000
vt 0.000000 0.000000
vt 0.000000 0.000000
vt 0.000000 0.000000
vt 0.000000 0.000000
vt 0.000000 0.000000
vt 0.000000 0.000000
vt 0.000000 0.000000
vt 0.000000 0.000000
vt 0.000000 0.000000
vt 0.000000 0.000000
vt 0.000000 0.000000
vt 0.000000 0.000000
vt 0.000000 0.000000
vt 0.000000 0.000000
vt 0.000000 0.000000
vt 0.000000 0.000000
vt 0.000000 0.000000
vt 0.000000 0.000000
vt 0.000000 0.000000
vt 0.000000 0.000000
vt 0.000000 0.000000
vt 0.000000 0.000000
vt 0.000000 0.000000
vt 0.000000 0.000000
vt 0.000000 0.000000
vt 0.000000 0.000000
vt 0.000000 0.000000
vt 0.000000 0.000000
vt 0.000000 0.000000
vt 0.000000 0.000000
vt 0.000000 0.000000
vt 0.000000 0.000000
vt 0.000000 0.000000
vt 0.000000 0.000000
vt 0.000000 0.000000
vt 0.000000 0.000000
vt 0.000000 0.000000
vt 0.000000 0.000000
vt 0.000000 0.000000
vt 0.000000 0.000000
vn 0.9206 -0.3893 0.0309
vn 0.9215 -0.3850 0.0510
vn 0.9311 -0.3630 0.0372
vn -0.3645 -0.9234 -0.1202
vn -0.3793 -0.9197 0.1018
vn -0.3793 -0.9198 0.1010
vn -0.8975 -0.3811 -0.2221
vn -0.9182 -0.3920 -0.0569
vn -0.9180 -0.3919 -0.0607
vn 0.4056 -0.9140 -0.0097
vn 0.4039 -0.9141 -0.0368
vn 0.3889 -0.9209 -0.0250
vn 0.9210 -0.3754 0.1038
vn 0.9151 -0.3764 0.1444
vn 0.8946 -0.3764 0.2409
vn 0.9151 -0.3765 0.1445
vn 0.9237 -0.3745 0.0804
vn 0.9254 -0.3737 0.0629
vn 0.9237 -0.3745 0.0805
vn 0.7180 -0.6918 -0.0762
vn 0.9289 -0.3703 0.0046
vn 0.9215 -0.3753 0.1003
vn 0.9205 -0.3755 0.1079
vn 0.9280 -0.3622 -0.0871
vn 0.9253 -0.3738 0.0639
vn 0.9257 -0.3736 0.0600
vn 0.9294 -0.3689 -0.0144
vn 0.9258 -0.3735 0.0579
vn 0.9295 -0.3682 -0.0224
vn 0.9225 -0.3750 0.0912
vn -0.3726 -0.9274 -0.0329
vn -0.3753 -0.9269 0.0081
vn -0.3794 -0.9191 0.1068
vn -0.3725 -0.9274 -0.0330
vn -0.3707 -0.9270 -0.0565
vn -0.3707 -0.9270 -0.0564
vn -0.3691 -0.9264 -0.0739
vn -0.3691 -0.9264 -0.0740
vn -0.3756 -0.9267 0.0129
vn -0.3692 -0.9265 -0.0728
vn -0.3688 -0.9263 -0.0779
vn -0.3493 -0.9068 -0.2358
vn -0.3751 -0.9270 0.0049
vn -0.3570 -0.9161 -0.1823
vn -0.3503 -0.9082 -0.2292
vn -0.3640 -0.9230 -0.1251
vn -0.3758 -0.9266 0.0149
vn -0.3687 -0.9262 -0.0791
vn -0.3762 -0.9263 0.0225
vn -0.3581 -0.9173 -0.1742
vn -0.8852 -0.3751 -0.2753
vn -0.9054 -0.3850 -0.1792
vn -0.9054 -0.3850 -0.1791
vn -0.9112 -0.3880 -0.1385
vn -0.9138 -0.3894 -0.1153
vn -0.9155 -0.3903 -0.0977
vn -0.9193 -0.3934 0.0134
vn -0.9192 -0.3934 0.0188
vn -0.8984 -0.3815 -0.2175
vn -0.9064 -0.3855 -0.1728
vn -0.9141 -0.3896 -0.1128
vn -0.9142 -0.3896 -0.1112
vn -0.9089 -0.3906 0.1461
vn -0.9187 -0.3934 0.0350
vn -0.9159 -0.3905 -0.0927
vn -0.9188 -0.3934 0.0322
vn -0.9069 -0.3858 -0.1694
vn -0.9112 -0.3880 -0.1386
vn 0.3898 -0.9203 0.0331
vn 0.3851 -0.9199 0.0740
vn 0.3897 -0.9203 0.0331
vn 0.3712 -0.9126 0.1716
vn 0.3851 -0.9199 0.0741
vn 0.3921 -0.9199 0.0096
vn 0.3938 -0.9192 -0.0080
vn 0.3921 -0.9199 0.0097
vn 0.6093 -0.7911 0.0545
vn 0.3938 -0.9192 -0.0078
vn 0.3922 -0.9198 0.0093
vn 0.3973 -0.9163 -0.0512
vn 0.3990 -0.9139 -0.0752
vn 0.3914 -0.9201 0.0169
vn 0.3961 -0.9175 -0.0359
vn 0.3960 -0.9176 -0.0342
vn 0.3927 -0.9197 0.0030
vn 0.3941 -0.9190 -0.0129
vn 0.3925 -0.9197 0.0052
vn 0.3913 -0.9201 0.0175
vn 0.3970 -0.9165 -0.0480
g Flame5b_BezierCurve.014_None
usemtl None
s 1
f 18/1/1 20/2/2 7/3/3
f 46/4/4 47/5/5 35/6/6
f 68/7/7 67/8/8 55/9/9
f 90/10/10 92/11/11 79/12/12
f 3/13/13 2/14/14 15/15/13
f 2/14/14 1/16/15 14/17/16
f 15/15/13 2/14/14 14/17/16
f 15/15/13 16/18/17 3/13/13
f 16/18/17 17/19/18 4/20/19
f 3/13/13 16/18/17 4/20/19
f 18/1/1 19/21/20 20/2/2
f 17/19/18 18/1/1 5/22/18
f 5/22/18 4/20/19 17/19/18
f 7/3/3 6/23/21 18/1/1
f 6/23/21 5/22/18 18/1/1
f 9/24/22 8/25/23 20/2/2
f 8/25/23 7/3/3 20/2/2
f 11/26/24 10/27/25 22/28/26
f 10/27/25 9/24/22 22/28/26
f 24/29/27 13/30/28 12/31/29
f 12/31/29 11/26/24 23/32/24
f 11/26/24 22/28/26 23/32/24
f 22/28/26 9/24/22 21/33/30
f 23/32/24 24/29/27 12/31/29
f 20/2/2 21/33/30 9/24/22
f 27/34/31 26/35/32 38/36/32
f 26/35/32 25/37/33 38/36/32
f 38/36/32 39/38/34 27/34/31
f 39/38/34 40/39/35 28/40/36
f 40/39/35 41/41/37 29/42/38
f 42/43/39 43/44/40 31/45/41
f 43/44/40 44/46/42 31/45/41
f 40/39/35 29/42/38 28/40/36
f 41/41/37 42/43/39 29/42/38
f 28/40/36 27/34/31 39/38/34
f 31/45/41 30/47/43 42/43/39
f 30/47/43 29/42/38 42/43/39
f 33/48/44 32/49/45 44/46/42
f 32/49/45 31/45/41 44/46/42
f 35/6/6 34/50/46 46/4/4
f 34/50/46 33/48/44 46/4/4
f 48/51/47 37/52/48 36/53/49
f 36/53/49 35/6/6 47/5/5
f 44/46/42 45/54/50 33/48/44
f 45/54/50 46/4/4 33/48/44
f 47/5/5 48/51/47 36/53/49
f 49/55/51 50/56/52 62/57/53
f 50/56/52 51/58/54 62/57/53
f 51/58/54 52/59/55 64/60/55
f 52/59/55 53/61/56 65/62/56
f 53/61/56 54/63/57 66/64/58
f 54/63/57 55/9/9 66/64/58
f 55/9/9 56/65/59 68/7/7
f 56/65/59 57/66/60 68/7/7
f 57/66/60 58/67/61 70/68/62
f 58/67/61 59/69/63 70/68/62
f 70/68/62 59/69/63 71/70/63
f 60/71/64 61/72/65 72/73/66
f 59/69/63 60/71/64 71/70/63
f 60/71/64 72/73/66 71/70/63
f 66/64/58 55/9/9 67/8/8
f 70/68/62 69/74/67 57/66/60
f 69/74/67 68/7/7 57/66/60
f 52/59/55 65/62/56 64/60/55
f 64/60/55 63/75/68 51/58/54
f 63/75/68 62/57/53 51/58/54
f 66/64/58 65/62/56 53/61/56
f 75/76/69 74/77/70 87/78/71
f 74/77/70 73/79/72 86/80/73
f 87/78/71 74/77/70 86/80/73
f 87/78/71 88/81/74 75/76/69
f 88/81/74 89/82/75 76/83/76
f 75/76/69 88/81/74 76/83/76
f 90/10/10 91/84/77 92/11/11
f 89/82/75 90/10/10 77/85/78
f 77/85/78 76/83/76 89/82/75
f 79/12/12 78/86/79 90/10/10
f 78/86/79 77/85/78 90/10/10
f 81/87/80 80/88/81 92/11/11
f 80/88/81 79/12/12 92/11/11
f 83/89/82 82/90/83 94/91/84
f 82/90/83 81/87/80 94/91/84
f 96/92/85 85/93/86 84/94/87
f 84/94/87 83/89/82 95/95/88
f 83/89/82 94/91/84 95/95/88
f 94/91/84 81/87/80 93/96/89
f 95/95/88 96/92/85 84/94/87
f 92/11/11 93/96/89 81/87/80
