# Blender v3.6.19 OBJ File: 'Candles.blend'
# www.blender.org
mtllib Flame1b.mtl
o Flame1b_BezierCurve.015
v 0.858868 5.939739 2.418725
v 0.864313 5.939512 2.422369
v 0.868294 5.939079 2.429864
v 0.870806 5.938613 2.438090
v 0.872107 5.938109 2.447081
v 0.872455 5.937566 2.456871
v 0.870683 5.937568 2.468782
v 0.871322 5.936347 2.478988
v 0.870357 5.935665 2.491385
v 0.871177 5.933959 2.504869
v 0.868920 5.934141 2.519029
v 0.867098 5.934388 2.534181
v 0.867993 5.933478 2.550540
v 0.854175 5.938620 2.423163
v 0.851537 5.937604 2.431178
v 0.850446 5.936820 2.439686
v 0.850658 5.936220 2.448761
v 0.851928 5.935758 2.458479
v 0.852586 5.935974 2.470201
v 0.856660 5.935055 2.480137
v 0.859633 5.934720 2.492225
v 0.864390 5.933362 2.505401
v 0.865568 5.933846 2.519291
v 0.866177 5.934306 2.534253
v 0.858911 5.939682 2.418718
v 0.862875 5.943070 2.422683
v 0.865886 5.945001 2.430388
v 0.867867 5.945825 2.438729
v 0.869003 5.945717 2.447754
v 0.869478 5.944854 2.457516
v 0.868054 5.944000 2.469352
v 0.869186 5.941565 2.479451
v 0.868788 5.939491 2.491724
v 0.870173 5.936395 2.505086
v 0.868407 5.935366 2.519138
v 0.866930 5.934761 2.534215
v 0.867948 5.933537 2.550547
v 0.856303 5.935273 2.422810
v 0.855023 5.932113 2.430598
v 0.854669 5.930166 2.438983
v 0.855099 5.929221 2.448023
v 0.856172 5.929066 2.457773
v 0.856323 5.930080 2.469579
v 0.859682 5.930288 2.479634
v 0.861836 5.931243 2.491859
v 0.865774 5.931176 2.505171
v 0.866235 5.932788 2.519180
v 0.866333 5.934052 2.534227
v 0.858890 5.939828 2.418728
v 0.862818 5.935987 2.422275
v 0.865808 5.933187 2.429706
v 0.867779 5.931427 2.437897
v 0.868914 5.930522 2.446877
v 0.869396 5.930293 2.456675
v 0.867984 5.931146 2.468609
v 0.869132 5.931131 2.478848
v 0.868752 5.931834 2.491282
v 0.870156 5.931513 2.504803
v 0.868407 5.932897 2.518995
v 0.866944 5.933988 2.534169
v 0.867971 5.933383 2.550536
v 0.855057 5.942519 2.423323
v 0.852979 5.943984 2.431440
v 0.852192 5.944543 2.440003
v 0.852493 5.944341 2.449095
v 0.853681 5.943519 2.458798
v 0.854129 5.942805 2.470481
v 0.857907 5.940578 2.480364
v 0.860541 5.938744 2.492391
v 0.864960 5.935885 2.505505
v 0.865841 5.935056 2.519341
v 0.866238 5.934582 2.534265
vt 0.000000 0.000000
vt 0.000000 0.000000
vt 0.000000 0.000000
vt 0.000000 0.000000
vt 0.000000 0.000000
vt 0.000000 0.000000
vt 0.000000 0.000000
vt 0.000000 0.000000
vt 0.000000 0.000000
vt 0.000000 0.000000
vt 0.000000 0.000000
vt 0.000000 0.000000
vt 0.000000 0.000000
vt 0.000000 0.000000
vt 0.000000 0.000000
vt 0.000000 0.000000
vt 0.000000 0.000000
vt 0.000000 0.000000
vt 0.000000 0.000000
vt 0.000000 0.000000
vt 0.000000 0.000000
vt 0.000000 0.000000
vt 0.000000 0.000000
vt 0.000000 0.000000
vt 0.000000 0.000000
vt 0.000000 0.000000
vt 0.000000 0.000000
vt 0.000000 0.000000
vt 0.000000 0.000000
vt 0.000000 0.000000
vt 0.000000 0.000000
vt 0.000000 0.000000
vt 0.000000 0.000000
vt 0.000000 0.000000
vt 0.000000 0.000000
vt 0.000000 0.000000
vt 0.000000 0.000000
vt 0.000000 0.000000
vt 0.000000 0.000000
vt 0.000000 0.000000
vt 0.000000 0.000000
vt 0.000000 0.000000
vt 0.000000 0.000000
vt 0.000000 0.000000
vt 0.000000 0.000000
vt 0.000000 0.000000
vt 0.000000 0.000000
vt 0.000000 0.000000
vt 0.000000 0.000000
vt 0.000000 0.000000
vt 0.000000 0.000000
vt 0.000000 0.000000
vt 0.000000 0.000000
vt 0.000000 0.000000
vt 0.000000 0.000000
vt 0.000000 0.000000
vt 0.000000 0.000000
vt 0.000000 0.000000
vt 0.000000 0.000000
vt 0.000000 0.000000
vt 0.000000 0.000000
vt 0.000000 0.000000
vt 0.000000 0.000000
vt 0.000000 0.000000
vt 0.000000 0.000000
vt 0.000000 0.000000
vt 0.000000 0.000000
vt 0.000000 0.000000
vt 0.000000 0.000000
vt 0.000000 0.000000
vt 0.000000 0.000000
vt 0.000000 0.000000
vn 0.0768 -0.9962 -0.0413
vn 0.0998 -0.9937 -0.0513
vn 0.0770 -0.9951 -0.0617
vn 0.7524 -0.6368 -0.1684
vn 0.7614 -0.6430 -0.0827
vn 0.7613 -0.6430 -0.0837
vn 0.6393 0.7689 -0.0085
vn 0.6382 0.7693 -0.0304
vn 0.6504 0.7592 -0.0220
vn 0.0732 -0.9826 -0.1705
vn 0.0779 -0.9900 -0.1177
vn 0.0805 -0.9928 -0.0884
vn 0.0818 -0.9939 -0.0737
vn 0.0817 -0.9939 -0.0738
vn 0.0827 -0.9946 -0.0629
vn 0.0857 -0.9960 -0.0257
vn 0.0805 -0.9928 -0.0881
vn 0.0807 -0.9930 -0.0867
vn 0.0830 -0.9948 -0.0585
vn 0.0831 -0.9949 -0.0577
vn 0.0898 -0.9956 0.0270
vn 0.0870 -0.9961 -0.0135
vn 0.0833 -0.9947 -0.0598
vn 0.0868 -0.9961 -0.0165
vn 0.0809 -0.9932 -0.0835
vn -0.2987 -0.9537 0.0343
vn 0.7466 -0.6326 -0.2059
vn 0.7544 -0.6383 -0.1533
vn 0.7543 -0.6383 -0.1534
vn 0.7577 -0.6407 -0.1241
vn 0.7592 -0.6416 -0.1095
vn 0.7592 -0.6416 -0.1094
vn 0.7601 -0.6423 -0.0986
vn 0.7601 -0.6423 -0.0985
vn 0.7641 -0.6445 -0.0286
vn 0.7642 -0.6445 -0.0266
vn 0.7526 -0.6370 -0.1666
vn 0.7551 -0.6388 -0.1478
vn 0.7600 -0.6422 -0.0998
vn 0.7601 -0.6422 -0.0992
vn 0.7641 -0.6432 0.0490
vn 0.7642 -0.6446 -0.0203
vn 0.7603 -0.6425 -0.0956
vn 0.7642 -0.6446 -0.0214
vn 0.7552 -0.6389 -0.1467
vn 0.6451 0.7639 0.0166
vn 0.6468 0.7612 0.0460
vn 0.6451 0.7639 0.0165
vn 0.6486 0.7547 0.0990
vn 0.6440 0.7650 0.0018
vn 0.6431 0.7657 -0.0090
vn 0.6440 0.7650 0.0019
vn 0.4307 0.9017 0.0386
vn 0.6432 0.7657 -0.0090
vn 0.6441 0.7650 0.0023
vn 0.6407 0.7670 -0.0353
vn 0.6393 0.7674 -0.0484
vn 0.6443 0.7647 0.0058
vn 0.6418 0.7665 -0.0241
vn 0.6418 0.7665 -0.0237
vn 0.6439 0.7651 -0.0027
vn 0.6431 0.7657 -0.0122
vn 0.6440 0.7651 -0.0018
vn 0.6444 0.7647 0.0060
vn 0.6408 0.7669 -0.0342
g Flame1b_BezierCurve.015_None
usemtl None
s 1
f 18/1/1 7/2/2 20/3/3
f 44/4/4 43/5/5 31/6/6
f 66/7/7 68/8/8 55/9/9
f 1/10/10 2/11/11 14/12/11
f 2/11/11 3/13/12 14/12/11
f 3/13/12 4/14/13 16/15/14
f 4/14/13 5/16/15 17/17/15
f 5/16/15 6/18/16 18/1/1
f 6/18/16 7/2/2 18/1/1
f 7/2/2 8/19/17 20/3/3
f 8/19/17 9/20/18 20/3/3
f 9/20/18 10/21/19 22/22/20
f 10/21/19 11/23/21 22/22/20
f 12/24/22 13/25/23 24/26/24
f 11/23/21 12/24/22 23/27/21
f 22/22/20 11/23/21 23/27/21
f 4/14/13 17/17/15 16/15/14
f 12/24/22 24/26/24 23/27/21
f 22/22/20 21/28/25 9/20/18
f 21/28/25 20/3/3 9/20/18
f 5/16/15 18/1/1 17/17/15
f 16/15/14 15/29/12 3/13/12
f 15/29/12 14/12/11 3/13/12
f 20/3/3 19/30/26 18/1/1
f 25/31/27 26/32/28 38/33/29
f 26/32/28 27/34/30 38/33/29
f 27/34/30 28/35/31 40/36/32
f 28/35/31 29/37/33 41/38/34
f 29/37/33 30/39/35 42/40/36
f 30/39/35 31/6/6 42/40/36
f 31/6/6 32/41/37 44/4/4
f 32/41/37 33/42/38 44/4/4
f 33/42/38 34/43/39 46/44/40
f 34/43/39 35/45/41 46/44/40
f 46/44/40 35/45/41 47/46/41
f 36/47/42 37/48/43 48/49/44
f 35/45/41 36/47/42 47/46/41
f 36/47/42 48/49/44 47/46/41
f 42/40/36 31/6/6 43/5/5
f 46/44/40 45/50/45 33/42/38
f 45/50/45 44/4/4 33/42/38
f 28/35/31 41/38/34 40/36/32
f 40/36/32 39/51/30 27/34/30
f 39/51/30 38/33/29 27/34/30
f 42/40/36 41/38/34 29/37/33
f 51/52/46 50/53/47 63/54/48
f 50/53/47 49/55/49 62/56/47
f 63/54/48 50/53/47 62/56/47
f 63/54/48 64/57/50 51/52/46
f 64/57/50 65/58/51 52/59/52
f 51/52/46 64/57/50 52/59/52
f 66/7/7 67/60/53 68/8/8
f 65/58/51 66/7/7 53/61/54
f 53/61/54 52/59/52 65/58/51
f 55/9/9 54/62/55 66/7/7
f 54/62/55 53/61/54 66/7/7
f 57/63/56 56/64/57 68/8/8
f 56/64/57 55/9/9 68/8/8
f 59/65/58 58/66/59 70/67/60
f 58/66/59 57/63/56 70/67/60
f 72/68/61 61/69/62 60/70/63
f 60/70/63 59/65/58 71/71/64
f 59/65/58 70/67/60 71/71/64
f 70/67/60 57/63/56 69/72/65
f 71/71/64 72/68/61 60/70/63
f 68/8/8 69/72/65 57/63/56
