# Blender v3.6.19 OBJ File: 'Candles.blend'
# www.blender.org
mtllib Flame2.mtl
o Flame2_BezierCurve.006
v 1.012533 -0.010280 2.446969
v 1.019226 -0.009468 2.449686
v 1.023967 -0.009114 2.455552
v 1.026848 -0.009063 2.462062
v 1.028190 -0.009271 2.469232
v 1.028315 -0.009692 2.477081
v 1.025602 -0.009784 2.486733
v 1.026197 -0.010992 2.494889
v 1.024598 -0.011781 2.504882
v 1.025372 -0.013497 2.515656
v 1.021924 -0.013411 2.527140
v 1.018968 -0.013141 2.539407
v 1.019569 -0.013787 2.552512
v 1.006688 -0.012477 2.450692
v 1.003243 -0.014087 2.457216
v 1.001669 -0.015105 2.464083
v 1.001664 -0.015636 2.471361
v 1.002928 -0.015783 2.479119
v 1.003220 -0.015155 2.488530
v 1.008064 -0.015343 2.496344
v 1.011335 -0.014964 2.505947
v 1.016979 -0.015511 2.516330
v 1.017780 -0.014406 2.527472
v 1.017828 -0.013415 2.539499
v 1.012622 -0.010114 2.446969
v 1.013830 -0.016676 2.449822
v 1.014983 -0.021148 2.455778
v 1.015905 -0.023736 2.462336
v 1.016646 -0.024758 2.469521
v 1.017255 -0.024534 2.477358
v 1.015840 -0.022890 2.486977
v 1.018277 -0.021632 2.495086
v 1.018790 -0.019593 2.505027
v 1.021674 -0.018482 2.515747
v 1.020064 -0.015938 2.527185
v 1.018399 -0.013943 2.539420
v 1.019476 -0.013962 2.552512
v 1.010888 -0.004117 2.450709
v 1.010119 -0.000391 2.457243
v 1.009995 0.001485 2.464116
v 1.010420 0.001812 2.471397
v 1.011297 0.000893 2.479153
v 1.010588 -0.000472 2.488560
v 1.014022 -0.003469 2.496368
v 1.015677 -0.006308 2.505965
v 1.019704 -0.010075 2.516341
v 1.019091 -0.011786 2.527478
v 1.018132 -0.012801 2.539501
v 1.012597 -0.010343 2.446961
v 1.016759 -0.005271 2.450086
v 1.019843 -0.002130 2.456219
v 1.021817 -0.000558 2.462875
v 1.022878 -0.000300 2.470090
v 1.023223 -0.001098 2.477904
v 1.021105 -0.002201 2.487460
v 1.022546 -0.004840 2.495478
v 1.021916 -0.007270 2.505315
v 1.023659 -0.010626 2.515932
v 1.021053 -0.011969 2.527279
v 1.018687 -0.012704 2.539451
v 1.019501 -0.013721 2.552521
v 1.009980 -0.016281 2.450239
v 1.008637 -0.020329 2.456473
v 1.008203 -0.022670 2.463183
v 1.008536 -0.023594 2.470415
v 1.009497 -0.023392 2.478214
v 1.009004 -0.021856 2.487733
v 1.012741 -0.020764 2.495700
v 1.014745 -0.018918 2.505477
v 1.019121 -0.017997 2.516034
v 1.018812 -0.015609 2.527330
v 1.018071 -0.013705 2.539465
vt 0.000000 0.000000
vt 0.000000 0.000000
vt 0.000000 0.000000
vt 0.000000 0.000000
vt 0.000000 0.000000
vt 0.000000 0.000000
vt 0.000000 0.000000
vt 0.000000 0.000000
vt 0.000000 0.000000
vt 0.000000 0.000000
vt 0.000000 0.000000
vt 0.000000 0.000000
vt 0.000000 0.000000
vt 0.000000 0.000000
vt 0.000000 0.000000
vt 0.000000 0.000000
vt 0.000000 0.000000
vt 0.000000 0.000000
vt 0.000000 0.000000
vt 0.000000 0.000000
vt 0.000000 0.000000
vt 0.000000 0.000000
vt 0.000000 0.000000
vt 0.000000 0.000000
vt 0.000000 0.000000
vt 0.000000 0.000000
vt 0.000000 0.000000
vt 0.000000 0.000000
vt 0.000000 0.000000
vt 0.000000 0.000000
vt 0.000000 0.000000
vt 0.000000 0.000000
vt 0.000000 0.000000
vt 0.000000 0.000000
vt 0.000000 0.000000
vt 0.000000 0.000000
vt 0.000000 0.000000
vt 0.000000 0.000000
vt 0.000000 0.000000
vt 0.000000 0.000000
vt 0.000000 0.000000
vt 0.000000 0.000000
vt 0.000000 0.000000
vt 0.000000 0.000000
vt 0.000000 0.000000
vt 0.000000 0.000000
vt 0.000000 0.000000
vt 0.000000 0.000000
vt 0.000000 0.000000
vt 0.000000 0.000000
vt 0.000000 0.000000
vt 0.000000 0.000000
vt 0.000000 0.000000
vt 0.000000 0.000000
vt 0.000000 0.000000
vt 0.000000 0.000000
vt 0.000000 0.000000
vt 0.000000 0.000000
vt 0.000000 0.000000
vt 0.000000 0.000000
vt 0.000000 0.000000
vt 0.000000 0.000000
vt 0.000000 0.000000
vt 0.000000 0.000000
vt 0.000000 0.000000
vt 0.000000 0.000000
vt 0.000000 0.000000
vt 0.000000 0.000000
vt 0.000000 0.000000
vt 0.000000 0.000000
vt 0.000000 0.000000
vt 0.000000 0.000000
vn 0.2140 -0.9763 -0.0327
vn 0.2405 -0.9698 -0.0396
vn 0.2174 -0.9747 -0.0528
vn -0.9567 -0.2362 0.1703
vn -0.9446 -0.2373 0.2268
vn -0.9553 -0.2364 0.1776
vn 0.8303 -0.5142 -0.2150
vn 0.8495 -0.5239 -0.0615
vn 0.8493 -0.5239 -0.0648
vn 0.2093 -0.9500 -0.2319
vn 0.2203 -0.9652 -0.1413
vn 0.2202 -0.9652 -0.1413
vn 0.2244 -0.9691 -0.1020
vn 0.2265 -0.9707 -0.0799
vn 0.2281 -0.9716 -0.0632
vn 0.2328 -0.9725 -0.0075
vn 0.2240 -0.9689 -0.1053
vn 0.2247 -0.9694 -0.0989
vn 0.2281 -0.9716 -0.0631
vn 0.2284 -0.9717 -0.0597
vn 0.2386 -0.9679 0.0788
vn 0.2346 -0.9719 0.0172
vn 0.2285 -0.9718 -0.0584
vn 0.2341 -0.9722 0.0100
vn 0.2255 -0.9700 -0.0907
vn -0.1521 -0.9858 0.0705
vn -0.9706 -0.2206 -0.0962
vn -0.9737 -0.2278 -0.0040
vn -0.9737 -0.2279 -0.0039
vn -0.9725 -0.2304 0.0356
vn -0.9711 -0.2316 0.0578
vn -0.9724 -0.2304 0.0356
vn -0.9697 -0.2325 0.0746
vn -0.9711 -0.2316 0.0579
vn -0.9736 -0.2281 -0.0007
vn -0.9737 -0.2276 -0.0078
vn -0.9693 -0.2327 0.0797
vn -0.9460 -0.2372 0.2209
vn -0.9645 -0.2346 0.1216
vn -0.9650 -0.2344 0.1172
vn -0.9710 -0.2211 -0.0910
vn -0.9738 -0.2270 -0.0164
vn -0.9693 -0.2328 0.0793
vn -0.9737 -0.2275 -0.0094
vn -0.9709 -0.2210 -0.0917
vn -0.9697 -0.2325 0.0755
vn 0.8191 -0.5080 -0.2664
vn 0.8371 -0.5179 -0.1763
vn 0.8371 -0.5179 -0.1762
vn 0.8426 -0.5207 -0.1371
vn 0.8452 -0.5220 -0.1149
vn 0.8468 -0.5227 -0.0983
vn 0.8468 -0.5228 -0.0983
vn 0.8516 -0.5242 0.0076
vn 0.8515 -0.5241 0.0124
vn 0.8311 -0.5146 -0.2108
vn 0.8381 -0.5184 -0.1701
vn 0.8456 -0.5222 -0.1109
vn 0.8457 -0.5222 -0.1095
vn 0.8448 -0.5183 0.1328
vn 0.8514 -0.5239 0.0271
vn 0.8472 -0.5229 -0.0935
vn 0.8514 -0.5240 0.0246
vn 0.8385 -0.5186 -0.1672
g Flame2_BezierCurve.006_None
usemtl None
s 1
f 18/1/1 7/2/2 20/3/3
f 45/4/4 44/5/5 33/6/6
f 68/7/7 67/8/8 55/9/9
f 1/10/10 2/11/11 14/12/12
f 2/11/11 3/13/13 14/12/12
f 3/13/13 4/14/14 16/15/14
f 4/14/14 5/16/15 17/17/15
f 5/16/15 6/18/16 18/1/1
f 6/18/16 7/2/2 18/1/1
f 7/2/2 8/19/17 20/3/3
f 8/19/17 9/20/18 20/3/3
f 9/20/18 10/21/19 22/22/20
f 10/21/19 11/23/21 22/22/20
f 12/24/22 13/25/23 24/26/24
f 11/23/21 12/24/22 23/27/21
f 22/22/20 11/23/21 23/27/21
f 4/14/14 17/17/15 16/15/14
f 12/24/22 24/26/24 23/27/21
f 22/22/20 21/28/25 9/20/18
f 21/28/25 20/3/3 9/20/18
f 5/16/15 18/1/1 17/17/15
f 16/15/14 15/29/13 3/13/13
f 15/29/13 14/12/12 3/13/13
f 20/3/3 19/30/26 18/1/1
f 25/31/27 26/32/28 38/33/29
f 26/32/28 27/34/30 38/33/29
f 27/34/30 28/35/31 39/36/32
f 28/35/31 29/37/33 40/38/34
f 39/36/32 28/35/31 40/38/34
f 29/37/33 30/39/35 42/40/36
f 30/39/35 31/41/37 42/40/36
f 31/41/37 32/42/38 44/5/5
f 32/42/38 33/6/6 44/5/5
f 33/6/6 34/43/39 46/44/40
f 34/43/39 35/45/41 46/44/40
f 36/46/42 37/47/43 48/48/44
f 35/45/41 36/46/42 47/49/45
f 46/44/40 35/45/41 47/49/45
f 39/36/32 38/33/29 27/34/30
f 41/50/33 40/38/34 29/37/33
f 44/5/5 43/51/46 31/41/37
f 43/51/46 42/40/36 31/41/37
f 42/40/36 41/50/33 29/37/33
f 36/46/42 48/48/44 47/49/45
f 46/44/40 45/4/4 33/6/6
f 49/52/47 50/53/48 62/54/49
f 50/53/48 51/55/50 62/54/49
f 51/55/50 52/56/51 64/57/51
f 52/56/51 53/58/52 65/59/53
f 53/58/52 54/60/54 66/61/55
f 54/60/54 55/9/9 66/61/55
f 55/9/9 56/62/56 68/7/7
f 56/62/56 57/63/57 68/7/7
f 57/63/57 58/64/58 70/65/59
f 58/64/58 59/66/60 70/65/59
f 70/65/59 59/66/60 71/67/60
f 60/68/61 61/69/62 72/70/63
f 59/66/60 60/68/61 71/67/60
f 60/68/61 72/70/63 71/67/60
f 66/61/55 55/9/9 67/8/8
f 70/65/59 69/71/64 57/63/57
f 69/71/64 68/7/7 57/63/57
f 52/56/51 65/59/53 64/57/51
f 64/57/51 63/72/50 51/55/50
f 63/72/50 62/54/49 51/55/50
f 66/61/55 65/59/53 53/58/52
