# Blender v3.6.19 OBJ File: 'Candles.blend'
# www.blender.org
mtllib Flame3t.mtl
o Flame3t_BezierCurve.007
v -1.572058 5.139399 3.349751
v -1.563818 5.141550 3.352693
v -1.558002 5.142815 3.359171
v -1.554485 5.143390 3.366391
v -1.552869 5.143386 3.374368
v -1.552758 5.142914 3.383118
v -1.556296 5.142391 3.393920
v -1.555466 5.141009 3.402998
v -1.557493 5.139796 3.414161
v -1.556394 5.137818 3.426154
v -1.560912 5.137405 3.439011
v -1.564854 5.137309 3.452735
v -1.564184 5.136658 3.467337
v -1.579096 5.135677 3.353970
v -1.583256 5.133108 3.361283
v -1.585169 5.131597 3.368957
v -1.585194 5.130962 3.377071
v -1.583694 5.131024 3.385705
v -1.583570 5.131908 3.396200
v -1.577563 5.132515 3.404846
v -1.573656 5.133584 3.415513
v -1.566622 5.133887 3.427010
v -1.565962 5.135463 3.439433
v -1.566242 5.136775 3.452852
v -1.571974 5.139623 3.349751
v -1.569409 5.131581 3.352872
v -1.567307 5.126173 3.359469
v -1.565815 5.123103 3.366753
v -1.564820 5.121974 3.374749
v -1.564206 5.122394 3.383482
v -1.566398 5.124273 3.394241
v -1.563662 5.126300 3.403259
v -1.563503 5.128999 3.414352
v -1.560218 5.130928 3.426275
v -1.562833 5.133915 3.439070
v -1.565436 5.136206 3.452752
v -1.564272 5.136423 3.467338
v -1.575203 5.146897 3.353985
v -1.576883 5.151489 3.361309
v -1.577450 5.153861 3.368988
v -1.577078 5.154378 3.377104
v -1.575937 5.153405 3.385736
v -1.576741 5.151613 3.396228
v -1.572042 5.148451 3.404869
v -1.569632 5.145201 3.415529
v -1.564097 5.141181 3.427020
v -1.564748 5.138978 3.439438
v -1.565962 5.137598 3.452853
v -1.571967 5.139330 3.349741
v -1.567621 5.146422 3.353201
v -1.564356 5.150918 3.360019
v -1.562232 5.153256 3.367425
v -1.561046 5.153792 3.375459
v -1.560596 5.152882 3.384163
v -1.563216 5.151186 3.394843
v -1.561085 5.148144 3.403748
v -1.561619 5.145027 3.414711
v -1.559028 5.141145 3.426505
v -1.562248 5.139075 3.439188
v -1.565280 5.137812 3.452791
v -1.564280 5.136730 3.467349
v -1.574320 5.131437 3.353394
v -1.575430 5.126150 3.360338
v -1.575687 5.123163 3.367812
v -1.575221 5.122089 3.375867
v -1.574161 5.122541 3.384553
v -1.575176 5.124437 3.395187
v -1.570775 5.126472 3.404026
v -1.568706 5.129176 3.414915
v -1.563513 5.131114 3.426634
v -1.564463 5.134121 3.439252
v -1.565889 5.136450 3.452809
v -1.572065 5.139547 3.349757
v -1.564562 5.135428 3.352556
v -1.559228 5.132588 3.358942
v -1.555972 5.130919 3.366111
v -1.554434 5.130222 3.374072
v -1.554255 5.130297 3.382833
v -1.557615 5.131249 3.393668
v -1.556534 5.131962 3.402794
v -1.558273 5.133153 3.414011
v -1.556886 5.133576 3.426058
v -1.561152 5.135252 3.438961
v -1.564915 5.136621 3.452718
v -1.564177 5.136502 3.467332
v -1.579465 5.142107 3.354217
v -1.583862 5.143627 3.361687
v -1.585902 5.144331 3.369446
v -1.585965 5.144351 3.377585
v -1.584431 5.143819 3.386196
v -1.584219 5.143171 3.396633
v -1.578088 5.141621 3.405196
v -1.574039 5.140218 3.415768
v -1.566862 5.138047 3.427170
v -1.566078 5.137460 3.439510
v -1.566270 5.137229 3.452869
vt 0.000000 0.000000
vt 0.000000 0.000000
vt 0.000000 0.000000
vt 0.000000 0.000000
vt 0.000000 0.000000
vt 0.000000 0.000000
vt 0.000000 0.000000
vt 0.000000 0.000000
vt 0.000000 0.000000
vt 0.000000 0.000000
vt 0.000000 0.000000
vt 0.000000 0.000000
vt 0.000000 0.000000
vt 0.000000 0.000000
vt 0.000000 0.000000
vt 0.000000 0.000000
vt 0.000000 0.000000
vt 0.000000 0.000000
vt 0.000000 0.000000
vt 0.000000 0.000000
vt 0.000000 0.000000
vt 0.000000 0.000000
vt 0.000000 0.000000
vt 0.000000 0.000000
vt 0.000000 0.000000
vt 0.000000 0.000000
vt 0.000000 0.000000
vt 0.000000 0.000000
vt 0.000000 0.000000
vt 0.000000 0.000000
vt 0.000000 0.000000
vt 0.000000 0.000000
vt 0.000000 0.000000
vt 0.000000 0.000000
vt 0.000000 0.000000
vt 0.000000 0.000000
vt 0.000000 0.000000
vt 0.000000 0.000000
vt 0.000000 0.000000
vt 0.000000 0.000000
vt 0.000000 0.000000
vt 0.000000 0.000000
vt 0.000000 0.000000
vt 0.000000 0.000000
vt 0.000000 0.000000
vt 0.000000 0.000000
vt 0.000000 0.000000
vt 0.000000 0.000000
vt 0.000000 0.000000
vt 0.000000 0.000000
vt 0.000000 0.000000
vt 0.000000 0.000000
vt 0.000000 0.000000
vt 0.000000 0.000000
vt 0.000000 0.000000
vt 0.000000 0.000000
vt 0.000000 0.000000
vt 0.000000 0.000000
vt 0.000000 0.000000
vt 0.000000 0.000000
vt 0.000000 0.000000
vt 0.000000 0.000000
vt 0.000000 0.000000
vt 0.000000 0.000000
vt 0.000000 0.000000
vt 0.000000 0.000000
vt 0.000000 0.000000
vt 0.000000 0.000000
vt 0.000000 0.000000
vt 0.000000 0.000000
vt 0.000000 0.000000
vt 0.000000 0.000000
vt 0.000000 0.000000
vt 0.000000 0.000000
vt 0.000000 0.000000
vt 0.000000 0.000000
vt 0.000000 0.000000
vt 0.000000 0.000000
vt 0.000000 0.000000
vt 0.000000 0.000000
vt 0.000000 0.000000
vt 0.000000 0.000000
vt 0.000000 0.000000
vt 0.000000 0.000000
vt 0.000000 0.000000
vt 0.000000 0.000000
vt 0.000000 0.000000
vt 0.000000 0.000000
vt 0.000000 0.000000
vt 0.000000 0.000000
vt 0.000000 0.000000
vt 0.000000 0.000000
vt 0.000000 0.000000
vt 0.000000 0.000000
vt 0.000000 0.000000
vt 0.000000 0.000000
vn 0.3368 -0.9411 -0.0291
vn 0.3648 -0.9304 -0.0346
vn 0.3416 -0.9385 -0.0492
vn -0.9156 -0.3595 0.1801
vn -0.8997 -0.3584 0.2492
vn -0.9137 -0.3594 0.1897
vn -0.9063 0.4067 0.1150
vn -0.9014 0.4009 -0.1635
vn -0.3950 -0.9186 0.0098
vn -0.4123 -0.9107 0.0254
vn -0.3967 -0.9171 0.0379
vn 0.3283 -0.9096 -0.2546
vn 0.3438 -0.9270 -0.1497
vn 0.3438 -0.9270 -0.1496
vn 0.3489 -0.9310 -0.1070
vn 0.3516 -0.9326 -0.0820
vn 0.3516 -0.9325 -0.0821
vn 0.3534 -0.9333 -0.0632
vn 0.3534 -0.9333 -0.0633
vn 0.3586 -0.9335 -0.0012
vn 0.3483 -0.9306 -0.1122
vn 0.3493 -0.9313 -0.1031
vn 0.3531 -0.9332 -0.0661
vn 0.3536 -0.9334 -0.0612
vn 0.3642 -0.9261 0.0982
vn 0.3609 -0.9322 0.0292
vn 0.3541 -0.9334 -0.0578
vn 0.3603 -0.9326 0.0200
vn 0.3505 -0.9320 -0.0925
vn -0.0203 -0.9962 0.0841
vn -0.9314 -0.3436 -0.1199
vn -0.9355 -0.3530 -0.0129
vn -0.9355 -0.3530 -0.0128
vn -0.9342 -0.3556 0.0303
vn -0.9325 -0.3568 0.0553
vn -0.9341 -0.3556 0.0304
vn -0.9310 -0.3575 0.0741
vn -0.9325 -0.3568 0.0554
vn -0.9355 -0.3532 -0.0097
vn -0.9356 -0.3526 -0.0188
vn -0.9308 -0.3576 0.0760
vn -0.9016 -0.3586 0.2418
vn -0.9240 -0.3591 0.1312
vn -0.9249 -0.3590 0.1255
vn -0.9319 -0.3443 -0.1139
vn -0.9356 -0.3517 -0.0302
vn -0.9304 -0.3579 0.0795
vn -0.9356 -0.3523 -0.0216
vn -0.9319 -0.3442 -0.1148
vn -0.9309 -0.3576 0.0741
vn -0.9313 -0.3574 0.0697
vn -0.9030 0.4056 0.1417
vn -0.8964 0.4032 0.1844
vn -0.8964 0.4031 0.1844
vn -0.8726 0.3939 0.2889
vn -0.9030 0.4056 0.1418
vn -0.9061 0.4066 0.1169
vn -0.9080 0.4072 0.0981
vn -0.9127 0.4077 -0.0265
vn -0.9128 0.4079 -0.0203
vn -0.9115 0.4082 0.0513
vn -0.9112 0.4081 0.0560
vn -0.8866 0.3994 0.2333
vn -0.8982 0.4038 0.1736
vn -0.8976 0.4036 0.1775
vn -0.9080 0.4073 0.0981
vn -0.8877 0.3999 0.2281
vn -0.9061 0.4066 0.1170
vn -0.9122 0.4075 -0.0419
vn -0.9085 0.4075 0.0927
vn -0.9121 0.4074 -0.0451
vn -0.4190 -0.8889 -0.1851
vn -0.4150 -0.9064 -0.0790
vn -0.4150 -0.9064 -0.0789
vn -0.4120 -0.9105 -0.0361
vn -0.4099 -0.9120 -0.0111
vn -0.4099 -0.9121 -0.0110
vn -0.4082 -0.9129 0.0077
vn -0.4099 -0.9121 -0.0103
vn -0.4001 -0.9129 0.0806
vn -0.4033 -0.9135 0.0543
vn -0.4050 -0.9135 0.0385
vn -0.4053 -0.9135 0.0364
vn -0.4106 -0.9116 -0.0189
vn -0.4097 -0.9122 -0.0064
vn -0.4079 -0.9129 0.0132
vn -0.4095 -0.9123 -0.0039
vn -0.4107 -0.9116 -0.0196
vn -0.4037 -0.9135 0.0505
vn -0.4120 -0.9105 -0.0360
vn -0.1681 -0.9841 -0.0577
g Flame3t_BezierCurve.007_None
usemtl None
s 1
f 18/1/1 7/2/2 20/3/3
f 45/4/4 44/5/5 33/6/6
f 70/7/7 71/8/8 59/9/8
f 90/10/9 79/11/10 92/12/11
f 1/13/12 2/14/13 14/15/14
f 2/14/13 3/16/15 14/15/14
f 3/16/15 4/17/16 16/18/17
f 4/17/16 5/19/18 17/20/19
f 5/19/18 6/21/20 18/1/1
f 6/21/20 7/2/2 18/1/1
f 7/2/2 8/22/21 20/3/3
f 8/22/21 9/23/22 20/3/3
f 9/23/22 10/24/23 22/25/24
f 10/24/23 11/26/25 22/25/24
f 12/27/26 13/28/27 24/29/28
f 11/26/25 12/27/26 23/30/25
f 22/25/24 11/26/25 23/30/25
f 4/17/16 17/20/19 16/18/17
f 12/27/26 24/29/28 23/30/25
f 22/25/24 21/31/29 9/23/22
f 21/31/29 20/3/3 9/23/22
f 5/19/18 18/1/1 17/20/19
f 16/18/17 15/32/15 3/16/15
f 15/32/15 14/15/14 3/16/15
f 20/3/3 19/33/30 18/1/1
f 25/34/31 26/35/32 38/36/33
f 26/35/32 27/37/34 38/36/33
f 27/37/34 28/38/35 39/39/36
f 28/38/35 29/40/37 40/41/38
f 39/39/36 28/38/35 40/41/38
f 29/40/37 30/42/39 42/43/40
f 30/42/39 31/44/41 42/43/40
f 31/44/41 32/45/42 44/5/5
f 32/45/42 33/6/6 44/5/5
f 33/6/6 34/46/43 46/47/44
f 34/46/43 35/48/45 46/47/44
f 36/49/46 37/50/47 48/51/48
f 35/48/45 36/49/46 47/52/49
f 46/47/44 35/48/45 47/52/49
f 39/39/36 38/36/33 27/37/34
f 41/53/50 40/41/38 29/40/37
f 44/5/5 43/54/51 31/44/41
f 43/54/51 42/43/40 31/44/41
f 42/43/40 41/53/50 29/40/37
f 36/49/46 48/51/48 47/52/49
f 46/47/44 45/4/4 33/6/6
f 51/55/52 50/56/53 62/57/54
f 50/56/53 49/58/55 62/57/54
f 62/57/54 63/59/56 51/55/52
f 63/59/56 64/60/57 52/61/57
f 64/60/57 65/62/58 52/61/57
f 65/62/58 66/63/59 54/64/60
f 66/63/59 67/65/61 55/66/62
f 68/67/63 69/68/64 57/69/65
f 69/68/64 70/7/7 57/69/65
f 66/63/59 55/66/62 54/64/60
f 67/65/61 68/67/63 55/66/62
f 52/61/57 51/55/52 63/59/56
f 54/64/60 53/70/66 65/62/58
f 53/70/66 52/61/57 65/62/58
f 57/69/65 56/71/67 68/67/63
f 56/71/67 55/66/62 68/67/63
f 59/9/8 58/72/68 70/7/7
f 58/72/68 57/69/65 70/7/7
f 72/73/69 61/74/70 60/75/71
f 72/73/69 60/75/71 71/8/8
f 60/75/71 59/9/8 71/8/8
f 73/76/72 74/77/73 86/78/74
f 74/77/73 75/79/75 86/78/74
f 75/79/75 76/80/76 88/81/77
f 76/80/76 77/82/78 89/83/78
f 77/82/78 78/84/79 90/10/9
f 78/84/79 79/11/10 90/10/9
f 79/11/10 80/85/80 92/12/11
f 80/85/80 81/86/81 92/12/11
f 81/86/81 82/87/82 94/88/83
f 82/87/82 83/89/84 94/88/83
f 84/90/85 85/91/86 96/92/87
f 83/89/84 84/90/85 95/93/88
f 94/88/83 83/89/84 95/93/88
f 76/80/76 89/83/78 88/81/77
f 84/90/85 96/92/87 95/93/88
f 94/88/83 93/94/89 81/86/81
f 93/94/89 92/12/11 81/86/81
f 77/82/78 90/10/9 89/83/78
f 88/81/77 87/95/90 75/79/75
f 87/95/90 86/78/74 75/79/75
f 92/12/11 91/96/91 90/10/9
