# Blender v3.6.19 OBJ File: 'Candles.blend'
# www.blender.org
mtllib Flame2t.mtl
o Flame2t_BezierCurve.019
v -1.195654 4.780185 3.348666
v -1.188267 4.782064 3.352164
v -1.182953 4.783133 3.359609
v -1.179661 4.783587 3.367842
v -1.178040 4.783523 3.376891
v -1.177738 4.783039 3.386781
v -1.180629 4.782496 3.398905
v -1.179680 4.781203 3.409190
v -1.181220 4.780047 3.421762
v -1.179964 4.778204 3.435350
v -1.183677 4.777744 3.449771
v -1.186859 4.777559 3.465184
v -1.185925 4.776872 3.481699
v -1.201805 4.776861 3.353296
v -1.205328 4.774533 3.361480
v -1.206847 4.773138 3.370115
v -1.206681 4.772515 3.379286
v -1.205148 4.772504 3.389073
v -1.204794 4.773208 3.400925
v -1.199259 4.773678 3.410827
v -1.195540 4.774543 3.422959
v -1.189026 4.774721 3.436108
v -1.188152 4.776024 3.450145
v -1.188090 4.777086 3.465287
v -1.195579 4.780384 3.348666
v -1.193224 4.773236 3.352312
v -1.191200 4.768395 3.359853
v -1.189705 4.765620 3.368139
v -1.188634 4.764560 3.377203
v -1.187886 4.764866 3.387080
v -1.189584 4.766451 3.399168
v -1.186946 4.768178 3.409404
v -1.186548 4.770484 3.421918
v -1.183354 4.772102 3.435449
v -1.185380 4.774653 3.449820
v -1.187375 4.776582 3.465198
v -1.186003 4.776664 3.481700
v -1.198352 4.786797 3.353320
v -1.199677 4.790811 3.361519
v -1.200003 4.792854 3.370163
v -1.199484 4.793251 3.379336
v -1.198270 4.792324 3.389121
v -1.198739 4.790659 3.400968
v -1.194363 4.787791 3.410861
v -1.191972 4.784830 3.422984
v -1.186787 4.781180 3.436124
v -1.187076 4.779137 3.450153
v -1.187841 4.777814 3.465289
v -1.195573 4.780125 3.348657
v -1.191636 4.786378 3.352614
v -1.188580 4.790308 3.360358
v -1.186523 4.792322 3.368756
v -1.185283 4.792737 3.377855
v -1.184680 4.791864 3.387705
v -1.186759 4.790284 3.399720
v -1.184657 4.787521 3.409852
v -1.184875 4.784678 3.422248
v -1.182297 4.781150 3.435660
v -1.184861 4.779223 3.449928
v -1.187237 4.778004 3.465233
v -1.186010 4.776936 3.481709
v -1.197574 4.773107 3.352788
v -1.198395 4.768372 3.360646
v -1.198448 4.765671 3.369106
v -1.197846 4.764659 3.378224
v -1.196703 4.764994 3.388057
v -1.197359 4.766594 3.400032
v -1.193245 4.768328 3.410104
v -1.191156 4.770640 3.422432
v -1.186272 4.772266 3.435777
v -1.186824 4.774836 3.449986
v -1.187776 4.776798 3.465249
v -1.195660 4.780317 3.348671
v -1.188929 4.776644 3.352039
v -1.184041 4.774077 3.359398
v -1.180982 4.772543 3.367584
v -1.179431 4.771865 3.376618
v -1.179068 4.771865 3.386519
v -1.181800 4.772630 3.398674
v -1.180629 4.773192 3.409002
v -1.181913 4.774164 3.421624
v -1.180401 4.774448 3.435261
v -1.183890 4.775838 3.449726
v -1.186914 4.776950 3.465169
v -1.185918 4.776734 3.481695
v -1.202130 4.782555 3.353518
v -1.205862 4.783847 3.361843
v -1.207494 4.784414 3.370555
v -1.207361 4.784371 3.379748
v -1.205798 4.783834 3.389515
v -1.205366 4.783182 3.401314
v -1.199722 4.781742 3.411142
v -1.195878 4.780417 3.423188
v -1.189238 4.778405 3.436252
v -1.188255 4.777792 3.450215
v -1.188114 4.777487 3.465303
vt 0.000000 0.000000
vt 0.000000 0.000000
vt 0.000000 0.000000
vt 0.000000 0.000000
vt 0.000000 0.000000
vt 0.000000 0.000000
vt 0.000000 0.000000
vt 0.000000 0.000000
vt 0.000000 0.000000
vt 0.000000 0.000000
vt 0.000000 0.000000
vt 0.000000 0.000000
vt 0.000000 0.000000
vt 0.000000 0.000000
vt 0.000000 0.000000
vt 0.000000 0.000000
vt 0.000000 0.000000
vt 0.000000 0.000000
vt 0.000000 0.000000
vt 0.000000 0.000000
vt 0.000000 0.000000
vt 0.000000 0.000000
vt 0.000000 0.000000
vt 0.000000 0.000000
vt 0.000000 0.000000
vt 0.000000 0.000000
vt 0.000000 0.000000
vt 0.000000 0.000000
vt 0.000000 0.000000
vt 0.000000 0.000000
vt 0.000000 0.000000
vt 0.000000 0.000000
vt 0.000000 0.000000
vt 0.000000 0.000000
vt 0.000000 0.000000
vt 0.000000 0.000000
vt 0.000000 0.000000
vt 0.000000 0.000000
vt 0.000000 0.000000
vt 0.000000 0.000000
vt 0.000000 0.000000
vt 0.000000 0.000000
vt 0.000000 0.000000
vt 0.000000 0.000000
vt 0.000000 0.000000
vt 0.000000 0.000000
vt 0.000000 0.000000
vt 0.000000 0.000000
vt 0.000000 0.000000
vt 0.000000 0.000000
vt 0.000000 0.000000
vt 0.000000 0.000000
vt 0.000000 0.000000
vt 0.000000 0.000000
vt 0.000000 0.000000
vt 0.000000 0.000000
vt 0.000000 0.000000
vt 0.000000 0.000000
vt 0.000000 0.000000
vt 0.000000 0.000000
vt 0.000000 0.000000
vt 0.000000 0.000000
vt 0.000000 0.000000
vt 0.000000 0.000000
vt 0.000000 0.000000
vt 0.000000 0.000000
vt 0.000000 0.000000
vt 0.000000 0.000000
vt 0.000000 0.000000
vt 0.000000 0.000000
vt 0.000000 0.000000
vt 0.000000 0.000000
vt 0.000000 0.000000
vt 0.000000 0.000000
vt 0.000000 0.000000
vt 0.000000 0.000000
vt 0.000000 0.000000
vt 0.000000 0.000000
vt 0.000000 0.000000
vt 0.000000 0.000000
vt 0.000000 0.000000
vt 0.000000 0.000000
vt 0.000000 0.000000
vt 0.000000 0.000000
vt 0.000000 0.000000
vt 0.000000 0.000000
vt 0.000000 0.000000
vt 0.000000 0.000000
vt 0.000000 0.000000
vt 0.000000 0.000000
vt 0.000000 0.000000
vt 0.000000 0.000000
vt 0.000000 0.000000
vt 0.000000 0.000000
vt 0.000000 0.000000
vt 0.000000 0.000000
vn 0.3426 -0.9388 -0.0353
vn 0.3664 -0.9295 -0.0432
vn 0.3446 -0.9371 -0.0556
vn -0.9189 -0.3596 0.1622
vn -0.9093 -0.3594 0.2095
vn -0.9179 -0.3596 0.1679
vn -0.9072 0.4073 0.1058
vn -0.9079 0.4048 -0.1086
vn -0.3990 -0.9169 0.0094
vn -0.4137 -0.9101 0.0241
vn -0.3991 -0.9163 0.0345
vn 0.3348 -0.9177 -0.2140
vn 0.3457 -0.9286 -0.1347
vn 0.3457 -0.9287 -0.1346
vn 0.3499 -0.9316 -0.0981
vn 0.3520 -0.9328 -0.0780
vn 0.3520 -0.9327 -0.0782
vn 0.3534 -0.9333 -0.0630
vn 0.3534 -0.9333 -0.0632
vn 0.3578 -0.9337 -0.0125
vn 0.3497 -0.9315 -0.1001
vn 0.3502 -0.9318 -0.0955
vn 0.3537 -0.9334 -0.0612
vn 0.3539 -0.9334 -0.0588
vn 0.3627 -0.9297 0.0637
vn 0.3593 -0.9332 0.0081
vn 0.3538 -0.9335 -0.0587
vn 0.3589 -0.9334 0.0023
vn 0.3509 -0.9322 -0.0889
vn 0.3499 -0.9316 -0.0982
vn -0.0224 -0.9979 0.0600
vn -0.9344 -0.3476 -0.0778
vn -0.9353 -0.3539 0.0029
vn -0.9353 -0.3539 0.0030
vn -0.9336 -0.3560 0.0397
vn -0.9322 -0.3570 0.0598
vn -0.9309 -0.3576 0.0749
vn -0.9322 -0.3570 0.0599
vn -0.9352 -0.3541 0.0067
vn -0.9353 -0.3538 0.0008
vn -0.9302 -0.3578 0.0819
vn -0.9104 -0.3595 0.2048
vn -0.9264 -0.3588 0.1146
vn -0.9268 -0.3587 0.1112
vn -0.9346 -0.3480 -0.0732
vn -0.9355 -0.3532 -0.0057
vn -0.9305 -0.3577 0.0793
vn -0.9354 -0.3536 0.0000
vn -0.9346 -0.3480 -0.0737
vn -0.9305 -0.3577 0.0790
vn -0.9040 0.4062 0.1334
vn -0.8987 0.4044 0.1698
vn -0.8987 0.4043 0.1698
vn -0.8828 0.3983 0.2490
vn -0.9063 0.4070 0.1134
vn -0.9064 0.4070 0.1134
vn -0.9079 0.4075 0.0983
vn -0.9128 0.4084 -0.0013
vn -0.9128 0.4084 0.0026
vn -0.9103 0.4082 0.0686
vn -0.9101 0.4082 0.0710
vn -0.8932 0.4023 0.2010
vn -0.9000 0.4048 0.1617
vn -0.8996 0.4047 0.1640
vn -0.8938 0.4025 0.1976
vn -0.9071 0.4072 0.1068
vn -0.9128 0.4083 -0.0112
vn -0.9083 0.4077 0.0940
vn -0.9128 0.4083 -0.0132
vn -0.4178 -0.8972 -0.1435
vn -0.4137 -0.9082 -0.0635
vn -0.4138 -0.9082 -0.0633
vn -0.4110 -0.9112 -0.0268
vn -0.4093 -0.9124 -0.0067
vn -0.4079 -0.9130 0.0083
vn -0.4018 -0.9135 0.0648
vn -0.4040 -0.9136 0.0451
vn -0.4055 -0.9135 0.0311
vn -0.4057 -0.9135 0.0300
vn -0.4098 -0.9121 -0.0126
vn -0.4089 -0.9126 -0.0024
vn -0.4075 -0.9131 0.0125
vn -0.4087 -0.9126 -0.0008
vn -0.4098 -0.9121 -0.0130
vn -0.4043 -0.9136 0.0428
vn -0.1670 -0.9848 -0.0484
g Flame2t_BezierCurve.019_None
usemtl None
s 1
f 18/1/1 7/2/2 20/3/3
f 45/4/4 44/5/5 33/6/6
f 70/7/7 71/8/8 59/9/8
f 90/10/9 79/11/10 92/12/11
f 1/13/12 2/14/13 14/15/14
f 2/14/13 3/16/15 14/15/14
f 3/16/15 4/17/16 16/18/17
f 4/17/16 5/19/18 17/20/19
f 5/19/18 6/21/20 18/1/1
f 6/21/20 7/2/2 18/1/1
f 7/2/2 8/22/21 20/3/3
f 8/22/21 9/23/22 20/3/3
f 9/23/22 10/24/23 22/25/24
f 10/24/23 11/26/25 22/25/24
f 12/27/26 13/28/27 24/29/28
f 11/26/25 12/27/26 23/30/25
f 22/25/24 11/26/25 23/30/25
f 4/17/16 17/20/19 16/18/17
f 12/27/26 24/29/28 23/30/25
f 22/25/24 21/31/29 9/23/22
f 21/31/29 20/3/3 9/23/22
f 5/19/18 18/1/1 17/20/19
f 16/18/17 15/32/30 3/16/15
f 15/32/30 14/15/14 3/16/15
f 20/3/3 19/33/31 18/1/1
f 25/34/32 26/35/33 38/36/34
f 26/35/33 27/37/35 38/36/34
f 27/37/35 28/38/36 39/39/35
f 28/38/36 29/40/37 40/41/38
f 39/39/35 28/38/36 40/41/38
f 29/40/37 30/42/39 42/43/40
f 30/42/39 31/44/41 42/43/40
f 31/44/41 32/45/42 44/5/5
f 32/45/42 33/6/6 44/5/5
f 33/6/6 34/46/43 46/47/44
f 34/46/43 35/48/45 46/47/44
f 36/49/46 37/50/47 48/51/48
f 35/48/45 36/49/46 47/52/49
f 46/47/44 35/48/45 47/52/49
f 39/39/35 38/36/34 27/37/35
f 41/53/37 40/41/38 29/40/37
f 44/5/5 43/54/50 31/44/41
f 43/54/50 42/43/40 31/44/41
f 42/43/40 41/53/37 29/40/37
f 36/49/46 48/51/48 47/52/49
f 46/47/44 45/4/4 33/6/6
f 51/55/51 50/56/52 62/57/53
f 50/56/52 49/58/54 62/57/53
f 62/57/53 63/59/51 51/55/51
f 63/59/51 64/60/55 52/61/56
f 64/60/55 65/62/57 52/61/56
f 65/62/57 66/63/58 54/64/59
f 66/63/58 67/65/60 55/66/61
f 68/67/62 69/68/63 57/69/64
f 69/68/63 70/7/7 57/69/64
f 66/63/58 55/66/61 54/64/59
f 67/65/60 68/67/62 55/66/61
f 52/61/56 51/55/51 63/59/51
f 54/64/59 53/70/57 65/62/57
f 53/70/57 52/61/56 65/62/57
f 57/69/64 56/71/65 68/67/62
f 56/71/65 55/66/61 68/67/62
f 59/9/8 58/72/66 70/7/7
f 58/72/66 57/69/64 70/7/7
f 72/73/67 61/74/68 60/75/69
f 72/73/67 60/75/69 71/8/8
f 60/75/69 59/9/8 71/8/8
f 73/76/70 74/77/71 86/78/72
f 74/77/71 75/79/73 86/78/72
f 75/79/73 76/80/74 88/81/74
f 76/80/74 77/82/75 89/83/75
f 77/82/75 78/84/74 90/10/9
f 78/84/74 79/11/10 90/10/9
f 79/11/10 80/85/76 92/12/11
f 80/85/76 81/86/77 92/12/11
f 81/86/77 82/87/78 94/88/79
f 82/87/78 83/89/80 94/88/79
f 84/90/81 85/91/82 96/92/83
f 83/89/80 84/90/81 95/93/84
f 94/88/79 83/89/80 95/93/84
f 76/80/74 89/83/75 88/81/74
f 84/90/81 96/92/83 95/93/84
f 94/88/79 93/94/85 81/86/77
f 93/94/85 92/12/11 81/86/77
f 77/82/75 90/10/9 89/83/75
f 88/81/74 87/95/73 75/79/73
f 87/95/73 86/78/72 75/79/73
f 92/12/11 91/96/86 90/10/9
