# Blender v3.6.19 OBJ File: 'christmas_house_v5.blend'
# www.blender.org
mtllib Light3.mtl
o Light3_BezierCurve.002
v 0.685415 -0.713519 2.345502
v 0.670400 -0.722554 2.351254
v 0.660578 -0.728467 2.362312
v 0.655217 -0.731696 2.374248
v 0.653573 -0.732690 2.387138
v 0.654901 -0.731896 2.401060
v 0.658457 -0.729761 2.416090
v 0.663499 -0.726733 2.432306
v 0.669280 -0.723260 2.449784
v 0.675059 -0.719789 2.468601
v 0.680090 -0.716769 2.488835
v 0.683629 -0.714647 2.510562
v 0.684933 -0.713870 2.533859
v 0.698594 -0.702024 2.351364
v 0.707180 -0.694533 2.362494
v 0.711838 -0.690466 2.374469
v 0.713222 -0.689254 2.387371
v 0.711987 -0.690326 2.401283
v 0.708787 -0.693112 2.416287
v 0.704275 -0.697040 2.432465
v 0.699105 -0.701542 2.449901
v 0.693932 -0.706046 2.468675
v 0.689410 -0.709982 2.488872
v 0.686192 -0.712780 2.510572
v 0.684910 -0.713471 2.345502
v 0.693952 -0.728485 2.351247
v 0.699876 -0.738305 2.362300
v 0.703118 -0.743664 2.374233
v 0.704126 -0.745306 2.387123
v 0.703346 -0.743976 2.401045
v 0.701228 -0.740417 2.416077
v 0.698217 -0.735372 2.432295
v 0.694763 -0.729587 2.449776
v 0.691313 -0.723806 2.468596
v 0.688315 -0.718771 2.488832
v 0.686216 -0.715228 2.510561
v 0.685464 -0.713919 2.533859
v 0.673421 -0.700292 2.351374
v 0.665942 -0.691704 2.362511
v 0.661889 -0.687044 2.374489
v 0.660690 -0.685657 2.387392
v 0.661777 -0.686890 2.401303
v 0.664579 -0.690087 2.416305
v 0.668525 -0.694597 2.432480
v 0.673046 -0.699763 2.449911
v 0.677570 -0.704932 2.468682
v 0.681528 -0.709451 2.488874
v 0.684349 -0.712665 2.510572
vt 0.000000 0.000000
vt 0.000000 0.000000
vt 0.000000 0.000000
vt 0.000000 0.000000
vt 0.000000 0.000000
vt 0.000000 0.000000
vt 0.000000 0.000000
vt 0.000000 0.000000
vt 0.000000 0.000000
vt 0.000000 0.000000
vt 0.000000 0.000000
vt 0.000000 0.000000
vt 0.000000 0.000000
vt 0.000000 0.000000
vt 0.000000 0.000000
vt 0.000000 0.000000
vt 0.000000 0.000000
vt 0.000000 0.000000
vt 0.000000 0.000000
vt 0.000000 0.000000
vt 0.000000 0.000000
vt 0.000000 0.000000
vt 0.000000 0.000000
vt 0.000000 0.000000
vt 0.000000 0.000000
vt 0.000000 0.000000
vt 0.000000 0.000000
vt 0.000000 0.000000
vt 0.000000 0.000000
vt 0.000000 0.000000
vt 0.000000 0.000000
vt 0.000000 0.000000
vt 0.000000 0.000000
vt 0.000000 0.000000
vt 0.000000 0.000000
vt 0.000000 0.000000
vt 0.000000 0.000000
vt 0.000000 0.000000
vt 0.000000 0.000000
vt 0.000000 0.000000
vt 0.000000 0.000000
vt 0.000000 0.000000
vt 0.000000 0.000000
vt 0.000000 0.000000
vt 0.000000 0.000000
vt 0.000000 0.000000
vt 0.000000 0.000000
vt 0.000000 0.000000
vn 0.5886 -0.8083 -0.0119
vn 0.5886 -0.8082 -0.0220
vn 0.8083 0.5886 -0.0129
vn 0.8081 0.5886 -0.0229
vn 0.5875 -0.8071 0.0577
vn 0.5848 -0.8036 0.1104
vn 0.5848 -0.8036 0.1105
vn 0.5685 -0.7820 0.2555
vn 0.5884 -0.8082 0.0255
vn 0.5884 -0.8082 0.0256
vn 0.5886 -0.8084 0.0013
vn 0.5886 -0.8082 -0.0163
vn 0.5885 -0.8080 -0.0275
vn 0.5884 -0.8079 -0.0329
vn 0.5884 -0.8079 -0.0332
vn 0.5887 -0.8084 0.0013
vn 0.5885 -0.8080 -0.0293
vn 0.5886 -0.8081 -0.0220
vn 0.5887 -0.8084 -0.0060
vn 0.8072 0.5875 0.0568
vn 0.8038 0.5848 0.1095
vn 0.7823 0.5685 0.2545
vn 0.8082 0.5884 0.0246
vn 0.8084 0.5887 0.0003
vn 0.8082 0.5886 -0.0173
vn 0.8080 0.5885 -0.0285
vn 0.8079 0.5884 -0.0338
vn 0.8078 0.5884 -0.0338
vn 0.8078 0.5884 -0.0342
vn 0.8084 0.5886 0.0003
vn 0.8079 0.5885 -0.0303
vn 0.8080 0.5885 -0.0303
vn 0.8084 0.5886 -0.0070
g Light3_BezierCurve.002_None
usemtl None
s 1
f 24/1/1 12/2/1 11/3/2
f 48/4/3 36/5/3 35/6/4
f 3/7/5 2/8/6 14/9/7
f 2/8/6 1/10/8 14/9/7
f 14/9/7 15/11/5 3/7/5
f 15/11/5 16/12/9 4/13/10
f 16/12/9 17/14/11 4/13/10
f 17/14/11 18/15/12 6/16/12
f 18/15/12 19/17/13 6/16/12
f 19/17/13 20/18/14 8/19/14
f 20/18/14 21/20/15 8/19/14
f 6/16/12 19/17/13 7/21/13
f 4/13/10 3/7/5 15/11/5
f 6/16/12 5/22/16 17/14/11
f 5/22/16 4/13/10 17/14/11
f 8/19/14 7/21/13 19/17/13
f 9/23/15 8/19/14 21/20/15
f 21/20/15 22/24/17 10/25/17
f 10/25/17 9/23/15 21/20/15
f 22/24/17 23/26/18 11/3/2
f 24/1/1 13/27/19 12/2/1
f 22/24/17 11/3/2 10/25/17
f 23/26/18 24/1/1 11/3/2
f 27/28/20 26/29/21 39/30/20
f 26/29/21 25/31/22 38/32/21
f 39/30/20 26/29/21 38/32/21
f 39/30/20 40/33/23 28/34/23
f 40/33/23 41/35/24 28/34/23
f 41/35/24 42/36/25 30/37/25
f 42/36/25 43/38/26 30/37/25
f 43/38/26 44/39/27 32/40/28
f 44/39/27 45/41/29 32/40/28
f 30/37/25 43/38/26 31/42/26
f 28/34/23 27/28/20 39/30/20
f 30/37/25 29/43/30 41/35/24
f 29/43/30 28/34/23 41/35/24
f 32/40/28 31/42/26 43/38/26
f 33/44/29 32/40/28 45/41/29
f 45/41/29 46/45/31 34/46/32
f 34/46/32 33/44/29 45/41/29
f 46/45/31 47/47/4 35/6/4
f 48/4/3 37/48/33 36/5/3
f 46/45/31 35/6/4 34/46/32
f 47/47/4 48/4/3 35/6/4
