# Blender v3.6.19 OBJ File: 'christmas_house_v5.blend'
# www.blender.org
mtllib Light2.mtl
o Light2_BezierCurve.003
v 1.435361 -0.458874 2.527461
v 1.426715 -0.474127 2.533187
v 1.421057 -0.484116 2.544228
v 1.417966 -0.489579 2.556154
v 1.417013 -0.491269 2.569042
v 1.417771 -0.489944 2.582966
v 1.419812 -0.486357 2.598002
v 1.422706 -0.481266 2.614227
v 1.426026 -0.475425 2.631715
v 1.429343 -0.469589 2.650542
v 1.432230 -0.464515 2.670784
v 1.434257 -0.460957 2.692518
v 1.434997 -0.459671 2.715817
v 1.441191 -0.442397 2.533349
v 1.444984 -0.431670 2.544496
v 1.447037 -0.425856 2.556480
v 1.447639 -0.424137 2.569385
v 1.447082 -0.425696 2.583294
v 1.445652 -0.429715 2.598291
v 1.443642 -0.435375 2.614461
v 1.441339 -0.441859 2.631886
v 1.439034 -0.448348 2.650651
v 1.437015 -0.454025 2.670838
v 1.435573 -0.458072 2.692532
v 1.435568 -0.459338 2.527461
v 1.420315 -0.450699 2.533197
v 1.410326 -0.445053 2.544245
v 1.404865 -0.441975 2.556175
v 1.403175 -0.441037 2.569064
v 1.404501 -0.441810 2.582987
v 1.408088 -0.443868 2.598021
v 1.413180 -0.446780 2.614242
v 1.419022 -0.450119 2.631726
v 1.424859 -0.453458 2.650549
v 1.429934 -0.456367 2.670788
v 1.433493 -0.458419 2.692519
v 1.434780 -0.459185 2.715817
v 1.452045 -0.465175 2.533342
v 1.462773 -0.468980 2.544484
v 1.468588 -0.471046 2.556465
v 1.470307 -0.471664 2.569369
v 1.468748 -0.471121 2.583279
v 1.464730 -0.469709 2.598279
v 1.459071 -0.467716 2.614451
v 1.452588 -0.465433 2.631879
v 1.446100 -0.463148 2.650646
v 1.440424 -0.461152 2.670836
v 1.436378 -0.459735 2.692532
v 1.435120 -0.458907 2.527460
v 1.439786 -0.475803 2.533199
v 1.442839 -0.486862 2.544248
v 1.444504 -0.492905 2.556179
v 1.445014 -0.494767 2.569068
v 1.444600 -0.493287 2.582991
v 1.443493 -0.489302 2.598025
v 1.441924 -0.483647 2.614245
v 1.440125 -0.477160 2.631728
v 1.438326 -0.470679 2.650551
v 1.436761 -0.465040 2.670789
v 1.435658 -0.461080 2.692519
v 1.435250 -0.459636 2.715817
v 1.427586 -0.443130 2.533334
v 1.422672 -0.432858 2.544472
v 1.420001 -0.427289 2.556450
v 1.419200 -0.425642 2.569354
v 1.419895 -0.427132 2.583264
v 1.421712 -0.430977 2.598265
v 1.424278 -0.436393 2.614440
v 1.427218 -0.442598 2.631871
v 1.430159 -0.448807 2.650641
v 1.432727 -0.454239 2.670834
v 1.434549 -0.458110 2.692531
v 1.435594 -0.459089 2.527461
v 1.418695 -0.463763 2.533184
v 1.407629 -0.466828 2.544223
v 1.401579 -0.468508 2.556148
v 1.399709 -0.469033 2.569035
v 1.401181 -0.468636 2.582960
v 1.405158 -0.467547 2.597997
v 1.410803 -0.465997 2.614223
v 1.417279 -0.464219 2.631712
v 1.423749 -0.462444 2.650540
v 1.429376 -0.460902 2.670784
v 1.433323 -0.459826 2.692518
v 1.434753 -0.459446 2.715817
v 1.451367 -0.451562 2.533353
v 1.461633 -0.446661 2.544502
v 1.467194 -0.444005 2.556488
v 1.468834 -0.443220 2.569393
v 1.467336 -0.443932 2.583302
v 1.463482 -0.445767 2.598299
v 1.458056 -0.448352 2.614467
v 1.451841 -0.451313 2.631891
v 1.445621 -0.454276 2.650653
v 1.440177 -0.456869 2.670840
v 1.436293 -0.458716 2.692533
vt 0.000000 0.000000
vt 0.000000 0.000000
vt 0.000000 0.000000
vt 0.000000 0.000000
vt 0.000000 0.000000
vt 0.000000 0.000000
vt 0.000000 0.000000
vt 0.000000 0.000000
vt 0.000000 0.000000
vt 0.000000 0.000000
vt 0.000000 0.000000
vt 0.000000 0.000000
vt 0.000000 0.000000
vt 0.000000 0.000000
vt 0.000000 0.000000
vt 0.000000 0.000000
vt 0.000000 0.000000
vt 0.000000 0.000000
vt 0.000000 0.000000
vt 0.000000 0.000000
vt 0.000000 0.000000
vt 0.000000 0.000000
vt 0.000000 0.000000
vt 0.000000 0.000000
vt 0.000000 0.000000
vt 0.000000 0.000000
vt 0.000000 0.000000
vt 0.000000 0.000000
vt 0.000000 0.000000
vt 0.000000 0.000000
vt 0.000000 0.000000
vt 0.000000 0.000000
vt 0.000000 0.000000
vt 0.000000 0.000000
vt 0.000000 0.000000
vt 0.000000 0.000000
vt 0.000000 0.000000
vt 0.000000 0.000000
vt 0.000000 0.000000
vt 0.000000 0.000000
vt 0.000000 0.000000
vt 0.000000 0.000000
vt 0.000000 0.000000
vt 0.000000 0.000000
vt 0.000000 0.000000
vt 0.000000 0.000000
vt 0.000000 0.000000
vt 0.000000 0.000000
vt 0.000000 0.000000
vt 0.000000 0.000000
vt 0.000000 0.000000
vt 0.000000 0.000000
vt 0.000000 0.000000
vt 0.000000 0.000000
vt 0.000000 0.000000
vt 0.000000 0.000000
vt 0.000000 0.000000
vt 0.000000 0.000000
vt 0.000000 0.000000
vt 0.000000 0.000000
vt 0.000000 0.000000
vt 0.000000 0.000000
vt 0.000000 0.000000
vt 0.000000 0.000000
vt 0.000000 0.000000
vt 0.000000 0.000000
vt 0.000000 0.000000
vt 0.000000 0.000000
vt 0.000000 0.000000
vt 0.000000 0.000000
vt 0.000000 0.000000
vt 0.000000 0.000000
vt 0.000000 0.000000
vt 0.000000 0.000000
vt 0.000000 0.000000
vt 0.000000 0.000000
vt 0.000000 0.000000
vt 0.000000 0.000000
vt 0.000000 0.000000
vt 0.000000 0.000000
vt 0.000000 0.000000
vt 0.000000 0.000000
vt 0.000000 0.000000
vt 0.000000 0.000000
vt 0.000000 0.000000
vt 0.000000 0.000000
vt 0.000000 0.000000
vt 0.000000 0.000000
vt 0.000000 0.000000
vt 0.000000 0.000000
vt 0.000000 0.000000
vt 0.000000 0.000000
vt 0.000000 0.000000
vt 0.000000 0.000000
vt 0.000000 0.000000
vt 0.000000 0.000000
vn 0.9097 -0.4150 -0.0119
vn 0.9096 -0.4149 -0.0220
vn -0.4150 -0.9097 -0.0129
vn -0.4149 -0.9096 -0.0230
vn 0.9367 0.3499 -0.0112
vn 0.9366 0.3498 -0.0213
vn 0.3499 -0.9367 -0.0121
vn 0.3498 -0.9365 -0.0222
vn 0.9082 -0.4146 0.0577
vn 0.9040 -0.4130 0.1105
vn 0.8791 -0.4023 0.2555
vn 0.9082 -0.4146 0.0578
vn 0.9095 -0.4150 0.0255
vn 0.9094 -0.4150 0.0255
vn 0.9098 -0.4151 0.0013
vn 0.9097 -0.4149 -0.0163
vn 0.9095 -0.4148 -0.0275
vn 0.9094 -0.4147 -0.0329
vn 0.9094 -0.4147 -0.0332
vn 0.9095 -0.4148 -0.0293
vn 0.9098 -0.4150 -0.0060
vn -0.4146 -0.9082 0.0568
vn -0.4130 -0.9041 0.1095
vn -0.4024 -0.8794 0.2545
vn -0.4150 -0.9095 0.0245
vn -0.4150 -0.9095 0.0246
vn -0.4151 -0.9098 0.0003
vn -0.4149 -0.9097 -0.0173
vn -0.4148 -0.9095 -0.0285
vn -0.4147 -0.9093 -0.0339
vn -0.4147 -0.9093 -0.0342
vn -0.4148 -0.9094 -0.0303
vn -0.4150 -0.9098 -0.0070
vn 0.9353 0.3490 0.0584
vn 0.9312 0.3473 0.1112
vn 0.9353 0.3490 0.0585
vn 0.9059 0.3372 0.2561
vn 0.9312 0.3472 0.1112
vn 0.9365 0.3496 0.0262
vn 0.9368 0.3498 0.0020
vn 0.9367 0.3498 -0.0156
vn 0.9364 0.3498 -0.0268
vn 0.9363 0.3498 -0.0322
vn 0.9363 0.3498 -0.0325
vn 0.9364 0.3498 -0.0286
vn 0.9368 0.3499 -0.0053
vn 0.3490 -0.9354 0.0575
vn 0.3472 -0.9313 0.1102
vn 0.3371 -0.9062 0.2553
vn 0.3496 -0.9366 0.0253
vn 0.3498 -0.9368 0.0010
vn 0.3499 -0.9367 -0.0165
vn 0.3498 -0.9364 -0.0277
vn 0.3498 -0.9362 -0.0331
vn 0.3498 -0.9362 -0.0334
vn 0.3498 -0.9364 -0.0295
vn 0.3499 -0.9368 -0.0062
g Light2_BezierCurve.003_None
usemtl None
s 1
f 24/1/1 12/2/1 11/3/2
f 48/4/3 36/5/3 35/6/4
f 72/7/5 60/8/5 59/9/6
f 96/10/7 84/11/7 83/12/8
f 3/13/9 2/14/10 14/15/10
f 2/14/10 1/16/11 14/15/10
f 14/15/10 15/17/12 3/13/9
f 15/17/12 16/18/13 4/19/14
f 16/18/13 17/20/15 4/19/14
f 17/20/15 18/21/16 6/22/16
f 18/21/16 19/23/17 6/22/16
f 19/23/17 20/24/18 8/25/18
f 20/24/18 21/26/19 8/25/18
f 6/22/16 19/23/17 7/27/17
f 4/19/14 3/13/9 15/17/12
f 6/22/16 5/28/15 17/20/15
f 5/28/15 4/19/14 17/20/15
f 8/25/18 7/27/17 19/23/17
f 9/29/19 8/25/18 21/26/19
f 21/26/19 22/30/20 10/31/20
f 10/31/20 9/29/19 21/26/19
f 22/30/20 23/32/2 11/3/2
f 24/1/1 13/33/21 12/2/1
f 22/30/20 11/3/2 10/31/20
f 23/32/2 24/1/1 11/3/2
f 27/34/22 26/35/23 38/36/23
f 26/35/23 25/37/24 38/36/23
f 38/36/23 39/38/22 27/34/22
f 39/38/22 40/39/25 28/40/26
f 40/39/25 41/41/27 28/40/26
f 41/41/27 42/42/28 30/43/28
f 42/42/28 43/44/29 30/43/28
f 43/44/29 44/45/30 32/46/30
f 44/45/30 45/47/31 32/46/30
f 30/43/28 43/44/29 31/48/29
f 28/40/26 27/34/22 39/38/22
f 30/43/28 29/49/27 41/41/27
f 29/49/27 28/40/26 41/41/27
f 32/46/30 31/48/29 43/44/29
f 33/50/31 32/46/30 45/47/31
f 45/47/31 46/51/32 34/52/32
f 34/52/32 33/50/31 45/47/31
f 46/51/32 47/53/4 35/6/4
f 48/4/3 37/54/33 36/5/3
f 46/51/32 35/6/4 34/52/32
f 47/53/4 48/4/3 35/6/4
f 51/55/34 50/56/35 63/57/36
f 50/56/35 49/58/37 62/59/38
f 63/57/36 50/56/35 62/59/38
f 63/57/36 64/60/39 52/61/39
f 64/60/39 65/62/40 52/61/39
f 65/62/40 66/63/41 54/64/41
f 66/63/41 67/65/42 54/64/41
f 67/65/42 68/66/43 56/67/43
f 68/66/43 69/68/44 56/67/43
f 54/64/41 67/65/42 55/69/42
f 52/61/39 51/55/34 63/57/36
f 54/64/41 53/70/40 65/62/40
f 53/70/40 52/61/39 65/62/40
f 56/67/43 55/69/42 67/65/42
f 57/71/44 56/67/43 69/68/44
f 69/68/44 70/72/45 57/71/44
f 58/73/45 57/71/44 70/72/45
f 70/72/45 71/74/6 58/73/45
f 72/7/5 61/75/46 60/8/5
f 71/74/6 72/7/5 59/9/6
f 59/9/6 58/73/45 71/74/6
f 75/76/47 74/77/48 87/78/47
f 74/77/48 73/79/49 86/80/48
f 87/78/47 74/77/48 86/80/48
f 87/78/47 88/81/50 76/82/50
f 88/81/50 89/83/51 76/82/50
f 89/83/51 90/84/52 78/85/52
f 90/84/52 91/86/53 78/85/52
f 91/86/53 92/87/54 80/88/54
f 92/87/54 93/89/55 80/88/54
f 78/85/52 91/86/53 79/90/53
f 76/82/50 75/76/47 87/78/47
f 78/85/52 77/91/51 89/83/51
f 77/91/51 76/82/50 89/83/51
f 80/88/54 79/90/53 91/86/53
f 81/92/55 80/88/54 93/89/55
f 93/89/55 94/93/56 82/94/56
f 82/94/56 81/92/55 93/89/55
f 94/93/56 95/95/8 83/12/8
f 96/10/7 85/96/57 84/11/7
f 94/93/56 83/12/8 82/94/56
f 95/95/8 96/10/7 83/12/8
