# Blender v3.6.19 OBJ File: 'christmas_house_v5.blend'
# www.blender.org
mtllib Star.mtl
o Star
v -3.931892 3.206112 5.089276
v -3.865637 3.382305 5.034914
v -3.739647 3.495014 5.205303
v -3.911814 3.340996 5.237506
v -3.987347 3.273426 5.452930
v -4.066031 3.203036 5.235249
v -4.238704 3.048566 5.197999
v -4.115166 3.159081 5.031262
v -4.146351 3.131184 4.792816
v -3.991316 3.269875 4.907448
v -3.837917 3.407103 4.797330
v -4.048093 3.336005 5.089276
vn 0.9408 -0.3306 0.0753
vn 0.8398 -0.4214 -0.3422
vn 0.6355 -0.6120 0.4708
vn 0.9095 -0.3613 0.2056
vn 0.2538 -0.9434 0.2133
vn 0.5293 -0.7054 0.4715
vn 0.3327 -0.8807 -0.3372
vn 0.2225 -0.9713 0.0845
vn 0.7576 -0.4979 -0.4222
vn 0.4193 -0.8052 -0.4194
vn -0.2241 0.9716 0.0753
vn -0.3256 0.8814 -0.3422
vn -0.5377 0.6995 0.4708
vn -0.2582 0.9440 0.2056
vn -0.9095 0.3569 0.2133
vn -0.6423 0.6043 0.4715
vn -0.8383 0.4284 -0.3372
vn -0.9406 0.3289 0.0845
vn -0.4108 0.8081 -0.4222
vn -0.7537 0.5060 -0.4194
g Star_Star
usemtl (null)
s off
f 2//1 1//1 11//1
f 1//2 2//2 3//2
f 1//3 3//3 4//3
f 1//4 4//4 5//4
f 1//5 5//5 6//5
f 1//6 6//6 7//6
f 1//7 7//7 8//7
f 1//8 8//8 9//8
f 1//9 9//9 10//9
f 1//10 10//10 11//10
f 2//11 11//11 12//11
f 12//12 3//12 2//12
f 12//13 4//13 3//13
f 12//14 5//14 4//14
f 12//15 6//15 5//15
f 12//16 7//16 6//16
f 12//17 8//17 7//17
f 12//18 9//18 8//18
f 12//19 10//19 9//19
f 12//20 11//20 10//20
