# Blender v3.6.19 OBJ File: 'christmas_house_v5.blend'
# www.blender.org
mtllib Tree.mtl
o Tree_Cone
v -3.997091 4.665985 0.094166
v -3.723862 4.639074 0.094166
v -3.461132 4.559376 0.094166
v -3.218999 4.429954 0.094166
v -3.006768 4.255780 0.094166
v -2.832595 4.043549 0.094166
v -2.703172 3.801416 0.094166
v -2.623474 3.538686 0.094166
v -2.596563 3.265457 0.094166
v -2.623474 2.992227 0.094166
v -2.703172 2.729498 0.094166
v -2.832595 2.487365 0.094166
v -3.006768 2.275134 0.094166
v -3.218999 2.100960 0.094166
v -3.461132 1.971537 0.094166
v -3.723862 1.891839 0.094166
v -3.997091 1.864928 0.094166
v -4.270321 1.891839 0.094166
v -4.533050 1.971537 0.094166
v -4.775183 2.100960 0.094166
v -4.987414 2.275134 0.094166
v -5.161588 2.487365 0.094166
v -5.291011 2.729498 0.094166
v -5.370708 2.992227 0.094166
v -5.397619 3.265457 0.094166
v -5.370708 3.538686 0.094166
v -5.291011 3.801416 0.094166
v -5.161588 4.043549 0.094166
v -4.987414 4.255780 0.094166
v -4.775183 4.429954 0.094166
v -4.533050 4.559376 0.094166
v -4.270321 4.639074 0.094166
v -3.997091 3.265457 4.981411
vt 0.250000 0.490000
vt 0.250000 0.250000
vt 0.296822 0.485388
vt 0.341844 0.471731
vt 0.383337 0.449553
vt 0.419706 0.419706
vt 0.449553 0.383337
vt 0.471731 0.341844
vt 0.485388 0.296822
vt 0.490000 0.250000
vt 0.485388 0.203178
vt 0.471731 0.158156
vt 0.449553 0.116663
vt 0.419706 0.080294
vt 0.383337 0.050447
vt 0.341844 0.028269
vt 0.296822 0.014612
vt 0.250000 0.010000
vt 0.203178 0.014612
vt 0.158156 0.028269
vt 0.116663 0.050447
vt 0.080294 0.080294
vt 0.050447 0.116663
vt 0.028269 0.158156
vt 0.014612 0.203178
vt 0.010000 0.250000
vt 0.014612 0.296822
vt 0.028269 0.341844
vt 0.050447 0.383337
vt 0.080294 0.419706
vt 0.116663 0.449553
vt 0.158156 0.471731
vt 0.796822 0.014612
vt 0.514612 0.203178
vt 0.703178 0.485388
vt 0.203178 0.485388
vt 0.750000 0.490000
vt 0.796822 0.485388
vt 0.841844 0.471731
vt 0.883337 0.449553
vt 0.919706 0.419706
vt 0.949553 0.383337
vt 0.971731 0.341844
vt 0.985388 0.296822
vt 0.990000 0.250000
vt 0.985388 0.203178
vt 0.971731 0.158156
vt 0.949553 0.116663
vt 0.919706 0.080294
vt 0.883337 0.050447
vt 0.841844 0.028269
vt 0.750000 0.010000
vt 0.703178 0.014612
vt 0.658156 0.028269
vt 0.616663 0.050447
vt 0.580294 0.080294
vt 0.550447 0.116663
vt 0.528269 0.158156
vt 0.510000 0.250000
vt 0.514612 0.296822
vt 0.528269 0.341844
vt 0.550447 0.383337
vt 0.580294 0.419706
vt 0.616663 0.449553
vt 0.658156 0.471731
vn 0.0943 0.9570 0.2743
vn 0.2792 0.9202 0.2743
vn 0.4533 0.8481 0.2743
vn 0.6101 0.7434 0.2743
vn 0.7434 0.6101 0.2743
vn 0.8481 0.4533 0.2743
vn 0.9202 0.2792 0.2743
vn 0.9570 0.0943 0.2743
vn 0.9570 -0.0943 0.2743
vn 0.9202 -0.2792 0.2743
vn 0.8481 -0.4533 0.2743
vn 0.7434 -0.6101 0.2743
vn 0.6101 -0.7434 0.2743
vn 0.4533 -0.8481 0.2743
vn 0.2792 -0.9202 0.2743
vn 0.0943 -0.9570 0.2743
vn -0.0943 -0.9570 0.2743
vn -0.2792 -0.9202 0.2743
vn -0.4533 -0.8481 0.2743
vn -0.6101 -0.7434 0.2743
vn -0.7434 -0.6101 0.2743
vn -0.8481 -0.4533 0.2743
vn -0.9202 -0.2792 0.2743
vn -0.9570 -0.0943 0.2743
vn -0.9570 0.0943 0.2743
vn -0.9202 0.2792 0.2743
vn -0.8481 0.4533 0.2743
vn -0.7434 0.6101 0.2743
vn -0.6101 0.7434 0.2743
vn -0.4533 0.8481 0.2743
vn 0.0000 0.0000 -1.0000
vn -0.2792 0.9202 0.2743
vn -0.0943 0.9570 0.2743
g Tree_Cone_None
usemtl None
s off
f 1/1/1 33/2/1 2/3/1
f 2/3/2 33/2/2 3/4/2
f 3/4/3 33/2/3 4/5/3
f 4/5/4 33/2/4 5/6/4
f 5/6/5 33/2/5 6/7/5
f 6/7/6 33/2/6 7/8/6
f 7/8/7 33/2/7 8/9/7
f 8/9/8 33/2/8 9/10/8
f 9/10/9 33/2/9 10/11/9
f 10/11/10 33/2/10 11/12/10
f 11/12/11 33/2/11 12/13/11
f 12/13/12 33/2/12 13/14/12
f 13/14/13 33/2/13 14/15/13
f 14/15/14 33/2/14 15/16/14
f 15/16/15 33/2/15 16/17/15
f 16/17/16 33/2/16 17/18/16
f 17/18/17 33/2/17 18/19/17
f 18/19/18 33/2/18 19/20/18
f 19/20/19 33/2/19 20/21/19
f 20/21/20 33/2/20 21/22/20
f 21/22/21 33/2/21 22/23/21
f 22/23/22 33/2/22 23/24/22
f 23/24/23 33/2/23 24/25/23
f 24/25/24 33/2/24 25/26/24
f 25/26/25 33/2/25 26/27/25
f 26/27/26 33/2/26 27/28/26
f 27/28/27 33/2/27 28/29/27
f 28/29/28 33/2/28 29/30/28
f 29/30/29 33/2/29 30/31/29
f 30/31/30 33/2/30 31/32/30
f 16/33/31 24/34/31 32/35/31
f 31/32/32 33/2/32 32/36/32
f 32/36/33 33/2/33 1/1/33
f 32/35/31 1/37/31 2/38/31
f 2/38/31 3/39/31 4/40/31
f 4/40/31 5/41/31 6/42/31
f 6/42/31 7/43/31 8/44/31
f 8/44/31 9/45/31 10/46/31
f 10/46/31 11/47/31 12/48/31
f 12/48/31 13/49/31 14/50/31
f 14/50/31 15/51/31 16/33/31
f 16/33/31 17/52/31 18/53/31
f 18/53/31 19/54/31 20/55/31
f 20/55/31 21/56/31 22/57/31
f 22/57/31 23/58/31 24/34/31
f 24/34/31 25/59/31 26/60/31
f 26/60/31 27/61/31 28/62/31
f 28/62/31 29/63/31 30/64/31
f 30/64/31 31/65/31 32/35/31
f 32/35/31 2/38/31 8/44/31
f 2/38/31 4/40/31 8/44/31
f 4/40/31 6/42/31 8/44/31
f 8/44/31 10/46/31 16/33/31
f 10/46/31 12/48/31 16/33/31
f 12/48/31 14/50/31 16/33/31
f 16/33/31 18/53/31 24/34/31
f 18/53/31 20/55/31 24/34/31
f 20/55/31 22/57/31 24/34/31
f 24/34/31 26/60/31 32/35/31
f 26/60/31 28/62/31 32/35/31
f 28/62/31 30/64/31 32/35/31
f 32/35/31 8/44/31 16/33/31
