# Blender v3.6.19 OBJ File: 'christmas_house_v4.blend'
# www.blender.org
mtllib Ceiling_back_walls.mtl
o Ceiling_back_walls_Plane.004
v -5.962924 -7.402667 5.717171
v -5.968476 5.492751 5.717171
v 6.932494 -7.397115 5.716485
v 6.926942 5.498303 5.716485
v -5.963230 -7.402667 -0.027951
v 6.932188 -7.397115 -0.028637
v 6.926636 5.498303 -0.028637
v 7.211816 -7.676188 5.858624
v -5.962768 -7.744609 5.891274
v -5.968464 5.492751 5.963391
v 7.268892 5.498450 5.890570
v 7.274277 -7.738909 -0.028656
v -5.963021 -7.886246 -0.027951
v 7.410214 5.498511 -0.028663
vt 1.000000 0.000000
vt 0.000000 1.000000
vt 0.000000 0.000000
vt 1.000000 1.000000
vt 0.000000 1.000000
vt 0.000000 0.000000
vt 0.000000 1.000000
vt 1.000000 0.000000
vt 0.000000 0.000000
vt 1.000000 1.000000
vt 1.000000 1.000000
vt 0.000000 0.000000
vt 1.000000 1.000000
vt 0.000000 1.000000
vn -0.0001 -0.0000 -1.0000
vn -1.0000 -0.0004 0.0001
vn -0.0004 1.0000 0.0000
vn 0.0025 -0.0054 1.0000
vn 0.9997 -0.0044 0.0239
vn 0.0053 -0.9997 0.0239
vn 0.0055 -0.0024 1.0000
vn 0.9999 -0.0103 0.0107
vn 0.0111 -0.9999 0.0108
g Ceiling_back_walls_Plane.004_None
usemtl None
s off
f 2/1/1 3/2/1 1/3/1
f 4/4/2 6/5/2 3/2/2
f 3/2/3 5/6/3 1/3/3
f 8/7/4 10/8/4 9/9/4
f 8/7/5 14/10/5 11/11/5
f 13/12/6 8/7/6 9/9/6
f 6/5/1 13/12/1 5/6/1
f 4/4/3 10/8/3 11/11/3
f 4/4/3 14/10/3 7/13/3
f 6/5/1 14/10/1 12/14/1
f 1/3/2 10/8/2 2/1/2
f 1/3/2 13/12/2 9/9/2
f 2/1/1 4/4/1 3/2/1
f 4/4/2 7/13/2 6/5/2
f 3/2/3 6/5/3 5/6/3
f 8/7/7 11/11/7 10/8/7
f 8/7/8 12/14/8 14/10/8
f 13/12/9 12/14/9 8/7/9
f 6/5/1 12/14/1 13/12/1
f 4/4/3 2/1/3 10/8/3
f 4/4/3 11/11/3 14/10/3
f 6/5/1 7/13/1 14/10/1
f 1/3/2 9/9/2 10/8/2
f 1/3/2 5/6/2 13/12/2
