# Blender v3.6.19 OBJ File: 'christmas_house_v4.blend'
# www.blender.org
mtllib Light3.mtl
o Light3_BezierCurve.002
v 0.183364 -0.791912 2.251336
v 0.173894 -0.806660 2.257080
v 0.167698 -0.816312 2.268132
v 0.164316 -0.821585 2.280065
v 0.163278 -0.823209 2.292954
v 0.164114 -0.821915 2.306877
v 0.166356 -0.818434 2.321909
v 0.169534 -0.813495 2.338128
v 0.173179 -0.807831 2.355609
v 0.176822 -0.802170 2.374430
v 0.179993 -0.797245 2.394667
v 0.182224 -0.793785 2.416396
v 0.183044 -0.792521 2.439693
v 0.190097 -0.775776 2.257207
v 0.194481 -0.765264 2.268343
v 0.196857 -0.759562 2.280321
v 0.197559 -0.757868 2.293224
v 0.196922 -0.759382 2.307135
v 0.195281 -0.763302 2.322137
v 0.192969 -0.768828 2.338312
v 0.190320 -0.775160 2.355744
v 0.187669 -0.781496 2.374515
v 0.185350 -0.787035 2.394709
v 0.183697 -0.790977 2.416407
v 0.182890 -0.792093 2.251336
v 0.197639 -0.801561 2.257081
v 0.207294 -0.807752 2.268133
v 0.212570 -0.811129 2.280066
v 0.214197 -0.812162 2.292956
v 0.212906 -0.811319 2.306878
v 0.209428 -0.809071 2.321910
v 0.204493 -0.805885 2.338129
v 0.198832 -0.802233 2.355610
v 0.193176 -0.798582 2.374430
v 0.188255 -0.795402 2.394667
v 0.184800 -0.793162 2.416395
v 0.183542 -0.792331 2.439693
v 0.166755 -0.785357 2.257208
v 0.156246 -0.780969 2.268344
v 0.150547 -0.778588 2.280322
v 0.148856 -0.777880 2.293225
v 0.150372 -0.778511 2.307136
v 0.154296 -0.780146 2.322138
v 0.159826 -0.782451 2.338313
v 0.166162 -0.785092 2.355745
v 0.172502 -0.787735 2.374516
v 0.178046 -0.790045 2.394709
v 0.181993 -0.791689 2.416407
vt 0.000000 0.000000
vt 0.000000 0.000000
vt 0.000000 0.000000
vt 0.000000 0.000000
vt 0.000000 0.000000
vt 0.000000 0.000000
vt 0.000000 0.000000
vt 0.000000 0.000000
vt 0.000000 0.000000
vt 0.000000 0.000000
vt 0.000000 0.000000
vt 0.000000 0.000000
vt 0.000000 0.000000
vt 0.000000 0.000000
vt 0.000000 0.000000
vt 0.000000 0.000000
vt 0.000000 0.000000
vt 0.000000 0.000000
vt 0.000000 0.000000
vt 0.000000 0.000000
vt 0.000000 0.000000
vt 0.000000 0.000000
vt 0.000000 0.000000
vt 0.000000 0.000000
vt 0.000000 0.000000
vt 0.000000 0.000000
vt 0.000000 0.000000
vt 0.000000 0.000000
vt 0.000000 0.000000
vt 0.000000 0.000000
vt 0.000000 0.000000
vt 0.000000 0.000000
vt 0.000000 0.000000
vt 0.000000 0.000000
vt 0.000000 0.000000
vt 0.000000 0.000000
vt 0.000000 0.000000
vt 0.000000 0.000000
vt 0.000000 0.000000
vt 0.000000 0.000000
vt 0.000000 0.000000
vt 0.000000 0.000000
vt 0.000000 0.000000
vt 0.000000 0.000000
vt 0.000000 0.000000
vt 0.000000 0.000000
vt 0.000000 0.000000
vt 0.000000 0.000000
vn 0.8855 -0.4645 -0.0119
vn 0.8854 -0.4644 -0.0220
vn 0.4645 0.8855 -0.0124
vn 0.4644 0.8853 -0.0225
vn 0.8839 -0.4640 0.0578
vn 0.8799 -0.4621 0.1104
vn 0.8799 -0.4621 0.1105
vn 0.8557 -0.4500 0.2555
vn 0.8852 -0.4645 0.0255
vn 0.8855 -0.4646 0.0013
vn 0.8854 -0.4645 -0.0163
vn 0.8852 -0.4643 -0.0275
vn 0.8851 -0.4642 -0.0329
vn 0.8851 -0.4642 -0.0332
vn 0.8852 -0.4643 -0.0293
vn 0.8853 -0.4644 -0.0220
vn 0.8855 -0.4646 -0.0060
vn 0.4640 0.8840 0.0573
vn 0.4621 0.8800 0.1100
vn 0.4501 0.8558 0.2550
vn 0.4645 0.8852 0.0251
vn 0.4646 0.8855 0.0008
vn 0.4645 0.8854 -0.0168
vn 0.4643 0.8852 -0.0280
vn 0.4642 0.8851 -0.0334
vn 0.4642 0.8851 -0.0337
vn 0.4643 0.8852 -0.0298
vn 0.4646 0.8855 -0.0065
g Light3_BezierCurve.002_None
usemtl None
s 1
f 24/1/1 12/2/1 11/3/2
f 48/4/3 36/5/3 35/6/4
f 3/7/5 2/8/6 14/9/7
f 2/8/6 1/10/8 14/9/7
f 14/9/7 15/11/5 3/7/5
f 15/11/5 16/12/9 4/13/9
f 16/12/9 17/14/10 4/13/9
f 17/14/10 18/15/11 6/16/11
f 18/15/11 19/17/12 6/16/11
f 19/17/12 20/18/13 8/19/13
f 20/18/13 21/20/14 8/19/13
f 6/16/11 19/17/12 7/21/12
f 4/13/9 3/7/5 15/11/5
f 6/16/11 5/22/10 17/14/10
f 5/22/10 4/13/9 17/14/10
f 8/19/13 7/21/12 19/17/12
f 9/23/14 8/19/13 21/20/14
f 21/20/14 22/24/15 10/25/15
f 10/25/15 9/23/14 21/20/14
f 22/24/15 23/26/16 11/3/2
f 24/1/1 13/27/17 12/2/1
f 22/24/15 11/3/2 10/25/15
f 23/26/16 24/1/1 11/3/2
f 27/28/18 26/29/19 39/30/18
f 26/29/19 25/31/20 38/32/19
f 39/30/18 26/29/19 38/32/19
f 39/30/18 40/33/21 28/34/21
f 40/33/21 41/35/22 28/34/21
f 41/35/22 42/36/23 30/37/23
f 42/36/23 43/38/24 30/37/23
f 43/38/24 44/39/25 32/40/25
f 44/39/25 45/41/26 32/40/25
f 30/37/23 43/38/24 31/42/24
f 28/34/21 27/28/18 39/30/18
f 30/37/23 29/43/22 41/35/22
f 29/43/22 28/34/21 41/35/22
f 32/40/25 31/42/24 43/38/24
f 33/44/26 32/40/25 45/41/26
f 45/41/26 46/45/27 34/46/27
f 34/46/27 33/44/26 45/41/26
f 46/45/27 47/47/4 35/6/4
f 48/4/3 37/48/28 36/5/3
f 46/45/27 35/6/4 34/46/27
f 47/47/4 48/4/3 35/6/4
