# Blender v3.6.19 OBJ File: 'christmas_house_v4.blend'
# www.blender.org
mtllib Mecha3.mtl
o Mecha3_Vert.004
v 0.178684 -0.794933 2.307794
v 0.181369 -0.796419 2.308678
v 0.184469 -0.796382 2.309002
v 0.187155 -0.794832 2.308678
v 0.188706 -0.792184 2.307794
v 0.188706 -0.789147 2.306586
v 0.187156 -0.786536 2.305377
v 0.184471 -0.785050 2.304493
v 0.181370 -0.785088 2.304169
v 0.178685 -0.786638 2.304493
v 0.177134 -0.789286 2.305377
v 0.177134 -0.792322 2.306586
v 0.178685 -0.794937 2.197977
v 0.181370 -0.796425 2.198842
v 0.184471 -0.796388 2.199158
v 0.187156 -0.794837 2.198842
v 0.188707 -0.792187 2.197977
v 0.188706 -0.789147 2.196796
v 0.187155 -0.786533 2.195615
v 0.184470 -0.785045 2.194751
v 0.181369 -0.785081 2.194434
v 0.178684 -0.786633 2.194751
v 0.177133 -0.789283 2.195615
v 0.177134 -0.792322 2.196796
v 0.178685 -0.794937 2.197977
v 0.181370 -0.796425 2.198842
v 0.184471 -0.796388 2.199158
v 0.187156 -0.794837 2.198842
v 0.188707 -0.792187 2.197977
v 0.188706 -0.789147 2.196796
v 0.187155 -0.786533 2.195615
v 0.184470 -0.785045 2.194751
v 0.181369 -0.785081 2.194434
v 0.178684 -0.786633 2.194751
v 0.177133 -0.789283 2.195615
v 0.177134 -0.792322 2.196796
v 0.177558 -0.790831 2.232836
v 0.180254 -0.792357 2.232430
v 0.183359 -0.792335 2.232280
v 0.186040 -0.790770 2.232430
v 0.187580 -0.788081 2.232836
v 0.187565 -0.784990 2.233393
v 0.186000 -0.782324 2.233949
v 0.183304 -0.780798 2.234356
v 0.180200 -0.780821 2.234505
v 0.177518 -0.782386 2.234356
v 0.175979 -0.785074 2.233949
v 0.175993 -0.788165 2.233393
v 0.179867 -0.799246 2.269447
v 0.182563 -0.800772 2.269050
v 0.185668 -0.800750 2.268904
v 0.188349 -0.799185 2.269050
v 0.189889 -0.796496 2.269447
v 0.189874 -0.793404 2.269989
v 0.188309 -0.790738 2.270531
v 0.185613 -0.789211 2.270928
v 0.182508 -0.789233 2.271074
v 0.179827 -0.790799 2.270928
v 0.178287 -0.793487 2.270531
v 0.178302 -0.796579 2.269989
v 0.178684 -0.794933 2.307794
v 0.181369 -0.796419 2.308678
v 0.184469 -0.796382 2.309002
v 0.187155 -0.794832 2.308678
v 0.188706 -0.792184 2.307794
v 0.188706 -0.789147 2.306586
v 0.187156 -0.786536 2.305377
v 0.184471 -0.785050 2.304493
v 0.181370 -0.785088 2.304169
v 0.178685 -0.786638 2.304493
v 0.177134 -0.789286 2.305377
v 0.177134 -0.792322 2.306586
vt 0.818182 0.000000
vt 0.636364 0.000000
vt 0.727273 0.000000
vt 0.909091 0.000000
vt 0.545455 0.000000
vt 1.000000 0.000000
vt 0.454545 0.000000
vt 0.000000 0.000000
vt 0.363636 0.000000
vt 0.090909 0.000000
vt 0.272727 0.000000
vt 0.181818 0.000000
vt 0.090909 0.000000
vt 0.272727 0.000000
vt 0.181818 0.000000
vt 0.363636 0.000000
vt 0.000000 0.000000
vt 0.454545 0.000000
vt 1.000000 0.000000
vt 0.545455 0.000000
vt 0.909091 0.000000
vt 0.636364 0.000000
vt 0.818182 0.000000
vt 0.727273 0.000000
vt 0.333333 1.000000
vt 0.000000 0.916667
vt 0.000000 1.000000
vt 0.333333 0.083333
vt 0.000000 0.000000
vt 0.000000 0.083333
vt 0.333333 0.166667
vt 0.000000 0.166667
vt 0.000000 0.250000
vt 0.000000 0.333333
vt 0.333333 0.250000
vt 0.000000 0.416667
vt 0.333333 0.333333
vt 0.000000 0.500000
vt 0.333333 0.416667
vt 0.000000 0.583333
vt 0.333333 0.500000
vt 0.000000 0.666667
vt 0.333333 0.583333
vt 0.333333 0.750000
vt 0.000000 0.750000
vt 0.333333 0.833333
vt 0.000000 0.833333
vt 0.333333 0.916667
vt 0.666667 0.916667
vt 0.666667 0.000000
vt 0.333333 0.000000
vt 0.666667 0.083333
vt 0.666667 0.250000
vt 0.666667 0.333333
vt 0.666667 0.416667
vt 0.666667 0.500000
vt 0.666667 0.583333
vt 0.666667 0.666667
vt 0.333333 0.666667
vt 0.666667 0.750000
vt 0.666667 0.833333
vt 1.000000 1.000000
vt 0.666667 1.000000
vt 1.000000 0.083333
vt 1.000000 0.166667
vt 0.666667 0.166667
vt 1.000000 0.250000
vt 1.000000 0.333333
vt 1.000000 0.416667
vt 1.000000 0.500000
vt 1.000000 0.583333
vt 1.000000 0.750000
vt 1.000000 0.833333
vt 1.000000 0.916667
vt 1.000000 0.000000
vt 1.000000 0.666667
vn -0.1009 0.3678 0.9244
vn -0.1009 0.3679 0.9244
vn -0.1010 0.3678 0.9244
vn 0.0989 -0.3604 -0.9275
vn 0.0989 -0.3605 -0.9275
vn -0.7223 -0.6910 -0.0277
vn -0.9748 -0.2232 -0.0046
vn -0.7334 -0.6774 0.0571
vn -0.2695 -0.9620 -0.0446
vn -0.2816 -0.9536 0.1067
vn 0.2643 -0.9631 -0.0504
vn 0.2625 -0.9567 0.1259
vn 0.7288 -0.6764 0.1067
vn 0.9764 -0.2082 0.0571
vn 0.7227 -0.6897 -0.0446
vn 0.9522 0.3055 -0.0046
vn 0.9738 -0.2256 -0.0277
vn 0.6793 0.7314 -0.0603
vn 0.9562 0.2927 -0.0017
vn 0.2360 0.9668 -0.0976
vn 0.6869 0.7262 0.0290
vn -0.2630 0.9585 -0.1105
vn 0.2421 0.9687 0.0551
vn -0.7026 0.7095 0.0551
vn -0.6964 0.7110 -0.0976
vn -0.9613 0.2739 0.0290
vn -0.9574 0.2823 -0.0603
vn -0.9717 -0.2363 -0.0017
vn -0.9562 -0.2928 0.0017
vn -0.6867 -0.7263 -0.0283
vn -0.2420 -0.9688 -0.0538
vn 0.7025 -0.7097 -0.0538
vn 0.9613 -0.2742 -0.0283
vn 0.9717 0.2361 0.0017
vn 0.7224 0.6909 0.0270
vn 0.2696 0.9620 0.0435
vn -0.2643 0.9632 0.0491
vn -0.2640 0.9623 0.0655
vn -0.7228 0.6897 0.0435
vn -0.9739 0.2255 0.0270
vn -0.6789 -0.7316 0.0617
vn -0.2358 -0.9667 0.0999
vn 0.2629 -0.9582 0.1131
vn 0.2641 -0.9624 -0.0639
vn 0.6961 -0.7110 0.0999
vn 0.9572 -0.2827 0.0617
vn 0.9750 0.2224 0.0048
vn 0.7342 0.6764 -0.0583
vn 0.2824 0.9531 -0.1091
vn -0.7292 0.6755 -0.1091
vn -0.9766 0.2071 -0.0583
vn -0.9519 -0.3063 0.0048
vn -0.2624 0.9563 -0.1288
g Mecha3_Vert.004_None
usemtl None
s 1
f 10/1/1 8/2/1 9/3/2
f 11/4/3 8/2/1 10/1/1
f 11/4/3 7/5/1 8/2/1
f 12/6/1 7/5/1 11/4/3
f 12/6/1 6/7/1 7/5/1
f 1/8/1 6/7/1 12/6/1
f 1/8/1 5/9/1 6/7/1
f 2/10/1 5/9/1 1/8/1
f 2/10/1 4/11/1 5/9/1
f 3/12/1 4/11/1 2/10/1
f 14/13/4 16/14/4 15/15/5
f 14/13/4 17/16/4 16/14/4
f 13/17/4 17/16/4 14/13/4
f 13/17/4 18/18/4 17/16/4
f 24/19/4 18/18/4 13/17/4
f 24/19/4 19/20/4 18/18/4
f 23/21/4 19/20/4 24/19/4
f 23/21/4 20/22/4 19/20/4
f 22/23/4 20/22/4 23/21/4
f 22/23/4 21/24/5 20/22/4
f 37/25/6 36/26/7 25/27/8
f 38/28/9 25/29/8 26/30/10
f 39/31/11 26/30/10 27/32/12
f 28/33/13 39/31/11 27/32/12
f 29/34/14 40/35/15 28/33/13
f 30/36/16 41/37/17 29/34/14
f 31/38/18 42/39/19 30/36/16
f 32/40/20 43/41/21 31/38/18
f 33/42/22 44/43/23 32/40/20
f 46/44/24 33/42/22 34/45/25
f 47/46/26 34/45/25 35/47/27
f 48/48/28 35/47/27 36/26/7
f 37/25/6 60/49/29 48/48/28
f 38/28/9 49/50/30 37/51/6
f 39/31/11 50/52/31 38/28/9
f 52/53/32 39/31/11 40/35/15
f 53/54/33 40/35/15 41/37/17
f 54/55/34 41/37/17 42/39/19
f 55/56/35 42/39/19 43/41/21
f 56/57/36 43/41/21 44/43/23
f 57/58/37 44/43/23 45/59/38
f 46/44/24 57/58/37 45/59/38
f 47/46/26 58/60/39 46/44/24
f 48/48/28 59/61/40 47/46/26
f 61/62/41 60/49/29 49/63/30
f 62/64/42 49/50/30 50/52/31
f 63/65/43 50/52/31 51/66/44
f 52/53/32 63/65/43 51/66/44
f 53/54/33 64/67/45 52/53/32
f 54/55/34 65/68/46 53/54/33
f 55/56/35 66/69/47 54/55/34
f 56/57/36 67/70/48 55/56/35
f 57/58/37 68/71/49 56/57/36
f 70/72/50 57/58/37 58/60/39
f 71/73/51 58/60/39 59/61/40
f 72/74/52 59/61/40 60/49/29
f 37/25/6 48/48/28 36/26/7
f 38/28/9 37/51/6 25/29/8
f 39/31/11 38/28/9 26/30/10
f 28/33/13 40/35/15 39/31/11
f 29/34/14 41/37/17 40/35/15
f 30/36/16 42/39/19 41/37/17
f 31/38/18 43/41/21 42/39/19
f 32/40/20 44/43/23 43/41/21
f 33/42/22 45/59/38 44/43/23
f 46/44/24 45/59/38 33/42/22
f 47/46/26 46/44/24 34/45/25
f 48/48/28 47/46/26 35/47/27
f 37/25/6 49/63/30 60/49/29
f 38/28/9 50/52/31 49/50/30
f 39/31/11 51/66/44 50/52/31
f 52/53/32 51/66/44 39/31/11
f 53/54/33 52/53/32 40/35/15
f 54/55/34 53/54/33 41/37/17
f 55/56/35 54/55/34 42/39/19
f 56/57/36 55/56/35 43/41/21
f 57/58/37 56/57/36 44/43/23
f 46/44/24 58/60/39 57/58/37
f 47/46/26 59/61/40 58/60/39
f 48/48/28 60/49/29 59/61/40
f 61/62/41 72/74/52 60/49/29
f 62/64/42 61/75/41 49/50/30
f 63/65/43 62/64/42 50/52/31
f 52/53/32 64/67/45 63/65/43
f 53/54/33 65/68/46 64/67/45
f 54/55/34 66/69/47 65/68/46
f 55/56/35 67/70/48 66/69/47
f 56/57/36 68/71/49 67/70/48
f 57/58/37 69/76/53 68/71/49
f 70/72/50 69/76/53 57/58/37
f 71/73/51 70/72/50 58/60/39
f 72/74/52 71/73/51 59/61/40
