# Blender v3.6.19 OBJ File: 'Candles_v2.blend'
# www.blender.org
mtllib Light1.mtl
o Light1_BezierCurve.004
v 1.407247 -0.490213 2.574065
v 1.420642 -0.490536 2.578768
v 1.429992 -0.491152 2.589105
v 1.435572 -0.491815 2.600619
v 1.438028 -0.492530 2.613335
v 1.438007 -0.493302 2.627280
v 1.432451 -0.492573 2.644489
v 1.433122 -0.495033 2.658961
v 1.429552 -0.496000 2.676749
v 1.430379 -0.499482 2.695866
v 1.423393 -0.498163 2.716347
v 1.417416 -0.496615 2.738213
v 1.418172 -0.497907 2.761487
v 1.395002 -0.492794 2.580777
v 1.387613 -0.494884 2.592426
v 1.384081 -0.496350 2.604653
v 1.383782 -0.497308 2.617586
v 1.386092 -0.497874 2.631348
v 1.386681 -0.496604 2.648076
v 1.396040 -0.498298 2.661867
v 1.402430 -0.498389 2.678874
v 1.413215 -0.500994 2.697211
v 1.414917 -0.498910 2.717011
v 1.415085 -0.496820 2.738396
v 1.407471 -0.489911 2.574065
v 1.407871 -0.503186 2.579050
v 1.408720 -0.512282 2.589571
v 1.409657 -0.517581 2.601184
v 1.410687 -0.519728 2.613931
v 1.411812 -0.519370 2.627851
v 1.409331 -0.515590 2.644992
v 1.414361 -0.513721 2.659369
v 1.415791 -0.509722 2.677047
v 1.421613 -0.508243 2.696055
v 1.418976 -0.502608 2.716441
v 1.416058 -0.498031 2.738239
v 1.417937 -0.498223 2.761487
v 1.405747 -0.477517 2.580803
v 1.405210 -0.469853 2.592468
v 1.405393 -0.466029 2.604704
v 1.406194 -0.465419 2.617639
v 1.407512 -0.467394 2.631400
v 1.405540 -0.469767 2.648121
v 1.411290 -0.476595 2.661904
v 1.413544 -0.482568 2.678901
v 1.420192 -0.491059 2.697228
v 1.418274 -0.494122 2.717020
v 1.415865 -0.495697 2.738399
v 1.407355 -0.490356 2.574049
v 1.417003 -0.481521 2.579568
v 1.423899 -0.476146 2.590439
v 1.428135 -0.473539 2.602244
v 1.430174 -0.473251 2.615051
v 1.430477 -0.474833 2.628924
v 1.425799 -0.476273 2.645941
v 1.427719 -0.481808 2.660139
v 1.425581 -0.486303 2.677613
v 1.427838 -0.493309 2.696418
v 1.422096 -0.495059 2.716626
v 1.416990 -0.495669 2.738301
v 1.418058 -0.497757 2.761505
v 1.400385 -0.501275 2.579871
v 1.396430 -0.508798 2.590940
v 1.394761 -0.513212 2.602853
v 1.395015 -0.515046 2.615692
v 1.396828 -0.514832 2.629538
v 1.396133 -0.511538 2.646482
v 1.403684 -0.510379 2.660578
v 1.408002 -0.507200 2.677934
v 1.416714 -0.506533 2.696620
v 1.416602 -0.501589 2.716726
v 1.415479 -0.497465 2.738328
v 1.407301 -0.489985 2.574074
v 1.416865 -0.499469 2.578554
v 1.423710 -0.506084 2.588744
v 1.427922 -0.510028 2.600177
v 1.429959 -0.511758 2.612868
v 1.430278 -0.511732 2.626832
v 1.425630 -0.508848 2.644093
v 1.427589 -0.508249 2.658639
v 1.425496 -0.505707 2.676512
v 1.427798 -0.505683 2.695714
v 1.422097 -0.501314 2.716269
v 1.417025 -0.497628 2.738186
v 1.418115 -0.498146 2.761478
v 1.397229 -0.482912 2.581166
v 1.391255 -0.478717 2.593062
v 1.388489 -0.476776 2.605423
v 1.388417 -0.476727 2.618395
v 1.390520 -0.478207 2.632122
v 1.390579 -0.479291 2.648757
v 1.399191 -0.484302 2.662417
v 1.404725 -0.488192 2.679275
v 1.414654 -0.494599 2.697463
v 1.415606 -0.495841 2.717133
v 1.415240 -0.496123 2.738424
vt 0.000000 0.000000
vt 0.000000 0.000000
vt 0.000000 0.000000
vt 0.000000 0.000000
vt 0.000000 0.000000
vt 0.000000 0.000000
vt 0.000000 0.000000
vt 0.000000 0.000000
vt 0.000000 0.000000
vt 0.000000 0.000000
vt 0.000000 0.000000
vt 0.000000 0.000000
vt 0.000000 0.000000
vt 0.000000 0.000000
vt 0.000000 0.000000
vt 0.000000 0.000000
vt 0.000000 0.000000
vt 0.000000 0.000000
vt 0.000000 0.000000
vt 0.000000 0.000000
vt 0.000000 0.000000
vt 0.000000 0.000000
vt 0.000000 0.000000
vt 0.000000 0.000000
vt 0.000000 0.000000
vt 0.000000 0.000000
vt 0.000000 0.000000
vt 0.000000 0.000000
vt 0.000000 0.000000
vt 0.000000 0.000000
vt 0.000000 0.000000
vt 0.000000 0.000000
vt 0.000000 0.000000
vt 0.000000 0.000000
vt 0.000000 0.000000
vt 0.000000 0.000000
vt 0.000000 0.000000
vt 0.000000 0.000000
vt 0.000000 0.000000
vt 0.000000 0.000000
vt 0.000000 0.000000
vt 0.000000 0.000000
vt 0.000000 0.000000
vt 0.000000 0.000000
vt 0.000000 0.000000
vt 0.000000 0.000000
vt 0.000000 0.000000
vt 0.000000 0.000000
vt 0.000000 0.000000
vt 0.000000 0.000000
vt 0.000000 0.000000
vt 0.000000 0.000000
vt 0.000000 0.000000
vt 0.000000 0.000000
vt 0.000000 0.000000
vt 0.000000 0.000000
vt 0.000000 0.000000
vt 0.000000 0.000000
vt 0.000000 0.000000
vt 0.000000 0.000000
vt 0.000000 0.000000
vt 0.000000 0.000000
vt 0.000000 0.000000
vt 0.000000 0.000000
vt 0.000000 0.000000
vt 0.000000 0.000000
vt 0.000000 0.000000
vt 0.000000 0.000000
vt 0.000000 0.000000
vt 0.000000 0.000000
vt 0.000000 0.000000
vt 0.000000 0.000000
vt 0.000000 0.000000
vt 0.000000 0.000000
vt 0.000000 0.000000
vt 0.000000 0.000000
vt 0.000000 0.000000
vt 0.000000 0.000000
vt 0.000000 0.000000
vt 0.000000 0.000000
vt 0.000000 0.000000
vt 0.000000 0.000000
vt 0.000000 0.000000
vt 0.000000 0.000000
vt 0.000000 0.000000
vt 0.000000 0.000000
vt 0.000000 0.000000
vt 0.000000 0.000000
vt 0.000000 0.000000
vt 0.000000 0.000000
vt 0.000000 0.000000
vt 0.000000 0.000000
vt 0.000000 0.000000
vt 0.000000 0.000000
vt 0.000000 0.000000
vt 0.000000 0.000000
vn 0.0649 -0.9975 -0.0295
vn 0.0944 -0.9949 -0.0352
vn 0.0700 -0.9963 -0.0496
vn 0.9881 0.0903 -0.1246
vn 0.9909 0.0743 0.1122
vn 0.9910 0.0744 0.1114
vn 0.7427 -0.6284 -0.2313
vn 0.7638 -0.6433 -0.0525
vn 0.7636 -0.6432 -0.0570
vn 0.6331 0.7740 -0.0098
vn 0.6343 0.7722 -0.0378
vn 0.6474 0.7617 -0.0254
vn 0.0653 -0.9655 -0.2522
vn 0.0752 -0.9860 -0.1488
vn 0.0789 -0.9912 -0.1064
vn 0.0811 -0.9933 -0.0818
vn 0.0826 -0.9946 -0.0633
vn 0.0876 -0.9962 -0.0019
vn 0.0785 -0.9907 -0.1115
vn 0.0793 -0.9916 -0.1027
vn 0.0824 -0.9944 -0.0657
vn 0.0828 -0.9947 -0.0610
vn 0.0948 -0.9908 0.0961
vn 0.0899 -0.9956 0.0279
vn 0.0831 -0.9949 -0.0579
vn 0.0892 -0.9958 0.0189
vn 0.0802 -0.9925 -0.0923
vn -0.2942 -0.9522 0.0827
vn 0.9959 0.0845 -0.0309
vn 0.9966 0.0816 0.0119
vn 0.9966 0.0816 0.0118
vn 0.9903 0.0739 0.1173
vn 0.9947 0.0861 -0.0556
vn 0.9934 0.0872 -0.0742
vn 0.9965 0.0812 0.0176
vn 0.9937 0.0870 -0.0704
vn 0.9932 0.0874 -0.0765
vn 0.9642 0.0966 -0.2468
vn 0.9966 0.0819 0.0088
vn 0.9776 0.0937 -0.1884
vn 0.9661 0.0963 -0.2395
vn 0.9873 0.0906 -0.1302
vn 0.9965 0.0811 0.0203
vn 0.9930 0.0876 -0.0795
vn 0.9963 0.0805 0.0287
vn 0.9794 0.0933 -0.1791
vn 0.7310 -0.6194 -0.2864
vn 0.7508 -0.6345 -0.1835
vn 0.7509 -0.6345 -0.1835
vn 0.7565 -0.6386 -0.1413
vn 0.7591 -0.6404 -0.1167
vn 0.7608 -0.6415 -0.0981
vn 0.7652 -0.6435 0.0189
vn 0.7652 -0.6433 0.0250
vn 0.7437 -0.6291 -0.2263
vn 0.7519 -0.6352 -0.1767
vn 0.7592 -0.6404 -0.1162
vn 0.7594 -0.6405 -0.1144
vn 0.7566 -0.6340 0.1602
vn 0.7648 -0.6428 0.0431
vn 0.7612 -0.6419 -0.0928
vn 0.7649 -0.6429 0.0400
vn 0.7524 -0.6356 -0.1729
vn 0.6470 0.7617 0.0355
vn 0.6487 0.7570 0.0780
vn 0.6479 0.7395 0.1825
vn 0.6454 0.7637 0.0108
vn 0.6440 0.7650 -0.0077
vn 0.4328 0.8997 0.0571
vn 0.6454 0.7638 0.0101
vn 0.6395 0.7669 -0.0537
vn 0.6364 0.7673 -0.0797
vn 0.6460 0.7631 0.0185
vn 0.6412 0.7664 -0.0380
vn 0.6414 0.7663 -0.0360
vn 0.6449 0.7642 0.0037
vn 0.6436 0.7653 -0.0131
vn 0.6451 0.7641 0.0062
vn 0.6460 0.7631 0.0191
vn 0.6399 0.7668 -0.0501
g Light1_BezierCurve.004_None
usemtl None
s 1
f 18/1/1 7/2/2 20/3/3
f 46/4/4 47/5/5 35/6/6
f 68/7/7 67/8/8 55/9/9
f 90/10/10 92/11/11 79/12/12
f 1/13/13 2/14/14 14/15/14
f 2/14/14 3/16/15 14/15/14
f 3/16/15 4/17/16 16/18/16
f 4/17/16 5/19/17 17/20/17
f 5/19/17 6/21/18 18/1/1
f 6/21/18 7/2/2 18/1/1
f 7/2/2 8/22/19 20/3/3
f 8/22/19 9/23/20 20/3/3
f 9/23/20 10/24/21 22/25/22
f 10/24/21 11/26/23 22/25/22
f 12/27/24 13/28/25 24/29/26
f 11/26/23 12/27/24 23/30/23
f 22/25/22 11/26/23 23/30/23
f 4/17/16 17/20/17 16/18/16
f 12/27/24 24/29/26 23/30/23
f 22/25/22 21/31/27 9/23/20
f 21/31/27 20/3/3 9/23/20
f 5/19/17 18/1/1 17/20/17
f 16/18/16 15/32/15 3/16/15
f 15/32/15 14/15/14 3/16/15
f 20/3/3 19/33/28 18/1/1
f 27/34/29 26/35/30 38/36/31
f 26/35/30 25/37/32 38/36/31
f 38/36/31 39/38/29 27/34/29
f 39/38/29 40/39/33 28/40/33
f 40/39/33 41/41/34 29/42/34
f 42/43/35 43/44/36 31/45/37
f 43/44/36 44/46/38 31/45/37
f 40/39/33 29/42/34 28/40/33
f 41/41/34 42/43/35 29/42/34
f 28/40/33 27/34/29 39/38/29
f 31/45/37 30/47/39 42/43/35
f 30/47/39 29/42/34 42/43/35
f 33/48/40 32/49/41 44/46/38
f 32/49/41 31/45/37 44/46/38
f 35/6/6 34/50/42 46/4/4
f 34/50/42 33/48/40 46/4/4
f 48/51/43 37/52/44 36/53/45
f 36/53/45 35/6/6 47/5/5
f 44/46/38 45/54/46 33/48/40
f 45/54/46 46/4/4 33/48/40
f 47/5/5 48/51/43 36/53/45
f 49/55/47 50/56/48 62/57/49
f 50/56/48 51/58/50 62/57/49
f 51/58/50 52/59/51 64/60/51
f 52/59/51 53/61/52 65/62/52
f 53/61/52 54/63/53 66/64/54
f 54/63/53 55/9/9 66/64/54
f 55/9/9 56/65/55 68/7/7
f 56/65/55 57/66/56 68/7/7
f 57/66/56 58/67/57 70/68/58
f 58/67/57 59/69/59 70/68/58
f 70/68/58 59/69/59 71/70/59
f 60/71/60 61/72/61 72/73/62
f 59/69/59 60/71/60 71/70/59
f 60/71/60 72/73/62 71/70/59
f 66/64/54 55/9/9 67/8/8
f 70/68/58 69/74/63 57/66/56
f 69/74/63 68/7/7 57/66/56
f 52/59/51 65/62/52 64/60/51
f 64/60/51 63/75/50 51/58/50
f 63/75/50 62/57/49 51/58/50
f 66/64/54 65/62/52 53/61/52
f 75/76/64 74/77/65 87/78/64
f 74/77/65 73/79/66 86/80/65
f 87/78/64 74/77/65 86/80/65
f 87/78/64 88/81/67 75/76/64
f 88/81/67 89/82/68 76/83/67
f 75/76/64 88/81/67 76/83/67
f 90/10/10 91/84/69 92/11/11
f 89/82/68 90/10/10 77/85/68
f 77/85/68 76/83/67 89/82/68
f 79/12/12 78/86/70 90/10/10
f 78/86/70 77/85/68 90/10/10
f 81/87/71 80/88/72 92/11/11
f 80/88/72 79/12/12 92/11/11
f 83/89/73 82/90/74 94/91/75
f 82/90/74 81/87/71 94/91/75
f 96/92/76 85/93/77 84/94/78
f 84/94/78 83/89/73 95/95/79
f 83/89/73 94/91/75 95/95/79
f 94/91/75 81/87/71 93/96/80
f 95/95/79 96/92/76 84/94/78
f 92/11/11 93/96/80 81/87/71
