# Blender v3.6.19 OBJ File: 'Candles_v2.blend'
# www.blender.org
mtllib Light2.mtl
o Light2_BezierCurve.006
v 1.154620 -0.673918 2.351483
v 1.165786 -0.672532 2.355455
v 1.173632 -0.671890 2.364178
v 1.178352 -0.671754 2.373893
v 1.180484 -0.672047 2.384622
v 1.180567 -0.672693 2.396386
v 1.175869 -0.672776 2.410902
v 1.176736 -0.674739 2.423111
v 1.173897 -0.675986 2.438115
v 1.175020 -0.678779 2.454244
v 1.169063 -0.678550 2.471519
v 1.163916 -0.678006 2.489963
v 1.164712 -0.678990 2.509597
v 1.144772 -0.677574 2.357141
v 1.138898 -0.680225 2.366966
v 1.136150 -0.681880 2.377280
v 1.136025 -0.682715 2.388190
v 1.138018 -0.682902 2.399801
v 1.138357 -0.681778 2.413913
v 1.146344 -0.682031 2.425550
v 1.151667 -0.681320 2.439899
v 1.160953 -0.682155 2.455373
v 1.162116 -0.680217 2.472077
v 1.162006 -0.678465 2.490116
v 1.154769 -0.673639 2.351482
v 1.156743 -0.684614 2.355691
v 1.158575 -0.692065 2.364568
v 1.160013 -0.696351 2.374367
v 1.161138 -0.698010 2.385121
v 1.162033 -0.697575 2.396864
v 1.159512 -0.694746 2.411323
v 1.163463 -0.692575 2.423453
v 1.164163 -0.689081 2.438365
v 1.168823 -0.687136 2.454402
v 1.165944 -0.682786 2.471598
v 1.162963 -0.679350 2.489985
v 1.164556 -0.679282 2.509598
v 1.151809 -0.663560 2.357163
v 1.150419 -0.657265 2.367002
v 1.150104 -0.654069 2.377324
v 1.150699 -0.653465 2.388236
v 1.152042 -0.654945 2.399845
v 1.150703 -0.657162 2.413951
v 1.156327 -0.662125 2.425581
v 1.158944 -0.666809 2.439923
v 1.165520 -0.673042 2.455388
v 1.164313 -0.675826 2.472084
v 1.162514 -0.677436 2.490119
v 1.154728 -0.674023 2.351469
v 1.161651 -0.665495 2.356126
v 1.166718 -0.660182 2.365298
v 1.169918 -0.657496 2.375258
v 1.171580 -0.657007 2.386062
v 1.172032 -0.658286 2.397766
v 1.168332 -0.660062 2.412120
v 1.170615 -0.664424 2.424100
v 1.169401 -0.668423 2.438841
v 1.172148 -0.673966 2.454707
v 1.167602 -0.676132 2.471753
v 1.163445 -0.677274 2.490036
v 1.164599 -0.678879 2.509612
v 1.150290 -0.683953 2.356381
v 1.147939 -0.690690 2.365719
v 1.147102 -0.694563 2.375769
v 1.147544 -0.696058 2.386600
v 1.149029 -0.695659 2.398282
v 1.148051 -0.693012 2.412575
v 1.154184 -0.691119 2.424468
v 1.157383 -0.687949 2.439111
v 1.164543 -0.686322 2.454877
v 1.163847 -0.682234 2.471838
v 1.162412 -0.678952 2.490060
v 1.154637 -0.673722 2.351490
v 1.163753 -0.680417 2.355275
v 1.170258 -0.685066 2.363875
v 1.174248 -0.687823 2.373522
v 1.176158 -0.689010 2.384229
v 1.176425 -0.688952 2.396010
v 1.172215 -0.687134 2.410569
v 1.173773 -0.686397 2.422840
v 1.171727 -0.684548 2.437916
v 1.173643 -0.684247 2.454116
v 1.168376 -0.681327 2.471453
v 1.163716 -0.678896 2.489940
v 1.164694 -0.679195 2.509590
v 1.145401 -0.669093 2.357468
v 1.139925 -0.666349 2.367500
v 1.137393 -0.665082 2.377927
v 1.137332 -0.665052 2.388870
v 1.139267 -0.666024 2.400451
v 1.139455 -0.666920 2.414485
v 1.147232 -0.670019 2.426013
v 1.152314 -0.672569 2.440237
v 1.161358 -0.676666 2.455585
v 1.162310 -0.677583 2.472178
v 1.162048 -0.677866 2.490140
vt 0.000000 0.000000
vt 0.000000 0.000000
vt 0.000000 0.000000
vt 0.000000 0.000000
vt 0.000000 0.000000
vt 0.000000 0.000000
vt 0.000000 0.000000
vt 0.000000 0.000000
vt 0.000000 0.000000
vt 0.000000 0.000000
vt 0.000000 0.000000
vt 0.000000 0.000000
vt 0.000000 0.000000
vt 0.000000 0.000000
vt 0.000000 0.000000
vt 0.000000 0.000000
vt 0.000000 0.000000
vt 0.000000 0.000000
vt 0.000000 0.000000
vt 0.000000 0.000000
vt 0.000000 0.000000
vt 0.000000 0.000000
vt 0.000000 0.000000
vt 0.000000 0.000000
vt 0.000000 0.000000
vt 0.000000 0.000000
vt 0.000000 0.000000
vt 0.000000 0.000000
vt 0.000000 0.000000
vt 0.000000 0.000000
vt 0.000000 0.000000
vt 0.000000 0.000000
vt 0.000000 0.000000
vt 0.000000 0.000000
vt 0.000000 0.000000
vt 0.000000 0.000000
vt 0.000000 0.000000
vt 0.000000 0.000000
vt 0.000000 0.000000
vt 0.000000 0.000000
vt 0.000000 0.000000
vt 0.000000 0.000000
vt 0.000000 0.000000
vt 0.000000 0.000000
vt 0.000000 0.000000
vt 0.000000 0.000000
vt 0.000000 0.000000
vt 0.000000 0.000000
vt 0.000000 0.000000
vt 0.000000 0.000000
vt 0.000000 0.000000
vt 0.000000 0.000000
vt 0.000000 0.000000
vt 0.000000 0.000000
vt 0.000000 0.000000
vt 0.000000 0.000000
vt 0.000000 0.000000
vt 0.000000 0.000000
vt 0.000000 0.000000
vt 0.000000 0.000000
vt 0.000000 0.000000
vt 0.000000 0.000000
vt 0.000000 0.000000
vt 0.000000 0.000000
vt 0.000000 0.000000
vt 0.000000 0.000000
vt 0.000000 0.000000
vt 0.000000 0.000000
vt 0.000000 0.000000
vt 0.000000 0.000000
vt 0.000000 0.000000
vt 0.000000 0.000000
vt 0.000000 0.000000
vt 0.000000 0.000000
vt 0.000000 0.000000
vt 0.000000 0.000000
vt 0.000000 0.000000
vt 0.000000 0.000000
vt 0.000000 0.000000
vt 0.000000 0.000000
vt 0.000000 0.000000
vt 0.000000 0.000000
vt 0.000000 0.000000
vt 0.000000 0.000000
vt 0.000000 0.000000
vt 0.000000 0.000000
vt 0.000000 0.000000
vt 0.000000 0.000000
vt 0.000000 0.000000
vt 0.000000 0.000000
vt 0.000000 0.000000
vt 0.000000 0.000000
vt 0.000000 0.000000
vt 0.000000 0.000000
vt 0.000000 0.000000
vt 0.000000 0.000000
vn 0.2111 -0.9770 -0.0296
vn 0.2398 -0.9702 -0.0354
vn 0.2159 -0.9751 -0.0497
vn -0.9551 -0.2363 0.1787
vn -0.9398 -0.2374 0.2459
vn -0.9533 -0.2365 0.1880
vn 0.8272 -0.5124 -0.2306
vn 0.8501 -0.5240 -0.0529
vn 0.8499 -0.5239 -0.0573
vn 0.5124 0.8587 -0.0098
vn 0.5138 0.8571 -0.0377
vn 0.5283 0.8487 -0.0254
vn 0.2067 -0.9456 -0.2513
vn 0.2195 -0.9643 -0.1484
vn 0.2239 -0.9688 -0.1062
vn 0.2263 -0.9706 -0.0817
vn 0.2281 -0.9716 -0.0633
vn 0.2332 -0.9724 -0.0021
vn 0.2234 -0.9684 -0.1112
vn 0.2243 -0.9691 -0.1025
vn 0.2279 -0.9715 -0.0656
vn 0.2283 -0.9717 -0.0610
vn 0.2395 -0.9662 0.0954
vn 0.2353 -0.9715 0.0274
vn 0.2285 -0.9718 -0.0579
vn 0.2347 -0.9719 0.0185
vn 0.2253 -0.9699 -0.0923
vn -0.1510 -0.9851 0.0821
vn -0.9688 -0.2189 -0.1164
vn -0.9737 -0.2274 -0.0115
vn -0.9727 -0.2301 0.0311
vn -0.9712 -0.2315 0.0557
vn -0.9698 -0.2325 0.0742
vn -0.9737 -0.2276 -0.0084
vn -0.9737 -0.2270 -0.0172
vn -0.9696 -0.2326 0.0766
vn -0.9416 -0.2374 0.2387
vn -0.9633 -0.2348 0.1298
vn -0.9641 -0.2346 0.1243
vn -0.9693 -0.2194 -0.1105
vn -0.9737 -0.2263 -0.0282
vn -0.9693 -0.2327 0.0795
vn -0.9737 -0.2269 -0.0198
vn -0.9693 -0.2194 -0.1113
vn -0.9701 -0.2323 0.0706
vn 0.8144 -0.5052 -0.2855
vn 0.8361 -0.5172 -0.1832
vn 0.8361 -0.5171 -0.1832
vn 0.8422 -0.5203 -0.1411
vn 0.8451 -0.5218 -0.1166
vn 0.8469 -0.5226 -0.0981
vn 0.8516 -0.5239 0.0184
vn 0.8515 -0.5238 0.0244
vn 0.8283 -0.5129 -0.2256
vn 0.8372 -0.5177 -0.1764
vn 0.8451 -0.5218 -0.1160
vn 0.8453 -0.5219 -0.1142
vn 0.8418 -0.5159 0.1590
vn 0.8417 -0.5159 0.1590
vn 0.8511 -0.5233 0.0424
vn 0.8474 -0.5228 -0.0928
vn 0.8512 -0.5234 0.0394
vn 0.8378 -0.5180 -0.1727
vn 0.8422 -0.5204 -0.1411
vn 0.5278 0.8486 0.0353
vn 0.5302 0.8443 0.0777
vn 0.5279 0.8486 0.0353
vn 0.5320 0.8270 0.1816
vn 0.5260 0.8504 0.0107
vn 0.5245 0.8514 -0.0078
vn 0.2957 0.9536 0.0569
vn 0.5244 0.8514 -0.0078
vn 0.5260 0.8504 0.0100
vn 0.5197 0.8527 -0.0535
vn 0.5166 0.8526 -0.0793
vn 0.5266 0.8499 0.0184
vn 0.5215 0.8524 -0.0378
vn 0.5217 0.8524 -0.0359
vn 0.5254 0.8508 0.0037
vn 0.5240 0.8516 -0.0131
vn 0.5256 0.8507 0.0061
vn 0.5267 0.8499 0.0190
vn 0.5201 0.8526 -0.0499
g Light2_BezierCurve.006_None
usemtl None
s 1
f 18/1/1 7/2/2 20/3/3
f 45/4/4 44/5/5 33/6/6
f 68/7/7 67/8/8 55/9/9
f 90/10/10 92/11/11 79/12/12
f 1/13/13 2/14/14 14/15/14
f 2/14/14 3/16/15 14/15/14
f 3/16/15 4/17/16 16/18/16
f 4/17/16 5/19/17 17/20/17
f 5/19/17 6/21/18 18/1/1
f 6/21/18 7/2/2 18/1/1
f 7/2/2 8/22/19 20/3/3
f 8/22/19 9/23/20 20/3/3
f 9/23/20 10/24/21 22/25/22
f 10/24/21 11/26/23 22/25/22
f 12/27/24 13/28/25 24/29/26
f 11/26/23 12/27/24 23/30/23
f 22/25/22 11/26/23 23/30/23
f 4/17/16 17/20/17 16/18/16
f 12/27/24 24/29/26 23/30/23
f 22/25/22 21/31/27 9/23/20
f 21/31/27 20/3/3 9/23/20
f 5/19/17 18/1/1 17/20/17
f 16/18/16 15/32/15 3/16/15
f 15/32/15 14/15/14 3/16/15
f 20/3/3 19/33/28 18/1/1
f 25/34/29 26/35/30 38/36/30
f 26/35/30 27/37/31 38/36/30
f 27/37/31 28/38/32 39/39/31
f 28/38/32 29/40/33 40/41/32
f 39/39/31 28/38/32 40/41/32
f 29/40/33 30/42/34 42/43/35
f 30/42/34 31/44/36 42/43/35
f 31/44/36 32/45/37 44/5/5
f 32/45/37 33/6/6 44/5/5
f 33/6/6 34/46/38 46/47/39
f 34/46/38 35/48/40 46/47/39
f 36/49/41 37/50/42 48/51/43
f 35/48/40 36/49/41 47/52/44
f 46/47/39 35/48/40 47/52/44
f 39/39/31 38/36/30 27/37/31
f 41/53/33 40/41/32 29/40/33
f 44/5/5 43/54/45 31/44/36
f 43/54/45 42/43/35 31/44/36
f 42/43/35 41/53/33 29/40/33
f 36/49/41 48/51/43 47/52/44
f 46/47/39 45/4/4 33/6/6
f 49/55/46 50/56/47 62/57/48
f 50/56/47 51/58/49 62/57/48
f 51/58/49 52/59/50 64/60/50
f 52/59/50 53/61/51 65/62/51
f 53/61/51 54/63/52 66/64/53
f 54/63/52 55/9/9 66/64/53
f 55/9/9 56/65/54 68/7/7
f 56/65/54 57/66/55 68/7/7
f 57/66/55 58/67/56 70/68/57
f 58/67/56 59/69/58 70/68/57
f 70/68/57 59/69/58 71/70/59
f 60/71/60 61/72/61 72/73/62
f 59/69/58 60/71/60 71/70/59
f 60/71/60 72/73/62 71/70/59
f 66/64/53 55/9/9 67/8/8
f 70/68/57 69/74/63 57/66/55
f 69/74/63 68/7/7 57/66/55
f 52/59/50 65/62/51 64/60/50
f 64/60/50 63/75/64 51/58/49
f 63/75/64 62/57/48 51/58/49
f 66/64/53 65/62/51 53/61/51
f 75/76/65 74/77/66 87/78/67
f 74/77/66 73/79/68 86/80/66
f 87/78/67 74/77/66 86/80/66
f 87/78/67 88/81/69 75/76/65
f 88/81/69 89/82/70 76/83/69
f 75/76/65 88/81/69 76/83/69
f 90/10/10 91/84/71 92/11/11
f 89/82/70 90/10/10 77/85/72
f 77/85/72 76/83/69 89/82/70
f 79/12/12 78/86/73 90/10/10
f 78/86/73 77/85/72 90/10/10
f 81/87/74 80/88/75 92/11/11
f 80/88/75 79/12/12 92/11/11
f 83/89/76 82/90/77 94/91/78
f 82/90/77 81/87/74 94/91/78
f 96/92/79 85/93/80 84/94/81
f 84/94/81 83/89/76 95/95/82
f 83/89/76 94/91/78 95/95/82
f 94/91/78 81/87/74 93/96/83
f 95/95/82 96/92/79 84/94/81
f 92/11/11 93/96/83 81/87/74
