# Blender v3.6.19 OBJ File: 'Candles1.blend'
# www.blender.org
mtllib Flame5t.mtl
o Flame5t_BezierCurve.011
v -1.987975 4.656584 3.348666
v -1.980589 4.658463 3.352164
v -1.975274 4.659532 3.359609
v -1.971983 4.659985 3.367842
v -1.970362 4.659921 3.376891
v -1.970059 4.659438 3.386781
v -1.972950 4.658895 3.398905
v -1.972002 4.657602 3.409190
v -1.973542 4.656446 3.421762
v -1.972285 4.654603 3.435350
v -1.975999 4.654143 3.449771
v -1.979181 4.653957 3.465184
v -1.978246 4.653271 3.481699
v -1.994126 4.653260 3.353296
v -1.997650 4.650931 3.361480
v -1.999169 4.649536 3.370115
v -1.999002 4.648913 3.379286
v -1.997469 4.648903 3.389073
v -1.997115 4.649607 3.400925
v -1.991580 4.650077 3.410827
v -1.987862 4.650941 3.422959
v -1.981347 4.651119 3.436108
v -1.980474 4.652423 3.450145
v -1.980411 4.653484 3.465287
v -1.987901 4.656782 3.348666
v -1.985546 4.649634 3.352312
v -1.983522 4.644794 3.359853
v -1.982026 4.642018 3.368139
v -1.980956 4.640958 3.377203
v -1.980208 4.641264 3.387080
v -1.981906 4.642849 3.399168
v -1.979267 4.644576 3.409404
v -1.978869 4.646883 3.421918
v -1.975675 4.648501 3.435449
v -1.977702 4.651052 3.449820
v -1.979697 4.652980 3.465198
v -1.978324 4.653063 3.481700
v -1.990674 4.663196 3.353320
v -1.991998 4.667209 3.361519
v -1.992325 4.669253 3.370163
v -1.991805 4.669650 3.379336
v -1.990591 4.668723 3.389121
v -1.991060 4.667058 3.400968
v -1.986684 4.664189 3.410861
v -1.984294 4.661229 3.422984
v -1.979108 4.657579 3.436124
v -1.979397 4.655535 3.450153
v -1.980163 4.654213 3.465289
v -1.987894 4.656523 3.348657
v -1.983958 4.662776 3.352614
v -1.980901 4.666706 3.360358
v -1.978844 4.668721 3.368756
v -1.977605 4.669135 3.377855
v -1.977002 4.668263 3.387705
v -1.979080 4.666683 3.399720
v -1.976979 4.663920 3.409852
v -1.977196 4.661077 3.422248
v -1.974619 4.657549 3.435660
v -1.977183 4.655622 3.449928
v -1.979558 4.654403 3.465233
v -1.978331 4.653334 3.481709
v -1.989896 4.649506 3.352788
v -1.990716 4.644771 3.360646
v -1.990769 4.642069 3.369106
v -1.990168 4.641057 3.378224
v -1.989025 4.641392 3.388057
v -1.989680 4.642992 3.400032
v -1.985567 4.644726 3.410104
v -1.983478 4.647038 3.422432
v -1.978593 4.648665 3.435777
v -1.979145 4.651234 3.449986
v -1.980098 4.653196 3.465249
v -1.987981 4.656716 3.348671
v -1.981250 4.653042 3.352039
v -1.976363 4.650476 3.359398
v -1.973303 4.648942 3.367584
v -1.971752 4.648263 3.376618
v -1.971389 4.648264 3.386519
v -1.974122 4.649028 3.398674
v -1.972950 4.649591 3.409002
v -1.974234 4.650563 3.421624
v -1.972722 4.650846 3.435261
v -1.976212 4.652236 3.449726
v -1.979235 4.653348 3.465169
v -1.978240 4.653132 3.481695
v -1.994452 4.658953 3.353518
v -1.998183 4.660246 3.361843
v -1.999815 4.660813 3.370555
v -1.999682 4.660770 3.379748
v -1.998119 4.660233 3.389515
v -1.997688 4.659580 3.401314
v -1.992043 4.658140 3.411142
v -1.988199 4.656816 3.423188
v -1.981559 4.654803 3.436252
v -1.980576 4.654191 3.450215
v -1.980435 4.653886 3.465303
vt 0.000000 0.000000
vt 0.000000 0.000000
vt 0.000000 0.000000
vt 0.000000 0.000000
vt 0.000000 0.000000
vt 0.000000 0.000000
vt 0.000000 0.000000
vt 0.000000 0.000000
vt 0.000000 0.000000
vt 0.000000 0.000000
vt 0.000000 0.000000
vt 0.000000 0.000000
vt 0.000000 0.000000
vt 0.000000 0.000000
vt 0.000000 0.000000
vt 0.000000 0.000000
vt 0.000000 0.000000
vt 0.000000 0.000000
vt 0.000000 0.000000
vt 0.000000 0.000000
vt 0.000000 0.000000
vt 0.000000 0.000000
vt 0.000000 0.000000
vt 0.000000 0.000000
vt 0.000000 0.000000
vt 0.000000 0.000000
vt 0.000000 0.000000
vt 0.000000 0.000000
vt 0.000000 0.000000
vt 0.000000 0.000000
vt 0.000000 0.000000
vt 0.000000 0.000000
vt 0.000000 0.000000
vt 0.000000 0.000000
vt 0.000000 0.000000
vt 0.000000 0.000000
vt 0.000000 0.000000
vt 0.000000 0.000000
vt 0.000000 0.000000
vt 0.000000 0.000000
vt 0.000000 0.000000
vt 0.000000 0.000000
vt 0.000000 0.000000
vt 0.000000 0.000000
vt 0.000000 0.000000
vt 0.000000 0.000000
vt 0.000000 0.000000
vt 0.000000 0.000000
vt 0.000000 0.000000
vt 0.000000 0.000000
vt 0.000000 0.000000
vt 0.000000 0.000000
vt 0.000000 0.000000
vt 0.000000 0.000000
vt 0.000000 0.000000
vt 0.000000 0.000000
vt 0.000000 0.000000
vt 0.000000 0.000000
vt 0.000000 0.000000
vt 0.000000 0.000000
vt 0.000000 0.000000
vt 0.000000 0.000000
vt 0.000000 0.000000
vt 0.000000 0.000000
vt 0.000000 0.000000
vt 0.000000 0.000000
vt 0.000000 0.000000
vt 0.000000 0.000000
vt 0.000000 0.000000
vt 0.000000 0.000000
vt 0.000000 0.000000
vt 0.000000 0.000000
vt 0.000000 0.000000
vt 0.000000 0.000000
vt 0.000000 0.000000
vt 0.000000 0.000000
vt 0.000000 0.000000
vt 0.000000 0.000000
vt 0.000000 0.000000
vt 0.000000 0.000000
vt 0.000000 0.000000
vt 0.000000 0.000000
vt 0.000000 0.000000
vt 0.000000 0.000000
vt 0.000000 0.000000
vt 0.000000 0.000000
vt 0.000000 0.000000
vt 0.000000 0.000000
vt 0.000000 0.000000
vt 0.000000 0.000000
vt 0.000000 0.000000
vt 0.000000 0.000000
vt 0.000000 0.000000
vt 0.000000 0.000000
vt 0.000000 0.000000
vt 0.000000 0.000000
vn 0.3426 -0.9388 -0.0353
vn 0.3664 -0.9295 -0.0432
vn 0.3446 -0.9371 -0.0556
vn -0.9189 -0.3595 0.1622
vn -0.9093 -0.3594 0.2096
vn -0.9179 -0.3596 0.1679
vn -0.9072 0.4073 0.1057
vn -0.9079 0.4048 -0.1086
vn -0.3990 -0.9169 0.0094
vn -0.4137 -0.9101 0.0241
vn -0.3991 -0.9163 0.0345
vn 0.3348 -0.9177 -0.2138
vn 0.3457 -0.9287 -0.1346
vn 0.3499 -0.9316 -0.0982
vn 0.3520 -0.9327 -0.0782
vn 0.3520 -0.9328 -0.0781
vn 0.3534 -0.9333 -0.0631
vn 0.3535 -0.9333 -0.0630
vn 0.3578 -0.9337 -0.0126
vn 0.3497 -0.9315 -0.1001
vn 0.3502 -0.9318 -0.0954
vn 0.3537 -0.9334 -0.0612
vn 0.3539 -0.9334 -0.0588
vn 0.3627 -0.9297 0.0637
vn 0.3594 -0.9332 0.0081
vn 0.3540 -0.9334 -0.0588
vn 0.3590 -0.9333 0.0022
vn 0.3509 -0.9322 -0.0889
vn 0.3499 -0.9316 -0.0981
vn -0.0224 -0.9980 0.0599
vn -0.9344 -0.3476 -0.0778
vn -0.9353 -0.3539 0.0029
vn -0.9353 -0.3539 0.0030
vn -0.9336 -0.3560 0.0397
vn -0.9322 -0.3569 0.0598
vn -0.9336 -0.3560 0.0398
vn -0.9309 -0.3576 0.0749
vn -0.9322 -0.3570 0.0599
vn -0.9352 -0.3541 0.0067
vn -0.9353 -0.3538 0.0008
vn -0.9302 -0.3578 0.0819
vn -0.9104 -0.3595 0.2048
vn -0.9264 -0.3588 0.1146
vn -0.9268 -0.3587 0.1112
vn -0.9346 -0.3480 -0.0732
vn -0.9355 -0.3531 -0.0057
vn -0.9305 -0.3577 0.0791
vn -0.9354 -0.3535 0.0000
vn -0.9346 -0.3480 -0.0737
vn -0.9040 0.4062 0.1334
vn -0.8987 0.4044 0.1698
vn -0.8987 0.4043 0.1698
vn -0.8829 0.3983 0.2488
vn -0.9063 0.4070 0.1134
vn -0.9064 0.4070 0.1134
vn -0.9079 0.4075 0.0983
vn -0.9128 0.4084 -0.0013
vn -0.9128 0.4085 0.0026
vn -0.9103 0.4082 0.0686
vn -0.9101 0.4082 0.0710
vn -0.8932 0.4023 0.2010
vn -0.9000 0.4048 0.1617
vn -0.8996 0.4047 0.1640
vn -0.8938 0.4025 0.1976
vn -0.9071 0.4072 0.1068
vn -0.9127 0.4084 -0.0111
vn -0.9082 0.4078 0.0942
vn -0.9127 0.4084 -0.0132
vn -0.4178 -0.8971 -0.1436
vn -0.4137 -0.9082 -0.0634
vn -0.4110 -0.9112 -0.0268
vn -0.4093 -0.9124 -0.0068
vn -0.4093 -0.9124 -0.0066
vn -0.4079 -0.9130 0.0083
vn -0.4079 -0.9130 0.0084
vn -0.4093 -0.9124 -0.0067
vn -0.4018 -0.9135 0.0647
vn -0.4040 -0.9136 0.0451
vn -0.4055 -0.9135 0.0311
vn -0.4057 -0.9135 0.0300
vn -0.4098 -0.9121 -0.0125
vn -0.4089 -0.9126 -0.0024
vn -0.4075 -0.9131 0.0127
vn -0.4087 -0.9126 -0.0008
vn -0.4098 -0.9121 -0.0129
vn -0.4043 -0.9136 0.0428
vn -0.4110 -0.9113 -0.0267
vn -0.1670 -0.9848 -0.0483
g Flame5t_BezierCurve.011_None
usemtl None
s 1
f 18/1/1 7/2/2 20/3/3
f 45/4/4 44/5/5 33/6/6
f 70/7/7 71/8/8 59/9/8
f 90/10/9 79/11/10 92/12/11
f 1/13/12 2/14/13 14/15/13
f 2/14/13 3/16/14 14/15/13
f 3/16/14 4/17/15 16/18/16
f 4/17/15 5/19/17 17/20/18
f 5/19/17 6/21/19 18/1/1
f 6/21/19 7/2/2 18/1/1
f 7/2/2 8/22/20 20/3/3
f 8/22/20 9/23/21 20/3/3
f 9/23/21 10/24/22 22/25/23
f 10/24/22 11/26/24 22/25/23
f 12/27/25 13/28/26 24/29/27
f 11/26/24 12/27/25 23/30/24
f 22/25/23 11/26/24 23/30/24
f 4/17/15 17/20/18 16/18/16
f 12/27/25 24/29/27 23/30/24
f 22/25/23 21/31/28 9/23/21
f 21/31/28 20/3/3 9/23/21
f 5/19/17 18/1/1 17/20/18
f 16/18/16 15/32/29 3/16/14
f 15/32/29 14/15/13 3/16/14
f 20/3/3 19/33/30 18/1/1
f 25/34/31 26/35/32 38/36/33
f 26/35/32 27/37/34 38/36/33
f 27/37/34 28/38/35 39/39/36
f 28/38/35 29/40/37 40/41/38
f 39/39/36 28/38/35 40/41/38
f 29/40/37 30/42/39 42/43/40
f 30/42/39 31/44/41 42/43/40
f 31/44/41 32/45/42 44/5/5
f 32/45/42 33/6/6 44/5/5
f 33/6/6 34/46/43 46/47/44
f 34/46/43 35/48/45 46/47/44
f 36/49/46 37/50/47 48/51/48
f 35/48/45 36/49/46 47/52/49
f 46/47/44 35/48/45 47/52/49
f 39/39/36 38/36/33 27/37/34
f 41/53/37 40/41/38 29/40/37
f 44/5/5 43/54/47 31/44/41
f 43/54/47 42/43/40 31/44/41
f 42/43/40 41/53/37 29/40/37
f 36/49/46 48/51/48 47/52/49
f 46/47/44 45/4/4 33/6/6
f 51/55/50 50/56/51 62/57/52
f 50/56/51 49/58/53 62/57/52
f 62/57/52 63/59/50 51/55/50
f 63/59/50 64/60/54 52/61/55
f 64/60/54 65/62/56 52/61/55
f 65/62/56 66/63/57 54/64/58
f 66/63/57 67/65/59 55/66/60
f 68/67/61 69/68/62 57/69/63
f 69/68/62 70/7/7 57/69/63
f 66/63/57 55/66/60 54/64/58
f 67/65/59 68/67/61 55/66/60
f 52/61/55 51/55/50 63/59/50
f 54/64/58 53/70/56 65/62/56
f 53/70/56 52/61/55 65/62/56
f 57/69/63 56/71/64 68/67/61
f 56/71/64 55/66/60 68/67/61
f 59/9/8 58/72/65 70/7/7
f 58/72/65 57/69/63 70/7/7
f 72/73/66 61/74/67 60/75/68
f 72/73/66 60/75/68 71/8/8
f 60/75/68 59/9/8 71/8/8
f 73/76/69 74/77/70 86/78/70
f 74/77/70 75/79/71 86/78/70
f 75/79/71 76/80/72 88/81/73
f 76/80/72 77/82/74 89/83/75
f 77/82/74 78/84/76 90/10/9
f 78/84/76 79/11/10 90/10/9
f 79/11/10 80/85/77 92/12/11
f 80/85/77 81/86/78 92/12/11
f 81/86/78 82/87/79 94/88/80
f 82/87/79 83/89/81 94/88/80
f 84/90/82 85/91/83 96/92/84
f 83/89/81 84/90/82 95/93/85
f 94/88/80 83/89/81 95/93/85
f 76/80/72 89/83/75 88/81/73
f 84/90/82 96/92/84 95/93/85
f 94/88/80 93/94/86 81/86/78
f 93/94/86 92/12/11 81/86/78
f 77/82/74 90/10/9 89/83/75
f 88/81/73 87/95/87 75/79/71
f 87/95/87 86/78/70 75/79/71
f 92/12/11 91/96/88 90/10/9
