# Blender v3.6.19 OBJ File: 'Candles1.blend'
# www.blender.org
mtllib Flame4b.mtl
o Flame4b_BezierCurve.013
v 0.568579 5.591729 2.458540
v 0.565426 5.585843 2.461013
v 0.563040 5.581815 2.466406
v 0.561475 5.579472 2.472404
v 0.560585 5.578528 2.479020
v 0.560223 5.578697 2.486270
v 0.561761 5.580986 2.495203
v 0.560493 5.581224 2.502731
v 0.560832 5.583011 2.511972
v 0.559067 5.583404 2.521916
v 0.561183 5.586194 2.532547
v 0.563172 5.588483 2.543899
v 0.562388 5.588414 2.556001
v 0.570164 5.597742 2.462008
v 0.570871 5.601483 2.468050
v 0.570990 5.603369 2.474401
v 0.570609 5.603703 2.481125
v 0.569816 5.602790 2.488284
v 0.570220 5.602228 2.496979
v 0.567346 5.598434 2.504170
v 0.565845 5.595598 2.513024
v 0.562239 5.591369 2.522582
v 0.562749 5.590127 2.532876
v 0.563602 5.589565 2.543989
v 0.568663 5.591562 2.458540
v 0.562669 5.594349 2.461150
v 0.558420 5.595996 2.466634
v 0.555837 5.596754 2.472680
v 0.554630 5.596764 2.479312
v 0.554513 5.596170 2.486549
v 0.556718 5.596412 2.495450
v 0.556396 5.593744 2.502931
v 0.557821 5.592196 2.512118
v 0.557140 5.589259 2.522009
v 0.560198 5.589151 2.532593
v 0.562847 5.589403 2.543912
v 0.562300 5.588589 2.556001
v 0.574542 5.589548 2.462021
v 0.578046 5.588062 2.468073
v 0.579682 5.587113 2.474429
v 0.579751 5.586608 2.481154
v 0.578555 5.586451 2.488313
v 0.577914 5.587842 2.497004
v 0.573568 5.586801 2.504190
v 0.570381 5.587118 2.513039
v 0.565089 5.586046 2.522592
v 0.564124 5.587564 2.532880
v 0.563926 5.588967 2.543991
v 0.568491 5.591712 2.458532
v 0.570244 5.585443 2.461408
v 0.571068 5.581164 2.467066
v 0.571256 5.578687 2.473208
v 0.570904 5.577704 2.479869
v 0.570110 5.577910 2.487084
v 0.570488 5.580295 2.495922
v 0.567576 5.580666 2.503314
v 0.566028 5.582605 2.512399
v 0.562378 5.583151 2.522189
v 0.562852 5.586076 2.532685
v 0.563687 5.588461 2.543942
v 0.562480 5.588430 2.556010
v 0.565193 5.597248 2.461559
v 0.562719 5.600678 2.467315
v 0.561112 5.602396 2.473511
v 0.560218 5.602681 2.480188
v 0.559882 5.601814 2.487389
v 0.561472 5.601369 2.496191
v 0.560270 5.597741 2.503532
v 0.560685 5.595094 2.512559
v 0.558996 5.591054 2.522290
v 0.561182 5.589978 2.532735
v 0.563228 5.589534 2.543956
v 0.568668 5.591654 2.458544
v 0.562305 5.589520 2.460906
v 0.557816 5.587948 2.466226
v 0.555101 5.586947 2.472184
v 0.553854 5.586416 2.478787
v 0.553770 5.586256 2.486047
v 0.556062 5.587659 2.495006
v 0.555864 5.586640 2.502571
v 0.557431 5.586985 2.511854
v 0.556892 5.585938 2.521841
v 0.560074 5.587475 2.532508
v 0.562809 5.588883 2.543885
v 0.562295 5.588492 2.555996
v 0.574054 5.594541 2.462200
v 0.577235 5.596247 2.468366
v 0.578695 5.597030 2.474783
v 0.578710 5.597039 2.481526
v 0.577558 5.596421 2.488668
v 0.577034 5.596622 2.497317
v 0.572855 5.593902 2.504443
v 0.569859 5.592296 2.513223
v 0.564757 5.589299 2.522707
v 0.563958 5.589135 2.532936
v 0.563877 5.589340 2.544003
vt 0.000000 0.000000
vt 0.000000 0.000000
vt 0.000000 0.000000
vt 0.000000 0.000000
vt 0.000000 0.000000
vt 0.000000 0.000000
vt 0.000000 0.000000
vt 0.000000 0.000000
vt 0.000000 0.000000
vt 0.000000 0.000000
vt 0.000000 0.000000
vt 0.000000 0.000000
vt 0.000000 0.000000
vt 0.000000 0.000000
vt 0.000000 0.000000
vt 0.000000 0.000000
vt 0.000000 0.000000
vt 0.000000 0.000000
vt 0.000000 0.000000
vt 0.000000 0.000000
vt 0.000000 0.000000
vt 0.000000 0.000000
vt 0.000000 0.000000
vt 0.000000 0.000000
vt 0.000000 0.000000
vt 0.000000 0.000000
vt 0.000000 0.000000
vt 0.000000 0.000000
vt 0.000000 0.000000
vt 0.000000 0.000000
vt 0.000000 0.000000
vt 0.000000 0.000000
vt 0.000000 0.000000
vt 0.000000 0.000000
vt 0.000000 0.000000
vt 0.000000 0.000000
vt 0.000000 0.000000
vt 0.000000 0.000000
vt 0.000000 0.000000
vt 0.000000 0.000000
vt 0.000000 0.000000
vt 0.000000 0.000000
vt 0.000000 0.000000
vt 0.000000 0.000000
vt 0.000000 0.000000
vt 0.000000 0.000000
vt 0.000000 0.000000
vt 0.000000 0.000000
vt 0.000000 0.000000
vt 0.000000 0.000000
vt 0.000000 0.000000
vt 0.000000 0.000000
vt 0.000000 0.000000
vt 0.000000 0.000000
vt 0.000000 0.000000
vt 0.000000 0.000000
vt 0.000000 0.000000
vt 0.000000 0.000000
vt 0.000000 0.000000
vt 0.000000 0.000000
vt 0.000000 0.000000
vt 0.000000 0.000000
vt 0.000000 0.000000
vt 0.000000 0.000000
vt 0.000000 0.000000
vt 0.000000 0.000000
vt 0.000000 0.000000
vt 0.000000 0.000000
vt 0.000000 0.000000
vt 0.000000 0.000000
vt 0.000000 0.000000
vt 0.000000 0.000000
vt 0.000000 0.000000
vt 0.000000 0.000000
vt 0.000000 0.000000
vt 0.000000 0.000000
vt 0.000000 0.000000
vt 0.000000 0.000000
vt 0.000000 0.000000
vt 0.000000 0.000000
vt 0.000000 0.000000
vt 0.000000 0.000000
vt 0.000000 0.000000
vt 0.000000 0.000000
vt 0.000000 0.000000
vt 0.000000 0.000000
vt 0.000000 0.000000
vt 0.000000 0.000000
vt 0.000000 0.000000
vt 0.000000 0.000000
vt 0.000000 0.000000
vt 0.000000 0.000000
vt 0.000000 0.000000
vt 0.000000 0.000000
vt 0.000000 0.000000
vt 0.000000 0.000000
vn 0.9204 -0.3897 0.0305
vn 0.9214 -0.3852 0.0506
vn 0.9310 -0.3631 0.0366
vn -0.3644 -0.9233 -0.1213
vn -0.3793 -0.9193 0.1046
vn -0.3793 -0.9194 0.1039
vn -0.8970 -0.3809 -0.2244
vn -0.9182 -0.3921 -0.0556
vn -0.9180 -0.3920 -0.0596
vn 0.4058 -0.9139 -0.0097
vn 0.4040 -0.9140 -0.0370
vn 0.3890 -0.9209 -0.0252
vn 0.9209 -0.3754 0.1044
vn 0.9149 -0.3765 0.1455
vn 0.9210 -0.3754 0.1044
vn 0.8938 -0.3763 0.2439
vn 0.9237 -0.3745 0.0808
vn 0.9254 -0.3737 0.0629
vn 0.9237 -0.3745 0.0807
vn 0.7181 -0.6916 -0.0779
vn 0.9289 -0.3702 0.0038
vn 0.9214 -0.3753 0.1009
vn 0.9204 -0.3756 0.1087
vn 0.9279 -0.3620 -0.0896
vn 0.9253 -0.3738 0.0643
vn 0.9256 -0.3736 0.0602
vn 0.9294 -0.3686 -0.0156
vn 0.9259 -0.3734 0.0578
vn 0.9295 -0.3680 -0.0239
vn 0.9225 -0.3750 0.0914
vn -0.3726 -0.9274 -0.0322
vn -0.3754 -0.9268 0.0093
vn -0.3754 -0.9268 0.0091
vn -0.3795 -0.9187 0.1092
vn -0.3726 -0.9274 -0.0325
vn -0.3707 -0.9271 -0.0562
vn -0.3707 -0.9271 -0.0560
vn -0.3691 -0.9264 -0.0740
vn -0.3691 -0.9264 -0.0739
vn -0.3757 -0.9266 0.0142
vn -0.3693 -0.9265 -0.0722
vn -0.3688 -0.9263 -0.0775
vn -0.3489 -0.9063 -0.2386
vn -0.3752 -0.9269 0.0061
vn -0.3568 -0.9159 -0.1839
vn -0.3500 -0.9076 -0.2319
vn -0.3638 -0.9229 -0.1263
vn -0.3757 -0.9266 0.0164
vn -0.3685 -0.9262 -0.0790
vn -0.3762 -0.9262 0.0243
vn -0.3579 -0.9171 -0.1754
vn -0.8844 -0.3748 -0.2780
vn -0.9052 -0.3850 -0.1802
vn -0.9111 -0.3880 -0.1391
vn -0.9138 -0.3895 -0.1155
vn -0.9154 -0.3904 -0.0977
vn -0.9192 -0.3935 0.0150
vn -0.9191 -0.3935 0.0206
vn -0.8979 -0.3814 -0.2197
vn -0.9062 -0.3855 -0.1737
vn -0.9140 -0.3896 -0.1135
vn -0.9141 -0.3897 -0.1119
vn -0.9083 -0.3905 0.1500
vn -0.9186 -0.3934 0.0372
vn -0.9159 -0.3906 -0.0927
vn -0.9187 -0.3934 0.0343
vn -0.9067 -0.3858 -0.1702
vn -0.9111 -0.3880 -0.1392
vn 0.3896 -0.9204 0.0338
vn 0.3849 -0.9199 0.0751
vn 0.3896 -0.9204 0.0337
vn 0.3707 -0.9123 0.1743
vn 0.3849 -0.9199 0.0752
vn 0.3920 -0.9199 0.0100
vn 0.3937 -0.9192 -0.0078
vn 0.3920 -0.9199 0.0101
vn 0.6091 -0.7911 0.0553
vn 0.3920 -0.9199 0.0095
vn 0.3973 -0.9162 -0.0518
vn 0.3989 -0.9138 -0.0764
vn 0.3913 -0.9201 0.0173
vn 0.3961 -0.9175 -0.0364
vn 0.3960 -0.9176 -0.0347
vn 0.3926 -0.9197 0.0032
vn 0.3941 -0.9190 -0.0129
vn 0.3924 -0.9198 0.0054
vn 0.3913 -0.9201 0.0179
vn 0.3970 -0.9165 -0.0485
g Flame4b_BezierCurve.013_None
usemtl None
s 1
f 18/1/1 20/2/2 7/3/3
f 46/4/4 47/5/5 35/6/6
f 68/7/7 67/8/8 55/9/9
f 90/10/10 92/11/11 79/12/12
f 3/13/13 2/14/14 15/15/15
f 2/14/14 1/16/16 14/17/14
f 15/15/15 2/14/14 14/17/14
f 15/15/15 16/18/17 3/13/13
f 16/18/17 17/19/18 4/20/19
f 3/13/13 16/18/17 4/20/19
f 18/1/1 19/21/20 20/2/2
f 17/19/18 18/1/1 5/22/18
f 5/22/18 4/20/19 17/19/18
f 7/3/3 6/23/21 18/1/1
f 6/23/21 5/22/18 18/1/1
f 9/24/22 8/25/23 20/2/2
f 8/25/23 7/3/3 20/2/2
f 11/26/24 10/27/25 22/28/26
f 10/27/25 9/24/22 22/28/26
f 24/29/27 13/30/28 12/31/29
f 12/31/29 11/26/24 23/32/24
f 11/26/24 22/28/26 23/32/24
f 22/28/26 9/24/22 21/33/30
f 23/32/24 24/29/27 12/31/29
f 20/2/2 21/33/30 9/24/22
f 27/34/31 26/35/32 38/36/33
f 26/35/32 25/37/34 38/36/33
f 38/36/33 39/38/35 27/34/31
f 39/38/35 40/39/36 28/40/37
f 40/39/36 41/41/38 29/42/39
f 42/43/40 43/44/41 31/45/42
f 43/44/41 44/46/43 31/45/42
f 40/39/36 29/42/39 28/40/37
f 41/41/38 42/43/40 29/42/39
f 28/40/37 27/34/31 39/38/35
f 31/45/42 30/47/44 42/43/40
f 30/47/44 29/42/39 42/43/40
f 33/48/45 32/49/46 44/46/43
f 32/49/46 31/45/42 44/46/43
f 35/6/6 34/50/47 46/4/4
f 34/50/47 33/48/45 46/4/4
f 48/51/48 37/52/49 36/53/50
f 36/53/50 35/6/6 47/5/5
f 44/46/43 45/54/51 33/48/45
f 45/54/51 46/4/4 33/48/45
f 47/5/5 48/51/48 36/53/50
f 49/55/52 50/56/53 62/57/53
f 50/56/53 51/58/54 62/57/53
f 51/58/54 52/59/55 64/60/55
f 52/59/55 53/61/56 65/62/56
f 53/61/56 54/63/57 66/64/58
f 54/63/57 55/9/9 66/64/58
f 55/9/9 56/65/59 68/7/7
f 56/65/59 57/66/60 68/7/7
f 57/66/60 58/67/61 70/68/62
f 58/67/61 59/69/63 70/68/62
f 70/68/62 59/69/63 71/70/63
f 60/71/64 61/72/65 72/73/66
f 59/69/63 60/71/64 71/70/63
f 60/71/64 72/73/66 71/70/63
f 66/64/58 55/9/9 67/8/8
f 70/68/62 69/74/67 57/66/60
f 69/74/67 68/7/7 57/66/60
f 52/59/55 65/62/56 64/60/55
f 64/60/55 63/75/68 51/58/54
f 63/75/68 62/57/53 51/58/54
f 66/64/58 65/62/56 53/61/56
f 75/76/69 74/77/70 87/78/71
f 74/77/70 73/79/72 86/80/73
f 87/78/71 74/77/70 86/80/73
f 87/78/71 88/81/74 75/76/69
f 88/81/74 89/82/75 76/83/76
f 75/76/69 88/81/74 76/83/76
f 90/10/10 91/84/77 92/11/11
f 89/82/75 90/10/10 77/85/75
f 77/85/75 76/83/76 89/82/75
f 79/12/12 78/86/78 90/10/10
f 78/86/78 77/85/75 90/10/10
f 81/87/79 80/88/80 92/11/11
f 80/88/80 79/12/12 92/11/11
f 83/89/81 82/90/82 94/91/83
f 82/90/82 81/87/79 94/91/83
f 96/92/84 85/93/85 84/94/86
f 84/94/86 83/89/81 95/95/87
f 83/89/81 94/91/83 95/95/87
f 94/91/83 81/87/79 93/96/88
f 95/95/87 96/92/84 84/94/86
f 92/11/11 93/96/88 81/87/79
