# Blender v3.6.19 OBJ File: 'Candles1.blend'
# www.blender.org
mtllib Flame1aux.mtl
o Flame1aux_BezierCurve.020
v 1.595119 -0.230694 2.114805
v 1.591970 -0.235265 2.119100
v 1.589627 -0.237065 2.124983
v 1.588120 -0.237086 2.130680
v 1.587301 -0.235588 2.136314
v 1.587021 -0.232831 2.142013
v 1.588684 -0.227501 2.148222
v 1.587488 -0.224582 2.154102
v 1.587939 -0.219612 2.160743
v 1.586268 -0.215682 2.168478
v 1.588535 -0.209280 2.175844
v 1.590684 -0.203082 2.183985
v 1.590037 -0.198806 2.193635
v 1.596751 -0.223878 2.115166
v 1.597530 -0.218243 2.118480
v 1.597722 -0.214217 2.122779
v 1.597416 -0.211496 2.127991
v 1.596702 -0.209774 2.134047
v 1.597219 -0.207174 2.141199
v 1.594403 -0.208113 2.148412
v 1.592997 -0.207566 2.156581
v 1.589468 -0.208060 2.165844
v 1.590116 -0.205515 2.174544
v 1.591119 -0.202047 2.183627
v 1.595205 -0.230849 2.114873
v 1.589144 -0.227342 2.115754
v 1.584894 -0.223856 2.119402
v 1.582344 -0.220990 2.123878
v 1.581200 -0.218603 2.129136
v 1.581172 -0.216556 2.135135
v 1.583517 -0.213135 2.142150
v 1.583290 -0.212923 2.149174
v 1.584854 -0.211057 2.157126
v 1.584294 -0.210229 2.166172
v 1.587527 -0.206526 2.174679
v 1.590352 -0.202226 2.183620
v 1.589947 -0.198644 2.193564
v 1.601221 -0.231454 2.118528
v 1.604856 -0.230652 2.123988
v 1.606597 -0.229247 2.129449
v 1.606751 -0.227302 2.135006
v 1.605624 -0.224882 2.140752
v 1.605075 -0.220475 2.147102
v 1.600757 -0.218869 2.153186
v 1.597629 -0.215406 2.160061
v 1.592378 -0.212982 2.168029
v 1.591519 -0.207885 2.175596
v 1.591450 -0.202600 2.183873
v 1.595030 -0.230712 2.114803
v 1.596866 -0.235485 2.119637
v 1.597785 -0.237415 2.125872
v 1.598059 -0.237506 2.131759
v 1.597787 -0.236027 2.137452
v 1.597068 -0.233249 2.143102
v 1.597552 -0.227868 2.149182
v 1.594685 -0.224877 2.154880
v 1.593218 -0.219824 2.161313
v 1.589631 -0.215812 2.168839
v 1.590231 -0.209337 2.176023
v 1.591208 -0.203087 2.184035
v 1.590131 -0.198787 2.193637
v 1.591702 -0.224505 2.114945
v 1.589249 -0.219267 2.118116
v 1.587688 -0.215456 2.122336
v 1.586862 -0.212798 2.127525
v 1.586612 -0.211018 2.133601
v 1.588334 -0.208268 2.140806
v 1.587216 -0.208998 2.148094
v 1.587756 -0.208209 2.156349
v 1.586175 -0.208462 2.165698
v 1.588524 -0.205707 2.174472
v 1.590739 -0.202088 2.183608
v 1.595210 -0.230762 2.114839
v 1.588789 -0.231903 2.117497
v 1.584303 -0.231458 2.122307
v 1.581624 -0.230253 2.127417
v 1.580441 -0.228377 2.132871
v 1.580444 -0.225921 2.138714
v 1.582875 -0.221402 2.145309
v 1.582770 -0.219632 2.151737
v 1.584472 -0.215979 2.159008
v 1.584051 -0.213366 2.167371
v 1.587405 -0.208109 2.175284
v 1.590315 -0.202717 2.183808
v 1.589942 -0.198735 2.193599
v 1.600711 -0.226766 2.116656
v 1.604009 -0.222968 2.120918
v 1.605566 -0.219937 2.125730
v 1.605664 -0.217509 2.131094
v 1.604584 -0.215520 2.137012
v 1.604157 -0.212232 2.143809
v 1.600012 -0.212203 2.150522
v 1.597084 -0.210545 2.158119
v 1.592032 -0.209928 2.166809
v 1.591346 -0.206411 2.175006
v 1.591399 -0.202250 2.183732
vt 0.000000 0.000000
vt 0.000000 0.000000
vt 0.000000 0.000000
vt 0.000000 0.000000
vt 0.000000 0.000000
vt 0.000000 0.000000
vt 0.000000 0.000000
vt 0.000000 0.000000
vt 0.000000 0.000000
vt 0.000000 0.000000
vt 0.000000 0.000000
vt 0.000000 0.000000
vt 0.000000 0.000000
vt 0.000000 0.000000
vt 0.000000 0.000000
vt 0.000000 0.000000
vt 0.000000 0.000000
vt 0.000000 0.000000
vt 0.000000 0.000000
vt 0.000000 0.000000
vt 0.000000 0.000000
vt 0.000000 0.000000
vt 0.000000 0.000000
vt 0.000000 0.000000
vt 0.000000 0.000000
vt 0.000000 0.000000
vt 0.000000 0.000000
vt 0.000000 0.000000
vt 0.000000 0.000000
vt 0.000000 0.000000
vt 0.000000 0.000000
vt 0.000000 0.000000
vt 0.000000 0.000000
vt 0.000000 0.000000
vt 0.000000 0.000000
vt 0.000000 0.000000
vt 0.000000 0.000000
vt 0.000000 0.000000
vt 0.000000 0.000000
vt 0.000000 0.000000
vt 0.000000 0.000000
vt 0.000000 0.000000
vt 0.000000 0.000000
vt 0.000000 0.000000
vt 0.000000 0.000000
vt 0.000000 0.000000
vt 0.000000 0.000000
vt 0.000000 0.000000
vt 0.000000 0.000000
vt 0.000000 0.000000
vt 0.000000 0.000000
vt 0.000000 0.000000
vt 0.000000 0.000000
vt 0.000000 0.000000
vt 0.000000 0.000000
vt 0.000000 0.000000
vt 0.000000 0.000000
vt 0.000000 0.000000
vt 0.000000 0.000000
vt 0.000000 0.000000
vt 0.000000 0.000000
vt 0.000000 0.000000
vt 0.000000 0.000000
vt 0.000000 0.000000
vt 0.000000 0.000000
vt 0.000000 0.000000
vt 0.000000 0.000000
vt 0.000000 0.000000
vt 0.000000 0.000000
vt 0.000000 0.000000
vt 0.000000 0.000000
vt 0.000000 0.000000
vt 0.000000 0.000000
vt 0.000000 0.000000
vt 0.000000 0.000000
vt 0.000000 0.000000
vt 0.000000 0.000000
vt 0.000000 0.000000
vt 0.000000 0.000000
vt 0.000000 0.000000
vt 0.000000 0.000000
vt 0.000000 0.000000
vt 0.000000 0.000000
vt 0.000000 0.000000
vt 0.000000 0.000000
vt 0.000000 0.000000
vt 0.000000 0.000000
vt 0.000000 0.000000
vt 0.000000 0.000000
vt 0.000000 0.000000
vt 0.000000 0.000000
vt 0.000000 0.000000
vt 0.000000 0.000000
vt 0.000000 0.000000
vt 0.000000 0.000000
vt 0.000000 0.000000
vn 0.9188 -0.3499 0.1828
vn 0.9208 -0.3356 0.1986
vn 0.9309 -0.3206 0.1747
vn -0.3633 -0.8969 0.2521
vn -0.3797 -0.7840 0.4911
vn -0.3797 -0.7845 0.4903
vn -0.8904 -0.4495 -0.0720
vn -0.9172 -0.3795 0.1214
vn -0.9170 -0.3816 0.1161
vn 0.4051 -0.8403 0.3602
vn 0.4019 -0.8528 0.3335
vn 0.3862 -0.8539 0.3488
vn 0.9201 -0.2989 0.2531
vn 0.9131 -0.2813 0.2953
vn 0.8857 -0.2333 0.4013
vn 0.9131 -0.2813 0.2952
vn 0.9234 -0.3089 0.2279
vn 0.9254 -0.3164 0.2088
vn 0.7161 -0.6710 0.1922
vn 0.9254 -0.3163 0.2088
vn 0.9292 -0.3397 0.1457
vn 0.9207 -0.3005 0.2490
vn 0.9192 -0.2962 0.2596
vn 0.9262 -0.3748 0.0407
vn 0.9249 -0.3144 0.2140
vn 0.9254 -0.3166 0.2081
vn 0.9295 -0.3479 0.1228
vn 0.9258 -0.3186 0.2033
vn 0.9294 -0.3514 0.1125
vn 0.9223 -0.3053 0.2372
vn -0.3730 -0.8589 0.3510
vn -0.3759 -0.8395 0.3924
vn -0.3798 -0.7809 0.4959
vn -0.3709 -0.8695 0.3262
vn -0.3710 -0.8695 0.3262
vn -0.3692 -0.8771 0.3073
vn -0.3764 -0.8361 0.3992
vn -0.3700 -0.8736 0.3162
vn -0.3693 -0.8766 0.3086
vn -0.3446 -0.9310 0.1204
vn -0.3758 -0.8408 0.3896
vn -0.3550 -0.9158 0.1880
vn -0.3461 -0.9293 0.1292
vn -0.3625 -0.8991 0.2453
vn -0.3764 -0.8344 0.4027
vn -0.3687 -0.8792 0.3018
vn -0.3769 -0.8297 0.4117
vn -0.3566 -0.9128 0.1993
vn -0.8752 -0.4665 -0.1282
vn -0.9019 -0.4315 -0.0174
vn -0.9019 -0.4316 -0.0173
vn -0.9088 -0.4165 0.0256
vn -0.9119 -0.4072 0.0509
vn -0.9119 -0.4071 0.0509
vn -0.9139 -0.3999 0.0700
vn -0.9173 -0.3510 0.1882
vn -0.9170 -0.3480 0.1948
vn -0.8917 -0.4477 -0.0664
vn -0.9032 -0.4290 -0.0098
vn -0.9115 -0.4085 0.0472
vn -0.9118 -0.4077 0.0493
vn -0.9007 -0.2826 0.3300
vn -0.9158 -0.3393 0.2148
vn -0.9142 -0.3982 0.0755
vn -0.9160 -0.3407 0.2116
vn -0.9040 -0.4275 -0.0055
vn 0.3853 -0.8272 0.4090
vn 0.3799 -0.8079 0.4505
vn 0.3852 -0.8272 0.4090
vn 0.3622 -0.7502 0.5533
vn 0.3799 -0.8080 0.4505
vn 0.3880 -0.8378 0.3841
vn 0.3899 -0.8453 0.3652
vn 0.3881 -0.8378 0.3841
vn 0.6056 -0.7008 0.3770
vn 0.3900 -0.8453 0.3652
vn 0.3882 -0.8382 0.3830
vn 0.3941 -0.8626 0.3172
vn 0.3959 -0.8717 0.2889
vn 0.3872 -0.8344 0.3922
vn 0.3929 -0.8573 0.3327
vn 0.3926 -0.8564 0.3352
vn 0.3887 -0.8407 0.3771
vn 0.3904 -0.8475 0.3597
vn 0.3884 -0.8396 0.3798
vn 0.3871 -0.8341 0.3929
vn 0.3937 -0.8612 0.3215
g Flame1aux_BezierCurve.020_None
usemtl None
s 1
f 18/1/1 20/2/2 7/3/3
f 46/4/4 47/5/5 35/6/6
f 68/7/7 67/8/8 55/9/9
f 90/10/10 92/11/11 79/12/12
f 3/13/13 2/14/14 15/15/13
f 2/14/14 1/16/15 14/17/16
f 15/15/13 2/14/14 14/17/16
f 15/15/13 16/18/17 3/13/13
f 16/18/17 17/19/18 4/20/17
f 3/13/13 16/18/17 4/20/17
f 18/1/1 19/21/19 20/2/2
f 17/19/18 18/1/1 5/22/20
f 5/22/20 4/20/17 17/19/18
f 7/3/3 6/23/21 18/1/1
f 6/23/21 5/22/20 18/1/1
f 9/24/22 8/25/23 20/2/2
f 8/25/23 7/3/3 20/2/2
f 11/26/24 10/27/25 22/28/26
f 10/27/25 9/24/22 22/28/26
f 24/29/27 13/30/28 12/31/29
f 12/31/29 11/26/24 23/32/24
f 11/26/24 22/28/26 23/32/24
f 22/28/26 9/24/22 21/33/30
f 23/32/24 24/29/27 12/31/29
f 20/2/2 21/33/30 9/24/22
f 27/34/31 26/35/32 38/36/32
f 26/35/32 25/37/33 38/36/32
f 38/36/32 39/38/31 27/34/31
f 39/38/31 40/39/34 28/40/35
f 40/39/34 41/41/36 29/42/36
f 42/43/37 43/44/38 31/45/39
f 43/44/38 44/46/40 31/45/39
f 40/39/34 29/42/36 28/40/35
f 41/41/36 42/43/37 29/42/36
f 28/40/35 27/34/31 39/38/31
f 31/45/39 30/47/41 42/43/37
f 30/47/41 29/42/36 42/43/37
f 33/48/42 32/49/43 44/46/40
f 32/49/43 31/45/39 44/46/40
f 35/6/6 34/50/44 46/4/4
f 34/50/44 33/48/42 46/4/4
f 48/51/45 37/52/46 36/53/47
f 36/53/47 35/6/6 47/5/5
f 44/46/40 45/54/48 33/48/42
f 45/54/48 46/4/4 33/48/42
f 47/5/5 48/51/45 36/53/47
f 49/55/49 50/56/50 62/57/51
f 50/56/50 51/58/52 62/57/51
f 51/58/52 52/59/53 64/60/54
f 52/59/53 53/61/55 65/62/55
f 53/61/55 54/63/56 66/64/57
f 54/63/56 55/9/9 66/64/57
f 55/9/9 56/65/58 68/7/7
f 56/65/58 57/66/59 68/7/7
f 57/66/59 58/67/60 70/68/61
f 58/67/60 59/69/62 70/68/61
f 70/68/61 59/69/62 71/70/62
f 60/71/63 61/72/64 72/73/65
f 59/69/62 60/71/63 71/70/62
f 60/71/63 72/73/65 71/70/62
f 66/64/57 55/9/9 67/8/8
f 70/68/61 69/74/66 57/66/59
f 69/74/66 68/7/7 57/66/59
f 52/59/53 65/62/55 64/60/54
f 64/60/54 63/75/52 51/58/52
f 63/75/52 62/57/51 51/58/52
f 66/64/57 65/62/55 53/61/55
f 75/76/67 74/77/68 87/78/69
f 74/77/68 73/79/70 86/80/71
f 87/78/69 74/77/68 86/80/71
f 87/78/69 88/81/72 75/76/67
f 88/81/72 89/82/73 76/83/74
f 75/76/67 88/81/72 76/83/74
f 90/10/10 91/84/75 92/11/11
f 89/82/73 90/10/10 77/85/76
f 77/85/76 76/83/74 89/82/73
f 79/12/12 78/86/77 90/10/10
f 78/86/77 77/85/76 90/10/10
f 81/87/78 80/88/79 92/11/11
f 80/88/79 79/12/12 92/11/11
f 83/89/80 82/90/81 94/91/82
f 82/90/81 81/87/78 94/91/82
f 96/92/83 85/93/84 84/94/85
f 84/94/85 83/89/80 95/95/86
f 83/89/80 94/91/82 95/95/86
f 94/91/82 81/87/78 93/96/87
f 95/95/86 96/92/83 84/94/85
f 92/11/11 93/96/87 81/87/78
