# Blender v3.6.19 OBJ File: 'Candles1.blend'
# www.blender.org
mtllib Flame4aux.mtl
o Flame4aux_BezierCurve.022
v 0.256955 5.412384 2.108038
v 0.253334 5.407349 2.113367
v 0.250593 5.405622 2.120902
v 0.248796 5.405945 2.128289
v 0.247773 5.408024 2.135676
v 0.247357 5.411567 2.143214
v 0.249123 5.418118 2.151534
v 0.247666 5.421863 2.159331
v 0.248055 5.428028 2.168208
v 0.246027 5.433057 2.178471
v 0.248456 5.440922 2.188342
v 0.250739 5.448596 2.199204
v 0.249838 5.454140 2.211947
v 0.258776 5.420310 2.108889
v 0.259588 5.427044 2.113500
v 0.259724 5.431973 2.119296
v 0.259286 5.435445 2.126203
v 0.258374 5.437809 2.134147
v 0.258837 5.441255 2.143541
v 0.255536 5.440607 2.152855
v 0.253811 5.441738 2.163471
v 0.249670 5.441733 2.175473
v 0.250255 5.445206 2.186862
v 0.251234 5.449774 2.198797
v 0.257052 5.412209 2.108115
v 0.250168 5.416348 2.109563
v 0.245289 5.420624 2.114558
v 0.242321 5.424226 2.120557
v 0.240935 5.427315 2.127518
v 0.240800 5.430051 2.135396
v 0.243331 5.434435 2.144633
v 0.242961 5.435105 2.153729
v 0.244597 5.437745 2.164097
v 0.243814 5.439250 2.175850
v 0.247325 5.444049 2.187017
v 0.250366 5.449568 2.198790
v 0.249737 5.454324 2.211867
v 0.263803 5.411710 2.112707
v 0.267826 5.412957 2.119755
v 0.269704 5.414911 2.126871
v 0.269783 5.417502 2.134169
v 0.268409 5.420660 2.141762
v 0.267672 5.426155 2.150245
v 0.262681 5.428397 2.158276
v 0.259021 5.432838 2.167423
v 0.252942 5.436145 2.177954
v 0.251833 5.442516 2.188057
v 0.251606 5.449146 2.199076
v 0.256855 5.412364 2.108037
v 0.258867 5.407113 2.113969
v 0.259812 5.405245 2.121897
v 0.260028 5.405494 2.129498
v 0.259624 5.407553 2.136951
v 0.258711 5.411118 2.144434
v 0.259145 5.417726 2.152610
v 0.255799 5.421547 2.160203
v 0.254021 5.427800 2.168846
v 0.249829 5.432918 2.178875
v 0.250373 5.440862 2.188542
v 0.251331 5.448592 2.199260
v 0.249944 5.454162 2.211949
v 0.253067 5.419583 2.108647
v 0.250225 5.425858 2.113101
v 0.248379 5.430538 2.118811
v 0.247352 5.433937 2.125692
v 0.246967 5.436368 2.133659
v 0.248791 5.439987 2.143111
v 0.247410 5.439583 2.152506
v 0.247885 5.440992 2.163216
v 0.245946 5.441266 2.175313
v 0.248455 5.444984 2.186783
v 0.250803 5.449726 2.198776
v 0.257058 5.412307 2.108077
v 0.249751 5.411162 2.111547
v 0.244595 5.411981 2.117865
v 0.241476 5.413694 2.124587
v 0.240044 5.416202 2.131770
v 0.239946 5.419403 2.139470
v 0.242578 5.425036 2.148229
v 0.242350 5.427477 2.156648
v 0.244148 5.432148 2.166239
v 0.243529 5.435684 2.177215
v 0.247182 5.442249 2.187706
v 0.250323 5.449010 2.199004
v 0.249731 5.454220 2.211906
v 0.263242 5.417037 2.110578
v 0.266895 5.421690 2.116262
v 0.268571 5.425492 2.122640
v 0.268588 5.428631 2.129719
v 0.267264 5.431298 2.137507
v 0.266662 5.435523 2.146498
v 0.261863 5.435974 2.155246
v 0.258421 5.438362 2.165213
v 0.252561 5.439616 2.176566
v 0.251642 5.444191 2.187386
v 0.251549 5.449544 2.198916
vt 0.000000 0.000000
vt 0.000000 0.000000
vt 0.000000 0.000000
vt 0.000000 0.000000
vt 0.000000 0.000000
vt 0.000000 0.000000
vt 0.000000 0.000000
vt 0.000000 0.000000
vt 0.000000 0.000000
vt 0.000000 0.000000
vt 0.000000 0.000000
vt 0.000000 0.000000
vt 0.000000 0.000000
vt 0.000000 0.000000
vt 0.000000 0.000000
vt 0.000000 0.000000
vt 0.000000 0.000000
vt 0.000000 0.000000
vt 0.000000 0.000000
vt 0.000000 0.000000
vt 0.000000 0.000000
vt 0.000000 0.000000
vt 0.000000 0.000000
vt 0.000000 0.000000
vt 0.000000 0.000000
vt 0.000000 0.000000
vt 0.000000 0.000000
vt 0.000000 0.000000
vt 0.000000 0.000000
vt 0.000000 0.000000
vt 0.000000 0.000000
vt 0.000000 0.000000
vt 0.000000 0.000000
vt 0.000000 0.000000
vt 0.000000 0.000000
vt 0.000000 0.000000
vt 0.000000 0.000000
vt 0.000000 0.000000
vt 0.000000 0.000000
vt 0.000000 0.000000
vt 0.000000 0.000000
vt 0.000000 0.000000
vt 0.000000 0.000000
vt 0.000000 0.000000
vt 0.000000 0.000000
vt 0.000000 0.000000
vt 0.000000 0.000000
vt 0.000000 0.000000
vt 0.000000 0.000000
vt 0.000000 0.000000
vt 0.000000 0.000000
vt 0.000000 0.000000
vt 0.000000 0.000000
vt 0.000000 0.000000
vt 0.000000 0.000000
vt 0.000000 0.000000
vt 0.000000 0.000000
vt 0.000000 0.000000
vt 0.000000 0.000000
vt 0.000000 0.000000
vt 0.000000 0.000000
vt 0.000000 0.000000
vt 0.000000 0.000000
vt 0.000000 0.000000
vt 0.000000 0.000000
vt 0.000000 0.000000
vt 0.000000 0.000000
vt 0.000000 0.000000
vt 0.000000 0.000000
vt 0.000000 0.000000
vt 0.000000 0.000000
vt 0.000000 0.000000
vt 0.000000 0.000000
vt 0.000000 0.000000
vt 0.000000 0.000000
vt 0.000000 0.000000
vt 0.000000 0.000000
vt 0.000000 0.000000
vt 0.000000 0.000000
vt 0.000000 0.000000
vt 0.000000 0.000000
vt 0.000000 0.000000
vt 0.000000 0.000000
vt 0.000000 0.000000
vt 0.000000 0.000000
vt 0.000000 0.000000
vt 0.000000 0.000000
vt 0.000000 0.000000
vt 0.000000 0.000000
vt 0.000000 0.000000
vt 0.000000 0.000000
vt 0.000000 0.000000
vt 0.000000 0.000000
vt 0.000000 0.000000
vt 0.000000 0.000000
vt 0.000000 0.000000
vn 0.9204 -0.3442 0.1854
vn 0.9214 -0.3319 0.2020
vn 0.9310 -0.3173 0.1803
vn -0.3644 -0.8936 0.2622
vn -0.3793 -0.7986 0.4673
vn -0.3793 -0.7990 0.4666
vn -0.8970 -0.4391 -0.0514
vn -0.9182 -0.3812 0.1076
vn -0.9180 -0.3827 0.1038
vn 0.4058 -0.8399 0.3606
vn 0.4040 -0.8510 0.3356
vn 0.3889 -0.8525 0.3494
vn 0.9209 -0.3012 0.2473
vn 0.9149 -0.2855 0.2853
vn 0.8938 -0.2456 0.3753
vn 0.9237 -0.3100 0.2254
vn 0.9254 -0.3164 0.2087
vn 0.9237 -0.3100 0.2253
vn 0.7180 -0.6642 0.2082
vn 0.9289 -0.3371 0.1532
vn 0.9214 -0.3025 0.2440
vn 0.9204 -0.2996 0.2514
vn 0.9279 -0.3673 0.0644
vn 0.9253 -0.3159 0.2100
vn 0.9256 -0.3174 0.2061
vn 0.9294 -0.3436 0.1348
vn 0.9258 -0.3183 0.2039
vn 0.9295 -0.3464 0.1270
vn 0.9225 -0.3060 0.2352
vn -0.3726 -0.8613 0.3453
vn -0.3754 -0.8440 0.3831
vn -0.3754 -0.8440 0.3830
vn -0.3794 -0.7959 0.4717
vn -0.3726 -0.8614 0.3452
vn -0.3707 -0.8706 0.3233
vn -0.3707 -0.8706 0.3234
vn -0.3691 -0.8773 0.3068
vn -0.3692 -0.8773 0.3068
vn -0.3757 -0.8418 0.3875
vn -0.3693 -0.8766 0.3084
vn -0.3688 -0.8785 0.3035
vn -0.3489 -0.9254 0.1480
vn -0.3752 -0.8454 0.3801
vn -0.3568 -0.9121 0.2020
vn -0.3500 -0.9239 0.1548
vn -0.3638 -0.8952 0.2574
vn -0.3758 -0.8409 0.3895
vn -0.3686 -0.8792 0.3020
vn -0.3762 -0.8374 0.3965
vn -0.3580 -0.9098 0.2102
vn -0.8844 -0.4553 -0.1029
vn -0.9052 -0.4250 -0.0094
vn -0.9052 -0.4250 -0.0093
vn -0.9111 -0.4112 0.0295
vn -0.9138 -0.4029 0.0517
vn -0.9154 -0.3966 0.0683
vn -0.9154 -0.3966 0.0684
vn -0.9192 -0.3538 0.1727
vn -0.9191 -0.3516 0.1778
vn -0.8979 -0.4376 -0.0468
vn -0.9062 -0.4228 -0.0032
vn -0.9140 -0.4022 0.0535
vn -0.9141 -0.4016 0.0551
vn -0.9083 -0.2966 0.2949
vn -0.9185 -0.3449 0.1932
vn -0.9158 -0.3948 0.0733
vn -0.9186 -0.3461 0.1906
vn -0.9068 -0.4217 0.0001
vn 0.3896 -0.8282 0.4028
vn 0.3848 -0.8110 0.4406
vn 0.3896 -0.8282 0.4029
vn 0.3706 -0.7638 0.5285
vn 0.3920 -0.8373 0.3811
vn 0.3937 -0.8439 0.3645
vn 0.3920 -0.8374 0.3810
vn 0.6091 -0.7013 0.3703
vn 0.3937 -0.8439 0.3644
vn 0.3920 -0.8375 0.3806
vn 0.3972 -0.8590 0.3229
vn 0.3989 -0.8667 0.2995
vn 0.3912 -0.8346 0.3878
vn 0.3961 -0.8539 0.3376
vn 0.3959 -0.8533 0.3393
vn 0.3927 -0.8399 0.3747
vn 0.3942 -0.8457 0.3596
vn 0.3925 -0.8390 0.3768
vn 0.3911 -0.8344 0.3883
vn 0.3970 -0.8579 0.3261
g Flame4aux_BezierCurve.022_None
usemtl None
s 1
f 18/1/1 20/2/2 7/3/3
f 46/4/4 47/5/5 35/6/6
f 68/7/7 67/8/8 55/9/9
f 90/10/10 92/11/11 79/12/12
f 3/13/13 2/14/14 15/15/13
f 2/14/14 1/16/15 14/17/14
f 15/15/13 2/14/14 14/17/14
f 15/15/13 16/18/16 3/13/13
f 16/18/16 17/19/17 4/20/18
f 3/13/13 16/18/16 4/20/18
f 18/1/1 19/21/19 20/2/2
f 17/19/17 18/1/1 5/22/17
f 5/22/17 4/20/18 17/19/17
f 7/3/3 6/23/20 18/1/1
f 6/23/20 5/22/17 18/1/1
f 9/24/21 8/25/22 20/2/2
f 8/25/22 7/3/3 20/2/2
f 11/26/23 10/27/24 22/28/25
f 10/27/24 9/24/21 22/28/25
f 24/29/26 13/30/27 12/31/28
f 12/31/28 11/26/23 23/32/23
f 11/26/23 22/28/25 23/32/23
f 22/28/25 9/24/21 21/33/29
f 23/32/23 24/29/26 12/31/28
f 20/2/2 21/33/29 9/24/21
f 27/34/30 26/35/31 38/36/32
f 26/35/31 25/37/33 38/36/32
f 38/36/32 39/38/34 27/34/30
f 39/38/34 40/39/35 28/40/36
f 40/39/35 41/41/37 29/42/38
f 42/43/39 43/44/40 31/45/41
f 43/44/40 44/46/42 31/45/41
f 40/39/35 29/42/38 28/40/36
f 41/41/37 42/43/39 29/42/38
f 28/40/36 27/34/30 39/38/34
f 31/45/41 30/47/43 42/43/39
f 30/47/43 29/42/38 42/43/39
f 33/48/44 32/49/45 44/46/42
f 32/49/45 31/45/41 44/46/42
f 35/6/6 34/50/46 46/4/4
f 34/50/46 33/48/44 46/4/4
f 48/51/47 37/52/48 36/53/49
f 36/53/49 35/6/6 47/5/5
f 44/46/42 45/54/50 33/48/44
f 45/54/50 46/4/4 33/48/44
f 47/5/5 48/51/47 36/53/49
f 49/55/51 50/56/52 62/57/53
f 50/56/52 51/58/54 62/57/53
f 51/58/54 52/59/55 64/60/55
f 52/59/55 53/61/56 65/62/57
f 53/61/56 54/63/58 66/64/59
f 54/63/58 55/9/9 66/64/59
f 55/9/9 56/65/60 68/7/7
f 56/65/60 57/66/61 68/7/7
f 57/66/61 58/67/62 70/68/63
f 58/67/62 59/69/64 70/68/63
f 70/68/63 59/69/64 71/70/64
f 60/71/65 61/72/66 72/73/67
f 59/69/64 60/71/65 71/70/64
f 60/71/65 72/73/67 71/70/64
f 66/64/59 55/9/9 67/8/8
f 70/68/63 69/74/68 57/66/61
f 69/74/68 68/7/7 57/66/61
f 52/59/55 65/62/57 64/60/55
f 64/60/55 63/75/54 51/58/54
f 63/75/54 62/57/53 51/58/54
f 66/64/59 65/62/57 53/61/56
f 75/76/69 74/77/70 87/78/71
f 74/77/70 73/79/72 86/80/70
f 87/78/71 74/77/70 86/80/70
f 87/78/71 88/81/73 75/76/69
f 88/81/73 89/82/74 76/83/75
f 75/76/69 88/81/73 76/83/75
f 90/10/10 91/84/76 92/11/11
f 89/82/74 90/10/10 77/85/77
f 77/85/77 76/83/75 89/82/74
f 79/12/12 78/86/78 90/10/10
f 78/86/78 77/85/77 90/10/10
f 81/87/79 80/88/80 92/11/11
f 80/88/80 79/12/12 92/11/11
f 83/89/81 82/90/82 94/91/83
f 82/90/82 81/87/79 94/91/83
f 96/92/84 85/93/85 84/94/86
f 84/94/86 83/89/81 95/95/87
f 83/89/81 94/91/83 95/95/87
f 94/91/83 81/87/79 93/96/88
f 95/95/87 96/92/84 84/94/86
f 92/11/11 93/96/88 81/87/79
