# Blender v3.6.19 OBJ File: 'Candles1.blend'
# www.blender.org
mtllib Flame3aux.mtl
o Flame3aux_BezierCurve.023
v 1.103374 5.231318 2.112781
v 1.110068 5.232130 2.115498
v 1.114809 5.232485 2.121364
v 1.117689 5.232535 2.127874
v 1.119032 5.232328 2.135044
v 1.119156 5.231907 2.142893
v 1.116443 5.231814 2.152545
v 1.117039 5.230606 2.160701
v 1.115439 5.229817 2.170694
v 1.116214 5.228102 2.181468
v 1.112766 5.228188 2.192952
v 1.109809 5.228457 2.205220
v 1.110410 5.227811 2.218324
v 1.097530 5.229122 2.116504
v 1.094085 5.227512 2.123028
v 1.092510 5.226494 2.129895
v 1.092505 5.225963 2.137173
v 1.093769 5.225815 2.144931
v 1.094061 5.226443 2.154342
v 1.098905 5.226255 2.162156
v 1.102176 5.226635 2.171759
v 1.107821 5.226088 2.182142
v 1.108621 5.227193 2.193285
v 1.108670 5.228184 2.205311
v 1.103463 5.231484 2.112781
v 1.104671 5.224923 2.115634
v 1.105824 5.220450 2.121590
v 1.106746 5.217863 2.128148
v 1.107487 5.216841 2.135333
v 1.108096 5.217064 2.143170
v 1.106682 5.218709 2.152789
v 1.109119 5.219966 2.160898
v 1.109631 5.222006 2.170839
v 1.112516 5.223116 2.181559
v 1.110905 5.225661 2.192997
v 1.109241 5.227656 2.205232
v 1.110317 5.227637 2.218324
v 1.101729 5.237481 2.116521
v 1.100960 5.241208 2.123055
v 1.100837 5.243083 2.129928
v 1.101262 5.243410 2.137209
v 1.102139 5.242492 2.144965
v 1.101429 5.241127 2.154372
v 1.104863 5.238129 2.162180
v 1.106518 5.235291 2.171777
v 1.110546 5.231523 2.182153
v 1.109932 5.229812 2.193290
v 1.108973 5.228797 2.205313
v 1.103438 5.231255 2.112773
v 1.107601 5.236328 2.115898
v 1.110684 5.239469 2.122031
v 1.112658 5.241040 2.128687
v 1.113720 5.241299 2.135902
v 1.114064 5.240500 2.143716
v 1.111946 5.239398 2.153272
v 1.113387 5.236759 2.161290
v 1.112757 5.234328 2.171127
v 1.114500 5.230972 2.181744
v 1.111894 5.229630 2.193091
v 1.109529 5.228894 2.205263
v 1.110343 5.227877 2.218333
v 1.100822 5.225317 2.116051
v 1.099479 5.221270 2.122285
v 1.099044 5.218928 2.128995
v 1.099377 5.218004 2.136227
v 1.100338 5.218206 2.144026
v 1.099845 5.219743 2.153545
v 1.103583 5.220835 2.161512
v 1.105586 5.222681 2.171289
v 1.109962 5.223602 2.181846
v 1.109653 5.225990 2.193142
v 1.108912 5.227893 2.205277
vt 0.000000 0.000000
vt 0.000000 0.000000
vt 0.000000 0.000000
vt 0.000000 0.000000
vt 0.000000 0.000000
vt 0.000000 0.000000
vt 0.000000 0.000000
vt 0.000000 0.000000
vt 0.000000 0.000000
vt 0.000000 0.000000
vt 0.000000 0.000000
vt 0.000000 0.000000
vt 0.000000 0.000000
vt 0.000000 0.000000
vt 0.000000 0.000000
vt 0.000000 0.000000
vt 0.000000 0.000000
vt 0.000000 0.000000
vt 0.000000 0.000000
vt 0.000000 0.000000
vt 0.000000 0.000000
vt 0.000000 0.000000
vt 0.000000 0.000000
vt 0.000000 0.000000
vt 0.000000 0.000000
vt 0.000000 0.000000
vt 0.000000 0.000000
vt 0.000000 0.000000
vt 0.000000 0.000000
vt 0.000000 0.000000
vt 0.000000 0.000000
vt 0.000000 0.000000
vt 0.000000 0.000000
vt 0.000000 0.000000
vt 0.000000 0.000000
vt 0.000000 0.000000
vt 0.000000 0.000000
vt 0.000000 0.000000
vt 0.000000 0.000000
vt 0.000000 0.000000
vt 0.000000 0.000000
vt 0.000000 0.000000
vt 0.000000 0.000000
vt 0.000000 0.000000
vt 0.000000 0.000000
vt 0.000000 0.000000
vt 0.000000 0.000000
vt 0.000000 0.000000
vt 0.000000 0.000000
vt 0.000000 0.000000
vt 0.000000 0.000000
vt 0.000000 0.000000
vt 0.000000 0.000000
vt 0.000000 0.000000
vt 0.000000 0.000000
vt 0.000000 0.000000
vt 0.000000 0.000000
vt 0.000000 0.000000
vt 0.000000 0.000000
vt 0.000000 0.000000
vt 0.000000 0.000000
vt 0.000000 0.000000
vt 0.000000 0.000000
vt 0.000000 0.000000
vt 0.000000 0.000000
vt 0.000000 0.000000
vt 0.000000 0.000000
vt 0.000000 0.000000
vt 0.000000 0.000000
vt 0.000000 0.000000
vt 0.000000 0.000000
vt 0.000000 0.000000
vn 0.2140 -0.9763 -0.0327
vn 0.2405 -0.9698 -0.0395
vn 0.2174 -0.9747 -0.0528
vn -0.9567 -0.2362 0.1703
vn -0.9446 -0.2373 0.2268
vn -0.9553 -0.2364 0.1776
vn 0.8303 -0.5142 -0.2150
vn 0.8496 -0.5239 -0.0614
vn 0.8493 -0.5239 -0.0648
vn 0.2093 -0.9500 -0.2318
vn 0.2203 -0.9652 -0.1411
vn 0.2202 -0.9652 -0.1412
vn 0.2244 -0.9691 -0.1021
vn 0.2265 -0.9707 -0.0800
vn 0.2265 -0.9707 -0.0798
vn 0.2281 -0.9716 -0.0633
vn 0.2281 -0.9716 -0.0631
vn 0.2328 -0.9725 -0.0076
vn 0.2240 -0.9689 -0.1053
vn 0.2247 -0.9694 -0.0989
vn 0.2281 -0.9716 -0.0630
vn 0.2284 -0.9717 -0.0597
vn 0.2386 -0.9679 0.0788
vn 0.2348 -0.9719 0.0172
vn 0.2287 -0.9718 -0.0584
vn 0.2343 -0.9721 0.0100
vn 0.2255 -0.9700 -0.0906
vn -0.1520 -0.9859 0.0704
vn -0.9706 -0.2206 -0.0962
vn -0.9737 -0.2278 -0.0041
vn -0.9737 -0.2279 -0.0039
vn -0.9725 -0.2304 0.0355
vn -0.9711 -0.2316 0.0578
vn -0.9725 -0.2304 0.0356
vn -0.9697 -0.2325 0.0746
vn -0.9711 -0.2316 0.0579
vn -0.9736 -0.2281 -0.0007
vn -0.9737 -0.2276 -0.0078
vn -0.9693 -0.2327 0.0797
vn -0.9460 -0.2373 0.2209
vn -0.9645 -0.2346 0.1216
vn -0.9650 -0.2344 0.1172
vn -0.9710 -0.2211 -0.0910
vn -0.9737 -0.2270 -0.0163
vn -0.9693 -0.2327 0.0794
vn -0.9737 -0.2275 -0.0094
vn -0.9709 -0.2210 -0.0917
vn -0.9697 -0.2325 0.0755
vn 0.8192 -0.5080 -0.2663
vn 0.8371 -0.5178 -0.1763
vn 0.8371 -0.5179 -0.1762
vn 0.8427 -0.5207 -0.1371
vn 0.8452 -0.5220 -0.1150
vn 0.8452 -0.5220 -0.1149
vn 0.8468 -0.5227 -0.0983
vn 0.8516 -0.5242 0.0076
vn 0.8516 -0.5241 0.0124
vn 0.8311 -0.5147 -0.2108
vn 0.8381 -0.5184 -0.1701
vn 0.8456 -0.5222 -0.1108
vn 0.8457 -0.5223 -0.1095
vn 0.8448 -0.5183 0.1328
vn 0.8448 -0.5184 0.1328
vn 0.8514 -0.5238 0.0271
vn 0.8472 -0.5229 -0.0934
vn 0.8515 -0.5238 0.0246
vn 0.8385 -0.5186 -0.1672
vn 0.8426 -0.5207 -0.1371
g Flame3aux_BezierCurve.023_None
usemtl None
s 1
f 18/1/1 7/2/2 20/3/3
f 45/4/4 44/5/5 33/6/6
f 68/7/7 67/8/8 55/9/9
f 1/10/10 2/11/11 14/12/12
f 2/11/11 3/13/13 14/12/12
f 3/13/13 4/14/14 16/15/15
f 4/14/14 5/16/16 17/17/17
f 5/16/16 6/18/18 18/1/1
f 6/18/18 7/2/2 18/1/1
f 7/2/2 8/19/19 20/3/3
f 8/19/19 9/20/20 20/3/3
f 9/20/20 10/21/21 22/22/22
f 10/21/21 11/23/23 22/22/22
f 12/24/24 13/25/25 24/26/26
f 11/23/23 12/24/24 23/27/23
f 22/22/22 11/23/23 23/27/23
f 4/14/14 17/17/17 16/15/15
f 12/24/24 24/26/26 23/27/23
f 22/22/22 21/28/27 9/20/20
f 21/28/27 20/3/3 9/20/20
f 5/16/16 18/1/1 17/17/17
f 16/15/15 15/29/13 3/13/13
f 15/29/13 14/12/12 3/13/13
f 20/3/3 19/30/28 18/1/1
f 25/31/29 26/32/30 38/33/31
f 26/32/30 27/34/32 38/33/31
f 27/34/32 28/35/33 39/36/34
f 28/35/33 29/37/35 40/38/36
f 39/36/34 28/35/33 40/38/36
f 29/37/35 30/39/37 42/40/38
f 30/39/37 31/41/39 42/40/38
f 31/41/39 32/42/40 44/5/5
f 32/42/40 33/6/6 44/5/5
f 33/6/6 34/43/41 46/44/42
f 34/43/41 35/45/43 46/44/42
f 36/46/44 37/47/45 48/48/46
f 35/45/43 36/46/44 47/49/47
f 46/44/42 35/45/43 47/49/47
f 39/36/34 38/33/31 27/34/32
f 41/50/35 40/38/36 29/37/35
f 44/5/5 43/51/48 31/41/39
f 43/51/48 42/40/38 31/41/39
f 42/40/38 41/50/35 29/37/35
f 36/46/44 48/48/46 47/49/47
f 46/44/42 45/4/4 33/6/6
f 49/52/49 50/53/50 62/54/51
f 50/53/50 51/55/52 62/54/51
f 51/55/52 52/56/53 64/57/54
f 52/56/53 53/58/55 65/59/55
f 53/58/55 54/60/56 66/61/57
f 54/60/56 55/9/9 66/61/57
f 55/9/9 56/62/58 68/7/7
f 56/62/58 57/63/59 68/7/7
f 57/63/59 58/64/60 70/65/61
f 58/64/60 59/66/62 70/65/61
f 70/65/61 59/66/62 71/67/63
f 60/68/64 61/69/65 72/70/66
f 59/66/62 60/68/64 71/67/63
f 60/68/64 72/70/66 71/67/63
f 66/61/57 55/9/9 67/8/8
f 70/65/61 69/71/67 57/63/59
f 69/71/67 68/7/7 57/63/59
f 52/56/53 65/59/55 64/57/54
f 64/57/54 63/72/68 51/55/52
f 63/72/68 62/54/51 51/55/52
f 66/61/57 65/59/55 53/58/55
