# Blender v3.6.19 OBJ File: 'Candles1.blend'
# www.blender.org
mtllib Flame1t.mtl
o Flame1t_BezierCurve.010
v -1.372839 5.518145 3.713850
v -1.364204 5.519919 3.716412
v -1.358232 5.520127 3.721455
v -1.354710 5.519472 3.726930
v -1.353220 5.518066 3.732868
v -1.353344 5.516027 3.739301
v -1.357369 5.513497 3.747343
v -1.356757 5.510505 3.753774
v -1.359208 5.507253 3.761875
v -1.358397 5.503149 3.770332
v -1.363508 5.500341 3.779963
v -1.368032 5.497705 3.790313
v -1.367727 5.494446 3.801073
v -1.380420 5.513543 3.716225
v -1.385035 5.509590 3.721145
v -1.387276 5.506668 3.726553
v -1.387528 5.504578 3.732472
v -1.386178 5.503118 3.738922
v -1.386316 5.502116 3.747009
v -1.380209 5.501285 3.753503
v -1.376362 5.500509 3.761677
v -1.369252 5.498881 3.770206
v -1.368869 5.498233 3.779902
v -1.369506 5.497125 3.790297
v -1.372748 5.518369 3.713905
v -1.370234 5.509846 3.714134
v -1.368266 5.503313 3.717649
v -1.366930 5.498974 3.722289
v -1.366110 5.496432 3.727969
v -1.365691 5.495294 3.734606
v -1.368266 5.495191 3.743197
v -1.365597 5.495645 3.750407
v -1.365690 5.496344 3.759403
v -1.362522 5.496189 3.768753
v -1.365581 5.496816 3.779163
v -1.368661 5.496591 3.790058
v -1.367823 5.494211 3.801015
v -1.376168 5.524795 3.719007
v -1.378075 5.528023 3.725704
v -1.378847 5.528996 3.732076
v -1.378665 5.528060 3.738281
v -1.377707 5.525563 3.744474
v -1.378859 5.521878 3.751897
v -1.374179 5.517266 3.757456
v -1.371968 5.512158 3.764559
v -1.366494 5.506196 3.772016
v -1.367543 5.501758 3.780774
v -1.369200 5.497950 3.790501
v -1.372744 5.518080 3.713823
v -1.368162 5.524609 3.718123
v -1.364844 5.527927 3.724303
v -1.362773 5.528968 3.730399
v -1.361731 5.528082 3.736528
v -1.361501 5.525620 3.742808
v -1.364572 5.521962 3.750437
v -1.362605 5.517372 3.756285
v -1.363503 5.512287 3.763717
v -1.361139 5.506351 3.771504
v -1.364900 5.501947 3.780553
v -1.368476 5.498188 3.790493
v -1.367827 5.494514 3.801102
v -1.375427 5.509514 3.714601
v -1.376852 5.502976 3.718482
v -1.377362 5.498653 3.723326
v -1.377102 5.496146 3.729076
v -1.376211 5.495056 3.735676
v -1.377541 5.495016 3.744150
v -1.373112 5.495541 3.751190
v -1.371188 5.496319 3.759991
v -1.366002 5.496246 3.769146
v -1.367301 5.496957 3.779389
v -1.369137 5.496816 3.790173
v -1.372845 5.518292 3.713892
v -1.365066 5.513830 3.714766
v -1.359653 5.509955 3.718703
v -1.356435 5.507067 3.723574
v -1.355036 5.504972 3.729325
v -1.355081 5.503477 3.735905
v -1.358900 5.502415 3.744344
v -1.357996 5.501507 3.751338
v -1.360114 5.500646 3.760087
v -1.358969 5.498930 3.769189
v -1.363789 5.498200 3.779383
v -1.368106 5.497022 3.790127
v -1.367721 5.494292 3.801029
v -1.380731 5.519898 3.718058
v -1.385544 5.519986 3.724144
v -1.387893 5.519255 3.730184
v -1.388178 5.517812 3.736290
v -1.386799 5.515765 3.742570
v -1.386863 5.513248 3.750220
v -1.380651 5.510285 3.756099
v -1.376685 5.507066 3.763569
v -1.369455 5.502993 3.771393
v -1.368967 5.500206 3.780471
v -1.369530 5.497573 3.790426
vt 0.000000 0.000000
vt 0.000000 0.000000
vt 0.000000 0.000000
vt 0.000000 0.000000
vt 0.000000 0.000000
vt 0.000000 0.000000
vt 0.000000 0.000000
vt 0.000000 0.000000
vt 0.000000 0.000000
vt 0.000000 0.000000
vt 0.000000 0.000000
vt 0.000000 0.000000
vt 0.000000 0.000000
vt 0.000000 0.000000
vt 0.000000 0.000000
vt 0.000000 0.000000
vt 0.000000 0.000000
vt 0.000000 0.000000
vt 0.000000 0.000000
vt 0.000000 0.000000
vt 0.000000 0.000000
vt 0.000000 0.000000
vt 0.000000 0.000000
vt 0.000000 0.000000
vt 0.000000 0.000000
vt 0.000000 0.000000
vt 0.000000 0.000000
vt 0.000000 0.000000
vt 0.000000 0.000000
vt 0.000000 0.000000
vt 0.000000 0.000000
vt 0.000000 0.000000
vt 0.000000 0.000000
vt 0.000000 0.000000
vt 0.000000 0.000000
vt 0.000000 0.000000
vt 0.000000 0.000000
vt 0.000000 0.000000
vt 0.000000 0.000000
vt 0.000000 0.000000
vt 0.000000 0.000000
vt 0.000000 0.000000
vt 0.000000 0.000000
vt 0.000000 0.000000
vt 0.000000 0.000000
vt 0.000000 0.000000
vt 0.000000 0.000000
vt 0.000000 0.000000
vt 0.000000 0.000000
vt 0.000000 0.000000
vt 0.000000 0.000000
vt 0.000000 0.000000
vt 0.000000 0.000000
vt 0.000000 0.000000
vt 0.000000 0.000000
vt 0.000000 0.000000
vt 0.000000 0.000000
vt 0.000000 0.000000
vt 0.000000 0.000000
vt 0.000000 0.000000
vt 0.000000 0.000000
vt 0.000000 0.000000
vt 0.000000 0.000000
vt 0.000000 0.000000
vt 0.000000 0.000000
vt 0.000000 0.000000
vt 0.000000 0.000000
vt 0.000000 0.000000
vt 0.000000 0.000000
vt 0.000000 0.000000
vt 0.000000 0.000000
vt 0.000000 0.000000
vt 0.000000 0.000000
vt 0.000000 0.000000
vt 0.000000 0.000000
vt 0.000000 0.000000
vt 0.000000 0.000000
vt 0.000000 0.000000
vt 0.000000 0.000000
vt 0.000000 0.000000
vt 0.000000 0.000000
vt 0.000000 0.000000
vt 0.000000 0.000000
vt 0.000000 0.000000
vt 0.000000 0.000000
vt 0.000000 0.000000
vt 0.000000 0.000000
vt 0.000000 0.000000
vt 0.000000 0.000000
vt 0.000000 0.000000
vt 0.000000 0.000000
vt 0.000000 0.000000
vt 0.000000 0.000000
vt 0.000000 0.000000
vt 0.000000 0.000000
vt 0.000000 0.000000
vn 0.3276 -0.9122 -0.2461
vn 0.3634 -0.8992 -0.2437
vn 0.3385 -0.9031 -0.2643
vn -0.9098 -0.3988 0.1154
vn -0.8790 -0.4216 0.2228
vn -0.9058 -0.4026 0.1322
vn -0.8964 0.3770 0.2331
vn -0.8783 0.4561 -0.1433
vn -0.3716 -0.9028 -0.2167
vn -0.3943 -0.8974 -0.1978
vn -0.3772 -0.9078 -0.1834
vn 0.3175 -0.7920 -0.5214
vn 0.3409 -0.8556 -0.3895
vn 0.3475 -0.8737 -0.3405
vn 0.3510 -0.8835 -0.3102
vn 0.3509 -0.8835 -0.3104
vn 0.3533 -0.8903 -0.2873
vn 0.3534 -0.8903 -0.2872
vn 0.3597 -0.9086 -0.2125
vn 0.3458 -0.8693 -0.3532
vn 0.3481 -0.8756 -0.3347
vn 0.3518 -0.8859 -0.3022
vn 0.3530 -0.8892 -0.2911
vn 0.3656 -0.9276 -0.0764
vn 0.3624 -0.9174 -0.1642
vn 0.3538 -0.8923 -0.2803
vn 0.3615 -0.9148 -0.1799
vn 0.3656 -0.9276 -0.0765
vn 0.3503 -0.8815 -0.3166
vn 0.3474 -0.8736 -0.3408
vn -0.0042 -0.9924 -0.1230
vn -0.9224 -0.2792 -0.2668
vn -0.9355 -0.3309 -0.1239
vn -0.9355 -0.3310 -0.1239
vn -0.9349 -0.3477 -0.0717
vn -0.9331 -0.3574 -0.0397
vn -0.9348 -0.3477 -0.0717
vn -0.9311 -0.3645 -0.0156
vn -0.9331 -0.3574 -0.0398
vn -0.9355 -0.3324 -0.1195
vn -0.9353 -0.3274 -0.1345
vn -0.9321 -0.3613 -0.0268
vn -0.8830 -0.4193 0.2111
vn -0.9186 -0.3883 0.0727
vn -0.9207 -0.3854 0.0612
vn -0.9237 -0.2822 -0.2591
vn -0.9345 -0.3203 -0.1552
vn -0.9304 -0.3665 -0.0084
vn -0.9351 -0.3249 -0.1416
vn -0.9235 -0.2817 -0.2604
vn -0.9311 -0.3645 -0.0157
vn -0.9331 -0.3574 -0.0399
vn -0.8937 0.3714 0.2518
vn -0.8846 0.3553 0.3020
vn -0.8846 0.3552 0.3021
vn -0.8456 0.3047 0.4383
vn -0.8980 0.3807 0.2207
vn -0.9006 0.3874 0.1971
vn -0.9039 0.4260 0.0385
vn -0.9045 0.4235 0.0506
vn -0.9053 0.4081 0.1181
vn -0.9050 0.4057 0.1281
vn -0.8654 0.3281 0.3788
vn -0.8883 0.3613 0.2835
vn -0.8868 0.3588 0.2913
vn -0.8678 0.3312 0.3706
vn -0.8957 0.3754 0.2384
vn -0.9023 0.4310 0.0136
vn -0.9013 0.3893 0.1900
vn -0.9018 0.4322 0.0073
vn -0.4032 -0.7923 -0.4579
vn -0.4001 -0.8579 -0.3223
vn -0.4001 -0.8580 -0.3221
vn -0.3968 -0.8766 -0.2721
vn -0.3942 -0.8868 -0.2411
vn -0.3920 -0.8939 -0.2176
vn -0.3940 -0.8876 -0.2384
vn -0.3804 -0.9171 -0.1195
vn -0.3853 -0.9093 -0.1571
vn -0.3873 -0.9055 -0.1736
vn -0.3878 -0.9044 -0.1781
vn -0.3952 -0.8834 -0.2520
vn -0.3938 -0.8882 -0.2368
vn -0.3914 -0.8958 -0.2105
vn -0.3934 -0.8894 -0.2326
vn -0.3952 -0.8830 -0.2531
vn -0.3862 -0.9078 -0.1639
vn -0.3968 -0.8766 -0.2722
vn -0.1542 -0.9381 -0.3101
g Flame1t_BezierCurve.010_None
usemtl None
s 1
f 18/1/1 7/2/2 20/3/3
f 45/4/4 44/5/5 33/6/6
f 70/7/7 71/8/8 59/9/8
f 90/10/9 79/11/10 92/12/11
f 1/13/12 2/14/13 14/15/13
f 2/14/13 3/16/14 14/15/13
f 3/16/14 4/17/15 16/18/16
f 4/17/15 5/19/17 17/20/18
f 5/19/17 6/21/19 18/1/1
f 6/21/19 7/2/2 18/1/1
f 7/2/2 8/22/20 20/3/3
f 8/22/20 9/23/21 20/3/3
f 9/23/21 10/24/22 22/25/23
f 10/24/22 11/26/24 22/25/23
f 12/27/25 13/28/26 24/29/27
f 11/26/24 12/27/25 23/30/28
f 22/25/23 11/26/24 23/30/28
f 4/17/15 17/20/18 16/18/16
f 12/27/25 24/29/27 23/30/28
f 22/25/23 21/31/29 9/23/21
f 21/31/29 20/3/3 9/23/21
f 5/19/17 18/1/1 17/20/18
f 16/18/16 15/32/30 3/16/14
f 15/32/30 14/15/13 3/16/14
f 20/3/3 19/33/31 18/1/1
f 25/34/32 26/35/33 38/36/34
f 26/35/33 27/37/35 38/36/34
f 27/37/35 28/38/36 39/39/37
f 28/38/36 29/40/38 40/41/39
f 39/39/37 28/38/36 40/41/39
f 29/40/38 30/42/40 42/43/41
f 30/42/40 31/44/42 42/43/41
f 31/44/42 32/45/43 44/5/5
f 32/45/43 33/6/6 44/5/5
f 33/6/6 34/46/44 46/47/45
f 34/46/44 35/48/46 46/47/45
f 36/49/47 37/50/48 48/51/49
f 35/48/46 36/49/47 47/52/50
f 46/47/45 35/48/46 47/52/50
f 39/39/37 38/36/34 27/37/35
f 41/53/51 40/41/39 29/40/38
f 44/5/5 43/54/52 31/44/42
f 43/54/52 42/43/41 31/44/42
f 42/43/41 41/53/51 29/40/38
f 36/49/47 48/51/49 47/52/50
f 46/47/45 45/4/4 33/6/6
f 51/55/53 50/56/54 62/57/55
f 50/56/54 49/58/56 62/57/55
f 62/57/55 63/59/53 51/55/53
f 63/59/53 64/60/57 52/61/57
f 64/60/57 65/62/58 52/61/57
f 65/62/58 66/63/59 54/64/60
f 66/63/59 67/65/61 55/66/62
f 68/67/63 69/68/64 57/69/65
f 69/68/64 70/7/7 57/69/65
f 66/63/59 55/66/62 54/64/60
f 67/65/61 68/67/63 55/66/62
f 52/61/57 51/55/53 63/59/53
f 54/64/60 53/70/58 65/62/58
f 53/70/58 52/61/57 65/62/58
f 57/69/65 56/71/66 68/67/63
f 56/71/66 55/66/62 68/67/63
f 59/9/8 58/72/67 70/7/7
f 58/72/67 57/69/65 70/7/7
f 72/73/68 61/74/69 60/75/70
f 72/73/68 60/75/70 71/8/8
f 60/75/70 59/9/8 71/8/8
f 73/76/71 74/77/72 86/78/73
f 74/77/72 75/79/74 86/78/73
f 75/79/74 76/80/75 88/81/75
f 76/80/75 77/82/76 89/83/76
f 77/82/76 78/84/77 90/10/9
f 78/84/77 79/11/10 90/10/9
f 79/11/10 80/85/78 92/12/11
f 80/85/78 81/86/79 92/12/11
f 81/86/79 82/87/80 94/88/81
f 82/87/80 83/89/82 94/88/81
f 84/90/83 85/91/84 96/92/85
f 83/89/82 84/90/83 95/93/86
f 94/88/81 83/89/82 95/93/86
f 76/80/75 89/83/76 88/81/75
f 84/90/83 96/92/85 95/93/86
f 94/88/81 93/94/87 81/86/79
f 93/94/87 92/12/11 81/86/79
f 77/82/76 90/10/9 89/83/76
f 88/81/75 87/95/88 75/79/74
f 87/95/88 86/78/73 75/79/74
f 92/12/11 91/96/89 90/10/9
