# Blender v3.6.19 OBJ File: 'Candles_v1.blend'
# www.blender.org
mtllib Candle2.mtl
o Candle2_Cylinder
v 1.156348 -0.536554 2.016057
v 1.156348 -0.536554 2.519134
v 1.173166 -0.538210 2.016057
v 1.173166 -0.538210 2.519134
v 1.189337 -0.543116 2.016057
v 1.189337 -0.543116 2.519134
v 1.204241 -0.551082 2.016057
v 1.204241 -0.551082 2.519134
v 1.217304 -0.561803 2.016057
v 1.217304 -0.561803 2.519134
v 1.228025 -0.574866 2.016057
v 1.228025 -0.574866 2.519134
v 1.235991 -0.589770 2.016057
v 1.235991 -0.589770 2.519134
v 1.240897 -0.605941 2.016057
v 1.240897 -0.605941 2.519134
v 1.242553 -0.622759 2.016057
v 1.242553 -0.622759 2.519134
v 1.240897 -0.639577 2.016057
v 1.240897 -0.639577 2.519134
v 1.235991 -0.655748 2.016057
v 1.235991 -0.655748 2.519134
v 1.228025 -0.670652 2.016057
v 1.228025 -0.670652 2.519134
v 1.217304 -0.683715 2.016057
v 1.217304 -0.683715 2.519134
v 1.204241 -0.694436 2.016057
v 1.204241 -0.694436 2.519134
v 1.189337 -0.702402 2.016057
v 1.189337 -0.702402 2.519134
v 1.173166 -0.707307 2.016057
v 1.173166 -0.707307 2.519134
v 1.156348 -0.708964 2.016057
v 1.156348 -0.708964 2.519134
v 1.139530 -0.707307 2.016057
v 1.139530 -0.707307 2.519134
v 1.123359 -0.702402 2.016057
v 1.123359 -0.702402 2.519134
v 1.108455 -0.694436 2.016057
v 1.108455 -0.694436 2.519134
v 1.095392 -0.683715 2.016057
v 1.095392 -0.683715 2.519134
v 1.084671 -0.670652 2.016057
v 1.084671 -0.670652 2.519134
v 1.076705 -0.655748 2.016057
v 1.076705 -0.655748 2.519134
v 1.071799 -0.639577 2.016057
v 1.071799 -0.639577 2.519134
v 1.070143 -0.622759 2.016057
v 1.070143 -0.622759 2.519134
v 1.071799 -0.605941 2.016057
v 1.071799 -0.605941 2.519134
v 1.076705 -0.589770 2.016057
v 1.076705 -0.589770 2.519134
v 1.084671 -0.574866 2.016057
v 1.084671 -0.574866 2.519134
v 1.095392 -0.561803 2.016057
v 1.095392 -0.561803 2.519134
v 1.108455 -0.551082 2.016057
v 1.108455 -0.551082 2.519134
v 1.123359 -0.543116 2.016057
v 1.123359 -0.543116 2.519134
v 1.139530 -0.538210 2.016057
v 1.139530 -0.538210 2.519134
v 1.173166 -0.538210 2.519134
v 1.156348 -0.536554 2.519134
v 1.189337 -0.543116 2.519134
v 1.204241 -0.551082 2.519134
v 1.217304 -0.561803 2.519134
v 1.228025 -0.574866 2.519134
v 1.235991 -0.589770 2.519134
v 1.240897 -0.605941 2.519134
v 1.242553 -0.622759 2.519134
v 1.240897 -0.639577 2.519134
v 1.235991 -0.655748 2.519134
v 1.228025 -0.670652 2.519134
v 1.217304 -0.683715 2.519134
v 1.204241 -0.694436 2.519134
v 1.189337 -0.702402 2.519134
v 1.173166 -0.707307 2.519134
v 1.156348 -0.708964 2.519134
v 1.139530 -0.707307 2.519134
v 1.123359 -0.702402 2.519134
v 1.108455 -0.694436 2.519134
v 1.095392 -0.683715 2.519134
v 1.084671 -0.670652 2.519134
v 1.076705 -0.655748 2.519134
v 1.071799 -0.639577 2.519134
v 1.070143 -0.622759 2.519134
v 1.071799 -0.605941 2.519134
v 1.076705 -0.589770 2.519134
v 1.084671 -0.574866 2.519134
v 1.095392 -0.561803 2.519134
v 1.108455 -0.551082 2.519134
v 1.123359 -0.543116 2.519134
v 1.139530 -0.538210 2.519134
v 1.173166 -0.538210 2.519134
v 1.156348 -0.536554 2.519134
v 1.189337 -0.543116 2.519134
v 1.204241 -0.551082 2.519134
v 1.217304 -0.561803 2.519134
v 1.228025 -0.574866 2.519134
v 1.235991 -0.589770 2.519134
v 1.240897 -0.605941 2.519134
v 1.242553 -0.622759 2.519134
v 1.240897 -0.639577 2.519134
v 1.235991 -0.655748 2.519134
v 1.228025 -0.670652 2.519134
v 1.217304 -0.683715 2.519134
v 1.204241 -0.694436 2.519134
v 1.189337 -0.702402 2.519134
v 1.173166 -0.707307 2.519134
v 1.156348 -0.708964 2.519134
v 1.139530 -0.707307 2.519134
v 1.123359 -0.702402 2.519134
v 1.108455 -0.694436 2.519134
v 1.095392 -0.683715 2.519134
v 1.084671 -0.670652 2.519134
v 1.076705 -0.655748 2.519134
v 1.071799 -0.639577 2.519134
v 1.070143 -0.622759 2.519134
v 1.071799 -0.605941 2.519134
v 1.076705 -0.589770 2.519134
v 1.084671 -0.574866 2.519134
v 1.095392 -0.561803 2.519134
v 1.108455 -0.551082 2.519134
v 1.123359 -0.543116 2.519134
v 1.139530 -0.538210 2.519134
v 1.173166 -0.538210 2.519134
v 1.156348 -0.536554 2.519134
v 1.189337 -0.543116 2.519134
v 1.204241 -0.551082 2.519134
v 1.217304 -0.561803 2.519134
v 1.228025 -0.574866 2.519134
v 1.235991 -0.589770 2.519134
v 1.240897 -0.605941 2.519134
v 1.242553 -0.622759 2.519134
v 1.240897 -0.639577 2.519134
v 1.235991 -0.655748 2.519134
v 1.228025 -0.670652 2.519134
v 1.217304 -0.683715 2.519134
v 1.204241 -0.694436 2.519134
v 1.189337 -0.702402 2.519134
v 1.173166 -0.707307 2.519134
v 1.156348 -0.708964 2.519134
v 1.139530 -0.707307 2.519134
v 1.123359 -0.702402 2.519134
v 1.108455 -0.694436 2.519134
v 1.095392 -0.683715 2.519134
v 1.084671 -0.670652 2.519134
v 1.076705 -0.655748 2.519134
v 1.071799 -0.639577 2.519134
v 1.070143 -0.622759 2.519134
v 1.071799 -0.605941 2.519134
v 1.076705 -0.589770 2.519134
v 1.084671 -0.574866 2.519134
v 1.095392 -0.561803 2.519134
v 1.108455 -0.551082 2.519134
v 1.123359 -0.543116 2.519134
v 1.139530 -0.538210 2.519134
vt 1.000000 1.000000
vt 0.968750 0.500000
vt 1.000000 0.500000
vt 0.968750 1.000000
vt 0.937500 0.500000
vt 0.937500 1.000000
vt 0.906250 0.500000
vt 0.906250 1.000000
vt 0.875000 0.500000
vt 0.875000 1.000000
vt 0.843750 0.500000
vt 0.843750 1.000000
vt 0.812500 0.500000
vt 0.812500 1.000000
vt 0.781250 0.500000
vt 0.781250 1.000000
vt 0.750000 0.500000
vt 0.750000 1.000000
vt 0.718750 0.500000
vt 0.718750 1.000000
vt 0.687500 0.500000
vt 0.687500 1.000000
vt 0.656250 0.500000
vt 0.656250 1.000000
vt 0.625000 0.500000
vt 0.625000 1.000000
vt 0.593750 0.500000
vt 0.593750 1.000000
vt 0.562500 0.500000
vt 0.562500 1.000000
vt 0.531250 0.500000
vt 0.531250 1.000000
vt 0.500000 0.500000
vt 0.500000 1.000000
vt 0.468750 0.500000
vt 0.468750 1.000000
vt 0.437500 0.500000
vt 0.437500 1.000000
vt 0.406250 0.500000
vt 0.406250 1.000000
vt 0.375000 0.500000
vt 0.375000 1.000000
vt 0.343750 0.500000
vt 0.343750 1.000000
vt 0.312500 0.500000
vt 0.312500 1.000000
vt 0.281250 0.500000
vt 0.281250 1.000000
vt 0.250000 0.500000
vt 0.250000 1.000000
vt 0.218750 0.500000
vt 0.218750 1.000000
vt 0.187500 0.500000
vt 0.187500 1.000000
vt 0.156250 0.500000
vt 0.156250 1.000000
vt 0.125000 0.500000
vt 0.125000 1.000000
vt 0.093750 0.500000
vt 0.093750 1.000000
vt 0.062500 0.500000
vt 0.218750 1.000000
vt 0.187500 1.000000
vt 0.062500 1.000000
vt 0.031250 0.500000
vt 0.031250 1.000000
vt 0.000000 0.500000
vt 0.796822 0.014612
vt 0.514612 0.203178
vt 0.703178 0.485388
vt 0.718750 1.000000
vt 0.750000 1.000000
vt 0.718750 1.000000
vt 0.906250 1.000000
vt 0.875000 1.000000
vt 0.625000 1.000000
vt 0.593750 1.000000
vt 0.343750 1.000000
vt 0.312500 1.000000
vt 0.062500 1.000000
vt 0.031250 1.000000
vt 0.750000 1.000000
vt 0.468750 1.000000
vt 0.437500 1.000000
vt 0.156250 1.000000
vt 0.843750 1.000000
vt 0.562500 1.000000
vt 0.281250 1.000000
vt 1.000000 1.000000
vt 0.968750 1.000000
vt 0.000000 1.000000
vt 0.000000 1.000000
vt 0.687500 1.000000
vt 0.406250 1.000000
vt 0.125000 1.000000
vt 0.812500 1.000000
vt 0.531250 1.000000
vt 0.250000 1.000000
vt 0.937500 1.000000
vt 0.656250 1.000000
vt 0.375000 1.000000
vt 0.093750 1.000000
vt 0.781250 1.000000
vt 0.500000 1.000000
vt 0.625000 1.000000
vt 0.656250 1.000000
vt 0.625000 1.000000
vt 0.312500 1.000000
vt 0.281250 1.000000
vt 0.687500 1.000000
vt 0.250000 1.000000
vt 0.656250 1.000000
vt 0.218750 1.000000
vt 0.187500 1.000000
vt 0.593750 1.000000
vt 0.156250 1.000000
vt 0.562500 1.000000
vt 1.000000 1.000000
vt 0.968750 1.000000
vt 0.125000 1.000000
vt 0.531250 1.000000
vt 0.937500 1.000000
vt 0.093750 1.000000
vt 0.500000 1.000000
vt 0.906250 1.000000
vt 0.062500 1.000000
vt 0.468750 1.000000
vt 0.875000 1.000000
vt 0.031250 1.000000
vt 0.437500 1.000000
vt 0.843750 1.000000
vt 0.000000 1.000000
vt 0.406250 1.000000
vt 0.812500 1.000000
vt 0.375000 1.000000
vt 0.781250 1.000000
vt 0.343750 1.000000
vt 0.158156 0.028269
vt 0.471731 0.158156
vt 0.341844 0.471731
vt 0.218750 1.000000
vt 0.187500 1.000000
vt 0.593750 1.000000
vt 0.156250 1.000000
vt 0.562500 1.000000
vt 1.000000 1.000000
vt 0.968750 1.000000
vt 0.125000 1.000000
vt 0.531250 1.000000
vt 0.937500 1.000000
vt 0.093750 1.000000
vt 0.500000 1.000000
vt 0.906250 1.000000
vt 0.062500 1.000000
vt 0.468750 1.000000
vt 0.875000 1.000000
vt 0.031250 1.000000
vt 0.437500 1.000000
vt 0.843750 1.000000
vt 0.000000 1.000000
vt 0.406250 1.000000
vt 0.812500 1.000000
vt 0.375000 1.000000
vt 0.781250 1.000000
vt 0.343750 1.000000
vt 0.750000 1.000000
vt 0.312500 1.000000
vt 0.718750 1.000000
vt 0.281250 1.000000
vt 0.687500 1.000000
vt 0.250000 1.000000
vt 0.750000 0.490000
vt 0.796822 0.485388
vt 0.841844 0.471731
vt 0.883337 0.449553
vt 0.919706 0.419706
vt 0.949553 0.383337
vt 0.971731 0.341844
vt 0.985388 0.296822
vt 0.990000 0.250000
vt 0.985388 0.203178
vt 0.971731 0.158156
vt 0.949553 0.116663
vt 0.919706 0.080294
vt 0.883337 0.050447
vt 0.841844 0.028269
vt 0.750000 0.010000
vt 0.703178 0.014612
vt 0.658156 0.028269
vt 0.616663 0.050447
vt 0.580294 0.080294
vt 0.550447 0.116663
vt 0.528269 0.158156
vt 0.510000 0.250000
vt 0.514612 0.296822
vt 0.528269 0.341844
vt 0.550447 0.383337
vt 0.580294 0.419706
vt 0.616663 0.449553
vt 0.658156 0.471731
vt 0.296822 0.485388
vt 0.250000 0.490000
vt 0.203178 0.485388
vt 0.158156 0.471731
vt 0.116663 0.449553
vt 0.080294 0.419706
vt 0.050447 0.383337
vt 0.028269 0.341844
vt 0.014612 0.296822
vt 0.010000 0.250000
vt 0.014612 0.203178
vt 0.028269 0.158156
vt 0.050447 0.116663
vt 0.080294 0.080294
vt 0.116663 0.050447
vt 0.203178 0.014612
vt 0.341844 0.028269
vt 0.250000 0.010000
vt 0.296822 0.014612
vt 0.383337 0.050447
vt 0.419706 0.080294
vt 0.449553 0.116663
vt 0.485388 0.203178
vt 0.471731 0.341844
vt 0.490000 0.250000
vt 0.485388 0.296822
vt 0.449553 0.383337
vt 0.419706 0.419706
vt 0.383337 0.449553
vn -0.0000 0.7054 0.7088
vn 0.1420 0.7139 -0.6857
vn -0.0000 0.7279 -0.6857
vn 0.1376 0.6918 0.7089
vn 0.2786 0.6725 -0.6857
vn 0.2699 0.6517 0.7088
vn 0.4044 0.6052 -0.6857
vn 0.3919 0.5865 0.7088
vn 0.5147 0.5147 -0.6857
vn 0.4988 0.4988 0.7088
vn 0.6052 0.4044 -0.6857
vn 0.5865 0.3919 0.7088
vn 0.6725 0.2785 -0.6857
vn 0.6517 0.2699 0.7088
vn 0.7139 0.1420 -0.6857
vn 0.6918 0.1376 0.7088
vn 0.7279 -0.0000 -0.6857
vn 0.7054 0.0000 0.7088
vn 0.7139 -0.1420 -0.6857
vn 0.6918 -0.1376 0.7088
vn 0.6725 -0.2785 -0.6857
vn 0.6517 -0.2699 0.7088
vn 0.6052 -0.4044 -0.6857
vn 0.5865 -0.3919 0.7088
vn 0.5147 -0.5147 -0.6857
vn 0.4988 -0.4988 0.7088
vn 0.4044 -0.6052 -0.6857
vn 0.3919 -0.5865 0.7088
vn 0.2786 -0.6725 -0.6857
vn 0.2699 -0.6517 0.7088
vn 0.1420 -0.7139 -0.6857
vn 0.1376 -0.6918 0.7088
vn -0.0000 -0.7279 -0.6857
vn -0.0000 -0.7054 0.7088
vn -0.1420 -0.7139 -0.6857
vn -0.1376 -0.6918 0.7089
vn -0.2786 -0.6725 -0.6857
vn -0.2699 -0.6517 0.7088
vn -0.4044 -0.6052 -0.6857
vn -0.3919 -0.5865 0.7088
vn -0.5147 -0.5147 -0.6857
vn -0.4988 -0.4988 0.7088
vn -0.6052 -0.4044 -0.6857
vn -0.5865 -0.3919 0.7088
vn -0.6725 -0.2786 -0.6857
vn -0.6517 -0.2699 0.7088
vn -0.7139 -0.1420 -0.6857
vn -0.6918 -0.1376 0.7088
vn -0.7279 0.0000 -0.6857
vn -0.7054 -0.0000 0.7088
vn -0.7139 0.1420 -0.6857
vn -0.6918 0.1376 0.7088
vn -0.6725 0.2785 -0.6857
vn -0.6517 0.2700 0.7088
vn -0.6052 0.4044 -0.6857
vn -0.5865 0.3919 0.7088
vn -0.5147 0.5147 -0.6857
vn -0.4988 0.4988 0.7088
vn -0.4044 0.6052 -0.6857
vn -0.3919 0.5865 0.7088
vn -0.2785 0.6725 -0.6857
vn 0.0000 0.0000 1.0000
vn -0.2699 0.6517 0.7088
vn -0.1420 0.7139 -0.6857
vn -0.1376 0.6918 0.7088
vn 0.0001 0.0000 1.0000
vn -0.0001 0.0000 1.0000
g Candle2_Cylinder_None
usemtl None
s 1
f 2/1/1 3/2/2 1/3/3
f 4/4/4 5/5/5 3/2/2
f 6/6/6 7/7/7 5/5/5
f 8/8/8 9/9/9 7/7/7
f 10/10/10 11/11/11 9/9/9
f 12/12/12 13/13/13 11/11/11
f 14/14/14 15/15/15 13/13/13
f 16/16/16 17/17/17 15/15/15
f 18/18/18 19/19/19 17/17/17
f 20/20/20 21/21/21 19/19/19
f 22/22/22 23/23/23 21/21/21
f 24/24/24 25/25/25 23/23/23
f 26/26/26 27/27/27 25/25/25
f 28/28/28 29/29/29 27/27/27
f 30/30/30 31/31/31 29/29/29
f 32/32/32 33/33/33 31/31/31
f 34/34/34 35/35/35 33/33/33
f 36/36/36 37/37/37 35/35/35
f 38/38/38 39/39/39 37/37/37
f 40/40/40 41/41/41 39/39/39
f 42/42/42 43/43/43 41/41/41
f 44/44/44 45/45/45 43/43/43
f 46/46/46 47/47/47 45/45/45
f 48/48/48 49/49/49 47/47/47
f 50/50/50 51/51/51 49/49/49
f 52/52/52 53/53/53 51/51/51
f 54/54/54 55/55/55 53/53/53
f 56/56/56 57/57/57 55/55/55
f 58/58/58 59/59/59 57/57/57
f 60/60/60 61/61/61 59/59/59
f 54/54/54 90/62/62 91/63/62
f 62/64/63 63/65/64 61/61/61
f 64/66/65 1/67/3 63/65/64
f 31/68/31 47/69/47 63/70/64
f 74/71/62 105/72/62 106/73/62
f 10/10/10 68/74/62 69/75/62
f 28/28/28 77/76/62 78/77/62
f 46/46/46 86/78/62 87/79/62
f 64/66/65 95/80/62 96/81/62
f 20/20/20 73/82/62 74/71/62
f 38/38/38 82/83/62 83/84/62
f 56/56/56 91/63/62 92/85/62
f 12/12/12 69/75/62 70/86/62
f 30/30/30 78/77/62 79/87/62
f 48/48/48 87/79/62 88/88/62
f 4/4/4 66/89/62 65/90/62
f 2/91/1 96/81/62 66/92/62
f 22/22/22 74/71/62 75/93/62
f 40/40/40 83/84/62 84/94/62
f 58/58/58 92/85/62 93/95/62
f 14/14/14 70/86/62 71/96/62
f 32/32/32 79/87/62 80/97/62
f 50/50/50 88/88/62 89/98/62
f 6/6/6 65/90/62 67/99/62
f 24/24/24 75/93/62 76/100/62
f 42/42/42 84/94/62 85/101/62
f 60/60/60 93/95/62 94/102/62
f 16/16/16 71/96/62 72/103/62
f 34/34/34 80/97/62 81/104/62
f 52/52/52 89/98/62 90/62/62
f 8/8/8 67/99/62 68/74/62
f 26/26/26 76/100/62 77/76/62
f 44/44/44 85/101/62 86/78/62
f 62/64/63 94/102/62 95/80/62
f 18/18/18 72/103/62 73/82/62
f 36/36/36 81/104/62 82/83/62
f 109/105/62 140/106/66 141/107/62
f 88/88/62 119/108/62 120/109/62
f 75/93/62 106/73/62 107/110/62
f 89/98/62 120/109/62 121/111/62
f 76/100/62 107/110/62 108/112/62
f 90/62/62 121/111/62 122/113/62
f 77/76/62 108/112/62 109/105/62
f 91/63/62 122/113/62 123/114/62
f 78/77/62 109/105/62 110/115/62
f 92/85/62 123/114/62 124/116/62
f 79/87/62 110/115/62 111/117/62
f 65/90/62 98/118/62 97/119/62
f 93/95/62 124/116/62 125/120/62
f 80/97/62 111/117/62 112/121/62
f 67/99/62 97/119/62 99/122/62
f 94/102/62 125/120/62 126/123/62
f 81/104/62 112/121/62 113/124/62
f 68/74/62 99/122/62 100/125/62
f 95/80/62 126/123/62 127/126/62
f 82/83/62 113/124/62 114/127/62
f 69/75/62 100/125/62 101/128/62
f 96/81/62 127/126/62 128/129/62
f 83/84/62 114/127/62 115/130/62
f 70/86/62 101/128/62 102/131/62
f 66/92/62 128/129/62 98/132/62
f 84/94/62 115/130/62 116/133/62
f 71/96/62 102/131/62 103/134/62
f 85/101/62 116/133/62 117/135/62
f 72/103/62 103/134/62 104/136/62
f 86/78/62 117/135/62 118/137/62
f 73/82/62 104/136/62 105/72/62
f 87/79/62 118/137/62 119/108/62
f 147/138/62 139/139/62 131/140/62
f 123/114/62 154/141/66 155/142/62
f 110/115/62 141/107/62 142/143/62
f 124/116/62 155/142/62 156/144/67
f 111/117/62 142/143/62 143/145/62
f 97/119/62 130/146/62 129/147/62
f 125/120/62 156/144/67 157/148/62
f 112/121/62 143/145/62 144/149/62
f 99/122/62 129/147/62 131/150/62
f 126/123/62 157/148/62 158/151/62
f 113/124/62 144/149/62 145/152/62
f 100/125/62 131/150/62 132/153/62
f 127/126/62 158/151/62 159/154/62
f 114/127/62 145/152/62 146/155/62
f 101/128/62 132/153/62 133/156/62
f 128/129/62 159/154/62 160/157/62
f 115/130/62 146/155/62 147/158/62
f 102/131/62 133/156/62 134/159/66
f 98/132/62 160/157/62 130/160/62
f 116/133/62 147/158/62 148/161/62
f 103/134/62 134/159/66 135/162/62
f 117/135/62 148/161/62 149/163/62
f 104/136/62 135/162/62 136/164/67
f 118/137/62 149/163/62 150/165/67
f 105/72/62 136/164/67 137/166/62
f 119/108/62 150/165/67 151/167/62
f 106/73/62 137/166/62 138/168/62
f 120/109/62 151/167/62 152/169/62
f 107/110/62 138/168/62 139/170/62
f 121/111/62 152/169/62 153/171/67
f 108/112/62 139/170/62 140/106/66
f 122/113/62 153/171/67 154/141/66
f 2/1/1 4/4/4 3/2/2
f 4/4/4 6/6/6 5/5/5
f 6/6/6 8/8/8 7/7/7
f 8/8/8 10/10/10 9/9/9
f 10/10/10 12/12/12 11/11/11
f 12/12/12 14/14/14 13/13/13
f 14/14/14 16/16/16 15/15/15
f 16/16/16 18/18/18 17/17/17
f 18/18/18 20/20/20 19/19/19
f 20/20/20 22/22/22 21/21/21
f 22/22/22 24/24/24 23/23/23
f 24/24/24 26/26/26 25/25/25
f 26/26/26 28/28/28 27/27/27
f 28/28/28 30/30/30 29/29/29
f 30/30/30 32/32/32 31/31/31
f 32/32/32 34/34/34 33/33/33
f 34/34/34 36/36/36 35/35/35
f 36/36/36 38/38/38 37/37/37
f 38/38/38 40/40/40 39/39/39
f 40/40/40 42/42/42 41/41/41
f 42/42/42 44/44/44 43/43/43
f 44/44/44 46/46/46 45/45/45
f 46/46/46 48/48/48 47/47/47
f 48/48/48 50/50/50 49/49/49
f 50/50/50 52/52/52 51/51/51
f 52/52/52 54/54/54 53/53/53
f 54/54/54 56/56/56 55/55/55
f 56/56/56 58/58/58 57/57/57
f 58/58/58 60/60/60 59/59/59
f 60/60/60 62/64/63 61/61/61
f 54/54/54 52/52/52 90/62/62
f 62/64/63 64/66/65 63/65/64
f 64/66/65 2/91/1 1/67/3
f 63/70/64 1/172/3 3/173/2
f 3/173/2 5/174/5 7/175/7
f 7/175/7 9/176/9 11/177/11
f 11/177/11 13/178/13 15/179/15
f 15/179/15 17/180/17 19/181/19
f 19/181/19 21/182/21 23/183/23
f 23/183/23 25/184/25 27/185/27
f 27/185/27 29/186/29 31/68/31
f 31/68/31 33/187/33 35/188/35
f 35/188/35 37/189/37 39/190/39
f 39/190/39 41/191/41 43/192/43
f 43/192/43 45/193/45 47/69/47
f 47/69/47 49/194/49 51/195/51
f 51/195/51 53/196/53 55/197/55
f 55/197/55 57/198/57 59/199/59
f 59/199/59 61/200/61 63/70/64
f 63/70/64 3/173/2 15/179/15
f 3/173/2 7/175/7 15/179/15
f 7/175/7 11/177/11 15/179/15
f 15/179/15 19/181/19 31/68/31
f 19/181/19 23/183/23 31/68/31
f 23/183/23 27/185/27 31/68/31
f 31/68/31 35/188/35 47/69/47
f 35/188/35 39/190/39 47/69/47
f 39/190/39 43/192/43 47/69/47
f 47/69/47 51/195/51 63/70/64
f 51/195/51 55/197/55 63/70/64
f 55/197/55 59/199/59 63/70/64
f 63/70/64 15/179/15 31/68/31
f 74/71/62 73/82/62 105/72/62
f 10/10/10 8/8/8 68/74/62
f 28/28/28 26/26/26 77/76/62
f 46/46/46 44/44/44 86/78/62
f 64/66/65 62/64/63 95/80/62
f 20/20/20 18/18/18 73/82/62
f 38/38/38 36/36/36 82/83/62
f 56/56/56 54/54/54 91/63/62
f 12/12/12 10/10/10 69/75/62
f 30/30/30 28/28/28 78/77/62
f 48/48/48 46/46/46 87/79/62
f 4/4/4 2/1/1 66/89/62
f 2/91/1 64/66/65 96/81/62
f 22/22/22 20/20/20 74/71/62
f 40/40/40 38/38/38 83/84/62
f 58/58/58 56/56/56 92/85/62
f 14/14/14 12/12/12 70/86/62
f 32/32/32 30/30/30 79/87/62
f 50/50/50 48/48/48 88/88/62
f 6/6/6 4/4/4 65/90/62
f 24/24/24 22/22/22 75/93/62
f 42/42/42 40/40/40 84/94/62
f 60/60/60 58/58/58 93/95/62
f 16/16/16 14/14/14 71/96/62
f 34/34/34 32/32/32 80/97/62
f 52/52/52 50/50/50 89/98/62
f 8/8/8 6/6/6 67/99/62
f 26/26/26 24/24/24 76/100/62
f 44/44/44 42/42/42 85/101/62
f 62/64/63 60/60/60 94/102/62
f 18/18/18 16/16/16 72/103/62
f 36/36/36 34/34/34 81/104/62
f 109/105/62 108/112/62 140/106/66
f 88/88/62 87/79/62 119/108/62
f 75/93/62 74/71/62 106/73/62
f 89/98/62 88/88/62 120/109/62
f 76/100/62 75/93/62 107/110/62
f 90/62/62 89/98/62 121/111/62
f 77/76/62 76/100/62 108/112/62
f 91/63/62 90/62/62 122/113/62
f 78/77/62 77/76/62 109/105/62
f 92/85/62 91/63/62 123/114/62
f 79/87/62 78/77/62 110/115/62
f 65/90/62 66/89/62 98/118/62
f 93/95/62 92/85/62 124/116/62
f 80/97/62 79/87/62 111/117/62
f 67/99/62 65/90/62 97/119/62
f 94/102/62 93/95/62 125/120/62
f 81/104/62 80/97/62 112/121/62
f 68/74/62 67/99/62 99/122/62
f 95/80/62 94/102/62 126/123/62
f 82/83/62 81/104/62 113/124/62
f 69/75/62 68/74/62 100/125/62
f 96/81/62 95/80/62 127/126/62
f 83/84/62 82/83/62 114/127/62
f 70/86/62 69/75/62 101/128/62
f 66/92/62 96/81/62 128/129/62
f 84/94/62 83/84/62 115/130/62
f 71/96/62 70/86/62 102/131/62
f 85/101/62 84/94/62 116/133/62
f 72/103/62 71/96/62 103/134/62
f 86/78/62 85/101/62 117/135/62
f 73/82/62 72/103/62 104/136/62
f 87/79/62 86/78/62 118/137/62
f 131/140/62 129/201/62 130/202/62
f 130/202/62 160/203/62 131/140/62
f 160/203/62 159/204/62 131/140/62
f 159/204/62 158/205/62 157/206/62
f 157/206/62 156/207/67 155/208/62
f 155/208/62 154/209/66 153/210/67
f 153/210/67 152/211/62 155/208/62
f 152/211/62 151/212/62 155/208/62
f 151/212/62 150/213/67 149/214/62
f 149/214/62 148/215/62 147/138/62
f 147/138/62 146/216/62 143/217/62
f 146/216/62 145/218/62 143/217/62
f 145/218/62 144/219/62 143/217/62
f 143/217/62 142/220/62 141/221/62
f 141/221/62 140/222/66 139/139/62
f 139/139/62 138/223/62 135/224/62
f 138/223/62 137/225/62 135/224/62
f 137/225/62 136/226/67 135/224/62
f 135/224/62 134/227/66 133/228/62
f 133/228/62 132/229/62 131/140/62
f 159/204/62 157/206/62 131/140/62
f 157/206/62 155/208/62 131/140/62
f 151/212/62 149/214/62 155/208/62
f 149/214/62 147/138/62 155/208/62
f 143/217/62 141/221/62 147/138/62
f 141/221/62 139/139/62 147/138/62
f 135/224/62 133/228/62 139/139/62
f 133/228/62 131/140/62 139/139/62
f 131/140/62 155/208/62 147/138/62
f 123/114/62 122/113/62 154/141/66
f 110/115/62 109/105/62 141/107/62
f 124/116/62 123/114/62 155/142/62
f 111/117/62 110/115/62 142/143/62
f 97/119/62 98/118/62 130/146/62
f 125/120/62 124/116/62 156/144/67
f 112/121/62 111/117/62 143/145/62
f 99/122/62 97/119/62 129/147/62
f 126/123/62 125/120/62 157/148/62
f 113/124/62 112/121/62 144/149/62
f 100/125/62 99/122/62 131/150/62
f 127/126/62 126/123/62 158/151/62
f 114/127/62 113/124/62 145/152/62
f 101/128/62 100/125/62 132/153/62
f 128/129/62 127/126/62 159/154/62
f 115/130/62 114/127/62 146/155/62
f 102/131/62 101/128/62 133/156/62
f 98/132/62 128/129/62 160/157/62
f 116/133/62 115/130/62 147/158/62
f 103/134/62 102/131/62 134/159/66
f 117/135/62 116/133/62 148/161/62
f 104/136/62 103/134/62 135/162/62
f 118/137/62 117/135/62 149/163/62
f 105/72/62 104/136/62 136/164/67
f 119/108/62 118/137/62 150/165/67
f 106/73/62 105/72/62 137/166/62
f 120/109/62 119/108/62 151/167/62
f 107/110/62 106/73/62 138/168/62
f 121/111/62 120/109/62 152/169/62
f 108/112/62 107/110/62 139/170/62
f 122/113/62 121/111/62 153/171/67
