# Blender v3.6.19 OBJ File: 'Candles_v1.blend'
# www.blender.org
mtllib Light2.mtl
o Light2_BezierCurve.006
v 1.161834 -0.632419 2.515805
v 1.155520 -0.644235 2.520514
v 1.150767 -0.652306 2.530854
v 1.147669 -0.656987 2.542370
v 1.145930 -0.658855 2.555088
v 1.145257 -0.658486 2.569033
v 1.148415 -0.653848 2.586240
v 1.145923 -0.653337 2.600712
v 1.146672 -0.649710 2.618499
v 1.143199 -0.648876 2.637617
v 1.147530 -0.643226 2.658095
v 1.151611 -0.638580 2.679958
v 1.150127 -0.638668 2.703233
v 1.165042 -0.620322 2.522513
v 1.166506 -0.612779 2.534158
v 1.166792 -0.608963 2.546385
v 1.166076 -0.608262 2.559317
v 1.164537 -0.610066 2.573081
v 1.165413 -0.611160 2.589808
v 1.159694 -0.618752 2.603604
v 1.156745 -0.624413 2.620613
v 1.149573 -0.632868 2.638956
v 1.150677 -0.635321 2.658756
v 1.152477 -0.636406 2.680140
v 1.162003 -0.632755 2.515805
v 1.149970 -0.627138 2.520793
v 1.141470 -0.623800 2.531317
v 1.136321 -0.622250 2.542932
v 1.133945 -0.622200 2.555680
v 1.133765 -0.623363 2.569600
v 1.138264 -0.622844 2.586740
v 1.137676 -0.628174 2.601117
v 1.140611 -0.631245 2.618795
v 1.139320 -0.637107 2.637805
v 1.145548 -0.637282 2.658188
v 1.150958 -0.636730 2.679984
v 1.149950 -0.638316 2.703233
v 1.173850 -0.636792 2.522538
v 1.180941 -0.639757 2.534201
v 1.184279 -0.641638 2.546436
v 1.184469 -0.642626 2.559371
v 1.182117 -0.642911 2.573133
v 1.180893 -0.640078 2.589854
v 1.172213 -0.642136 2.603641
v 1.165873 -0.641458 2.620641
v 1.155306 -0.643569 2.638973
v 1.153442 -0.640474 2.658765
v 1.153129 -0.637608 2.680143
v 1.161658 -0.632452 2.515788
v 1.165209 -0.645042 2.521309
v 1.166911 -0.653616 2.532181
v 1.167337 -0.658570 2.543988
v 1.166682 -0.660517 2.556795
v 1.165139 -0.660072 2.570669
v 1.165965 -0.655243 2.587684
v 1.160165 -0.654463 2.601885
v 1.157120 -0.650527 2.619359
v 1.149856 -0.649385 2.638166
v 1.150886 -0.643465 2.658373
v 1.152647 -0.638625 2.680046
v 1.150313 -0.638635 2.703250
v 1.155046 -0.621312 2.521611
v 1.150112 -0.614393 2.532680
v 1.146927 -0.610913 2.544594
v 1.145180 -0.610311 2.557433
v 1.144561 -0.612023 2.571280
v 1.147822 -0.612881 2.588223
v 1.145466 -0.620142 2.602321
v 1.146369 -0.625424 2.619678
v 1.143052 -0.633500 2.638368
v 1.147526 -0.635620 2.658473
v 1.151723 -0.636468 2.680073
v 1.162013 -0.632570 2.515814
v 1.149242 -0.636842 2.520300
v 1.140259 -0.639976 2.530494
v 1.134847 -0.641960 2.541930
v 1.132391 -0.642998 2.554623
v 1.132276 -0.643291 2.568587
v 1.136950 -0.640434 2.585845
v 1.136610 -0.642449 2.600392
v 1.139829 -0.641720 2.618263
v 1.138823 -0.643782 2.637466
v 1.145298 -0.640651 2.658017
v 1.150882 -0.637775 2.679932
v 1.149939 -0.638510 2.703224
v 1.172865 -0.626757 2.522900
v 1.179305 -0.623306 2.534791
v 1.182288 -0.621707 2.547151
v 1.182370 -0.621661 2.560123
v 1.180107 -0.622870 2.573851
v 1.179120 -0.622431 2.590486
v 1.170775 -0.627864 2.604152
v 1.164819 -0.631051 2.621013
v 1.154637 -0.637030 2.639206
v 1.153108 -0.637317 2.658877
v 1.153030 -0.636859 2.680168
vt 0.000000 0.000000
vt 0.000000 0.000000
vt 0.000000 0.000000
vt 0.000000 0.000000
vt 0.000000 0.000000
vt 0.000000 0.000000
vt 0.000000 0.000000
vt 0.000000 0.000000
vt 0.000000 0.000000
vt 0.000000 0.000000
vt 0.000000 0.000000
vt 0.000000 0.000000
vt 0.000000 0.000000
vt 0.000000 0.000000
vt 0.000000 0.000000
vt 0.000000 0.000000
vt 0.000000 0.000000
vt 0.000000 0.000000
vt 0.000000 0.000000
vt 0.000000 0.000000
vt 0.000000 0.000000
vt 0.000000 0.000000
vt 0.000000 0.000000
vt 0.000000 0.000000
vt 0.000000 0.000000
vt 0.000000 0.000000
vt 0.000000 0.000000
vt 0.000000 0.000000
vt 0.000000 0.000000
vt 0.000000 0.000000
vt 0.000000 0.000000
vt 0.000000 0.000000
vt 0.000000 0.000000
vt 0.000000 0.000000
vt 0.000000 0.000000
vt 0.000000 0.000000
vt 0.000000 0.000000
vt 0.000000 0.000000
vt 0.000000 0.000000
vt 0.000000 0.000000
vt 0.000000 0.000000
vt 0.000000 0.000000
vt 0.000000 0.000000
vt 0.000000 0.000000
vt 0.000000 0.000000
vt 0.000000 0.000000
vt 0.000000 0.000000
vt 0.000000 0.000000
vt 0.000000 0.000000
vt 0.000000 0.000000
vt 0.000000 0.000000
vt 0.000000 0.000000
vt 0.000000 0.000000
vt 0.000000 0.000000
vt 0.000000 0.000000
vt 0.000000 0.000000
vt 0.000000 0.000000
vt 0.000000 0.000000
vt 0.000000 0.000000
vt 0.000000 0.000000
vt 0.000000 0.000000
vt 0.000000 0.000000
vt 0.000000 0.000000
vt 0.000000 0.000000
vt 0.000000 0.000000
vt 0.000000 0.000000
vt 0.000000 0.000000
vt 0.000000 0.000000
vt 0.000000 0.000000
vt 0.000000 0.000000
vt 0.000000 0.000000
vt 0.000000 0.000000
vt 0.000000 0.000000
vt 0.000000 0.000000
vt 0.000000 0.000000
vt 0.000000 0.000000
vt 0.000000 0.000000
vt 0.000000 0.000000
vt 0.000000 0.000000
vt 0.000000 0.000000
vt 0.000000 0.000000
vt 0.000000 0.000000
vt 0.000000 0.000000
vt 0.000000 0.000000
vt 0.000000 0.000000
vt 0.000000 0.000000
vt 0.000000 0.000000
vt 0.000000 0.000000
vt 0.000000 0.000000
vt 0.000000 0.000000
vt 0.000000 0.000000
vt 0.000000 0.000000
vt 0.000000 0.000000
vt 0.000000 0.000000
vt 0.000000 0.000000
vt 0.000000 0.000000
vn 0.9200 -0.3909 0.0292
vn 0.9213 -0.3858 0.0493
vn 0.9310 -0.3633 0.0349
vn -0.3641 -0.9230 -0.1242
vn -0.3795 -0.9183 0.1126
vn -0.3795 -0.9184 0.1118
vn 0.9138 0.3899 0.1139
vn 0.9066 0.3903 -0.1607
vn 0.4063 -0.9137 -0.0098
vn 0.4041 -0.9139 -0.0377
vn 0.3889 -0.9209 -0.0254
vn 0.9207 -0.3755 0.1061
vn 0.9144 -0.3765 0.1485
vn 0.8917 -0.3761 0.2519
vn 0.9236 -0.3746 0.0815
vn 0.9254 -0.3737 0.0630
vn 0.7179 -0.6912 -0.0828
vn 0.9290 -0.3700 0.0016
vn 0.9212 -0.3754 0.1024
vn 0.9201 -0.3756 0.1112
vn 0.9275 -0.3612 -0.0964
vn 0.9252 -0.3739 0.0654
vn 0.9256 -0.3736 0.0607
vn 0.9294 -0.3685 -0.0192
vn 0.9258 -0.3735 0.0576
vn 0.9295 -0.3678 -0.0282
vn 0.9224 -0.3750 0.0920
vn -0.3727 -0.9274 -0.0305
vn -0.3756 -0.9267 0.0123
vn -0.3755 -0.9267 0.0122
vn -0.3796 -0.9176 0.1177
vn -0.3708 -0.9271 -0.0552
vn -0.3691 -0.9264 -0.0738
vn -0.3759 -0.9265 0.0180
vn -0.3695 -0.9266 -0.0700
vn -0.3689 -0.9263 -0.0761
vn -0.3477 -0.9046 -0.2464
vn -0.3754 -0.9268 0.0091
vn -0.3563 -0.9153 -0.1881
vn -0.3489 -0.9061 -0.2392
vn -0.3635 -0.9225 -0.1298
vn -0.3760 -0.9264 0.0206
vn -0.3687 -0.9262 -0.0792
vn -0.3765 -0.9260 0.0291
vn -0.3575 -0.9166 -0.1787
vn 0.9107 0.3883 0.1408
vn 0.9045 0.3851 0.1831
vn 0.9046 0.3851 0.1830
vn 0.8822 0.3742 0.2859
vn 0.9135 0.3898 0.1162
vn 0.9153 0.3908 0.0977
vn 0.9188 0.3939 -0.0254
vn 0.9190 0.3938 -0.0194
vn 0.9182 0.3926 0.0520
vn 0.9180 0.3925 0.0565
vn 0.8955 0.3806 0.2309
vn 0.9063 0.3859 0.1724
vn 0.9057 0.3856 0.1762
vn 0.8965 0.3811 0.2258
vn 0.9136 0.3898 0.1158
vn 0.9183 0.3938 -0.0405
vn 0.9157 0.3911 0.0923
vn 0.9182 0.3938 -0.0436
vn 0.3891 -0.9205 0.0355
vn 0.3842 -0.9200 0.0781
vn 0.3690 -0.9113 0.1826
vn 0.3841 -0.9200 0.0781
vn 0.3916 -0.9201 0.0109
vn 0.3933 -0.9194 -0.0077
vn 0.6086 -0.7914 0.0571
vn 0.3917 -0.9201 0.0102
vn 0.3971 -0.9162 -0.0537
vn 0.3988 -0.9136 -0.0796
vn 0.3908 -0.9203 0.0186
vn 0.3959 -0.9175 -0.0379
vn 0.3957 -0.9177 -0.0360
vn 0.3923 -0.9198 0.0038
vn 0.3938 -0.9191 -0.0131
vn 0.3920 -0.9199 0.0062
vn 0.3908 -0.9203 0.0192
vn 0.3968 -0.9165 -0.0500
g Light2_BezierCurve.006_None
usemtl None
s 1
f 18/1/1 20/2/2 7/3/3
f 46/4/4 47/5/5 35/6/6
f 70/7/7 71/8/8 59/9/8
f 90/10/9 92/11/10 79/12/11
f 3/13/12 2/14/13 15/15/12
f 2/14/13 1/16/14 14/17/13
f 15/15/12 2/14/13 14/17/13
f 15/15/12 16/18/15 3/13/12
f 16/18/15 17/19/16 4/20/15
f 3/13/12 16/18/15 4/20/15
f 18/1/1 19/21/17 20/2/2
f 17/19/16 18/1/1 5/22/16
f 5/22/16 4/20/15 17/19/16
f 7/3/3 6/23/18 18/1/1
f 6/23/18 5/22/16 18/1/1
f 9/24/19 8/25/20 20/2/2
f 8/25/20 7/3/3 20/2/2
f 11/26/21 10/27/22 22/28/23
f 10/27/22 9/24/19 22/28/23
f 24/29/24 13/30/25 12/31/26
f 12/31/26 11/26/21 23/32/21
f 11/26/21 22/28/23 23/32/21
f 22/28/23 9/24/19 21/33/27
f 23/32/21 24/29/24 12/31/26
f 20/2/2 21/33/27 9/24/19
f 27/34/28 26/35/29 38/36/30
f 26/35/29 25/37/31 38/36/30
f 38/36/30 39/38/28 27/34/28
f 39/38/28 40/39/32 28/40/32
f 40/39/32 41/41/33 29/42/33
f 42/43/34 43/44/35 31/45/36
f 43/44/35 44/46/37 31/45/36
f 40/39/32 29/42/33 28/40/32
f 41/41/33 42/43/34 29/42/33
f 28/40/32 27/34/28 39/38/28
f 31/45/36 30/47/38 42/43/34
f 30/47/38 29/42/33 42/43/34
f 33/48/39 32/49/40 44/46/37
f 32/49/40 31/45/36 44/46/37
f 35/6/6 34/50/41 46/4/4
f 34/50/41 33/48/39 46/4/4
f 48/51/42 37/52/43 36/53/44
f 36/53/44 35/6/6 47/5/5
f 44/46/37 45/54/45 33/48/39
f 45/54/45 46/4/4 33/48/39
f 47/5/5 48/51/42 36/53/44
f 51/55/46 50/56/47 62/57/48
f 50/56/47 49/58/49 62/57/48
f 62/57/48 63/59/46 51/55/46
f 63/59/46 64/60/50 52/61/50
f 64/60/50 65/62/51 52/61/50
f 65/62/51 66/63/52 54/64/53
f 66/63/52 67/65/54 55/66/55
f 68/67/56 69/68/57 57/69/58
f 69/68/57 70/7/7 57/69/58
f 66/63/52 55/66/55 54/64/53
f 67/65/54 68/67/56 55/66/55
f 52/61/50 51/55/46 63/59/46
f 54/64/53 53/70/51 65/62/51
f 53/70/51 52/61/50 65/62/51
f 57/69/58 56/71/59 68/67/56
f 56/71/59 55/66/55 68/67/56
f 59/9/8 58/72/60 70/7/7
f 58/72/60 57/69/58 70/7/7
f 72/73/61 61/74/62 60/75/63
f 72/73/61 60/75/63 71/8/8
f 60/75/63 59/9/8 71/8/8
f 75/76/64 74/77/65 87/78/64
f 74/77/65 73/79/66 86/80/67
f 87/78/64 74/77/65 86/80/67
f 87/78/64 88/81/68 75/76/64
f 88/81/68 89/82/69 76/83/68
f 75/76/64 88/81/68 76/83/68
f 90/10/9 91/84/70 92/11/10
f 89/82/69 90/10/9 77/85/69
f 77/85/69 76/83/68 89/82/69
f 79/12/11 78/86/71 90/10/9
f 78/86/71 77/85/69 90/10/9
f 81/87/72 80/88/73 92/11/10
f 80/88/73 79/12/11 92/11/10
f 83/89/74 82/90/75 94/91/76
f 82/90/75 81/87/72 94/91/76
f 96/92/77 85/93/78 84/94/79
f 84/94/79 83/89/74 95/95/80
f 83/89/74 94/91/76 95/95/80
f 94/91/76 81/87/72 93/96/81
f 95/95/80 96/92/77 84/94/79
f 92/11/10 93/96/81 81/87/72
