# Blender v3.6.19 OBJ File: 'Candles_V3.blend'
# www.blender.org
mtllib Flame3b.mtl
o Flame3b_BezierCurve.012
v 1.522905 2.240615 2.433567
v 1.526572 2.241060 2.435055
v 1.529168 2.241254 2.438268
v 1.530746 2.241282 2.441834
v 1.531482 2.241168 2.445761
v 1.531550 2.240938 2.450061
v 1.530064 2.240887 2.455348
v 1.530390 2.240225 2.459815
v 1.529514 2.239793 2.465289
v 1.529938 2.238853 2.471191
v 1.528049 2.238900 2.477481
v 1.526430 2.239048 2.484201
v 1.526759 2.238694 2.491379
v 1.519704 2.239412 2.435606
v 1.517817 2.238530 2.439179
v 1.516954 2.237973 2.442941
v 1.516951 2.237682 2.446928
v 1.517644 2.237601 2.451177
v 1.517804 2.237945 2.456332
v 1.520457 2.237842 2.460613
v 1.522249 2.238050 2.465873
v 1.525341 2.237750 2.471560
v 1.525779 2.238356 2.477664
v 1.525806 2.238899 2.484251
v 1.522954 2.240706 2.433567
v 1.523616 2.237112 2.435129
v 1.524247 2.234662 2.438392
v 1.524752 2.233245 2.441984
v 1.525158 2.232685 2.445920
v 1.525492 2.232807 2.450212
v 1.524717 2.233708 2.455482
v 1.526052 2.234397 2.459923
v 1.526332 2.235514 2.465369
v 1.527912 2.236123 2.471241
v 1.527030 2.237516 2.477506
v 1.526119 2.238609 2.484208
v 1.526708 2.238599 2.491379
v 1.522004 2.243991 2.435615
v 1.521583 2.246032 2.439194
v 1.521515 2.247060 2.442959
v 1.521748 2.247239 2.446947
v 1.522228 2.246736 2.451196
v 1.521840 2.245988 2.456349
v 1.523721 2.244346 2.460626
v 1.524627 2.242791 2.465882
v 1.526833 2.240728 2.471566
v 1.526497 2.239790 2.477667
v 1.525972 2.239235 2.484252
v 1.522940 2.240581 2.433562
v 1.525220 2.243359 2.435274
v 1.526909 2.245080 2.438634
v 1.527990 2.245941 2.442279
v 1.528572 2.246082 2.446232
v 1.528761 2.245645 2.450512
v 1.527601 2.245041 2.455746
v 1.528390 2.243595 2.460138
v 1.528045 2.242264 2.465526
v 1.528999 2.240426 2.471342
v 1.527572 2.239691 2.477558
v 1.526276 2.239288 2.484225
v 1.526722 2.238730 2.491384
v 1.521507 2.237328 2.435358
v 1.520771 2.235111 2.438772
v 1.520533 2.233829 2.442448
v 1.520716 2.233322 2.446409
v 1.521242 2.233433 2.450682
v 1.520972 2.234275 2.455896
v 1.523019 2.234873 2.460260
v 1.524117 2.235884 2.465615
v 1.526514 2.236389 2.471398
v 1.526345 2.237697 2.477586
v 1.525939 2.238739 2.484233
vt 0.000000 0.000000
vt 0.000000 0.000000
vt 0.000000 0.000000
vt 0.000000 0.000000
vt 0.000000 0.000000
vt 0.000000 0.000000
vt 0.000000 0.000000
vt 0.000000 0.000000
vt 0.000000 0.000000
vt 0.000000 0.000000
vt 0.000000 0.000000
vt 0.000000 0.000000
vt 0.000000 0.000000
vt 0.000000 0.000000
vt 0.000000 0.000000
vt 0.000000 0.000000
vt 0.000000 0.000000
vt 0.000000 0.000000
vt 0.000000 0.000000
vt 0.000000 0.000000
vt 0.000000 0.000000
vt 0.000000 0.000000
vt 0.000000 0.000000
vt 0.000000 0.000000
vt 0.000000 0.000000
vt 0.000000 0.000000
vt 0.000000 0.000000
vt 0.000000 0.000000
vt 0.000000 0.000000
vt 0.000000 0.000000
vt 0.000000 0.000000
vt 0.000000 0.000000
vt 0.000000 0.000000
vt 0.000000 0.000000
vt 0.000000 0.000000
vt 0.000000 0.000000
vt 0.000000 0.000000
vt 0.000000 0.000000
vt 0.000000 0.000000
vt 0.000000 0.000000
vt 0.000000 0.000000
vt 0.000000 0.000000
vt 0.000000 0.000000
vt 0.000000 0.000000
vt 0.000000 0.000000
vt 0.000000 0.000000
vt 0.000000 0.000000
vt 0.000000 0.000000
vt 0.000000 0.000000
vt 0.000000 0.000000
vt 0.000000 0.000000
vt 0.000000 0.000000
vt 0.000000 0.000000
vt 0.000000 0.000000
vt 0.000000 0.000000
vt 0.000000 0.000000
vt 0.000000 0.000000
vt 0.000000 0.000000
vt 0.000000 0.000000
vt 0.000000 0.000000
vt 0.000000 0.000000
vt 0.000000 0.000000
vt 0.000000 0.000000
vt 0.000000 0.000000
vt 0.000000 0.000000
vt 0.000000 0.000000
vt 0.000000 0.000000
vt 0.000000 0.000000
vt 0.000000 0.000000
vt 0.000000 0.000000
vt 0.000000 0.000000
vt 0.000000 0.000000
vn 0.2140 -0.9763 -0.0327
vn 0.2405 -0.9698 -0.0396
vn 0.2174 -0.9747 -0.0529
vn -0.9567 -0.2362 0.1703
vn -0.9446 -0.2373 0.2268
vn -0.9553 -0.2364 0.1776
vn 0.8303 -0.5142 -0.2150
vn 0.8495 -0.5239 -0.0615
vn 0.8493 -0.5239 -0.0648
vn 0.2093 -0.9500 -0.2317
vn 0.2202 -0.9652 -0.1412
vn 0.2203 -0.9652 -0.1412
vn 0.2243 -0.9692 -0.1021
vn 0.2265 -0.9707 -0.0799
vn 0.2281 -0.9716 -0.0632
vn 0.2328 -0.9725 -0.0075
vn 0.2240 -0.9689 -0.1054
vn 0.2247 -0.9694 -0.0989
vn 0.2281 -0.9716 -0.0631
vn 0.2284 -0.9717 -0.0598
vn 0.2386 -0.9679 0.0788
vn 0.2345 -0.9720 0.0172
vn 0.2285 -0.9718 -0.0585
vn 0.2340 -0.9722 0.0100
vn 0.2255 -0.9700 -0.0907
vn 0.2244 -0.9691 -0.1021
vn -0.1520 -0.9859 0.0706
vn -0.9706 -0.2206 -0.0962
vn -0.9737 -0.2278 -0.0040
vn -0.9737 -0.2279 -0.0039
vn -0.9725 -0.2304 0.0356
vn -0.9711 -0.2316 0.0578
vn -0.9697 -0.2325 0.0745
vn -0.9711 -0.2316 0.0579
vn -0.9736 -0.2281 -0.0007
vn -0.9737 -0.2276 -0.0078
vn -0.9693 -0.2327 0.0797
vn -0.9460 -0.2372 0.2209
vn -0.9645 -0.2345 0.1215
vn -0.9651 -0.2344 0.1172
vn -0.9710 -0.2211 -0.0910
vn -0.9738 -0.2269 -0.0163
vn -0.9694 -0.2323 0.0794
vn -0.9738 -0.2274 -0.0094
vn -0.9709 -0.2211 -0.0917
vn -0.9697 -0.2325 0.0746
vn -0.9697 -0.2325 0.0754
vn 0.8191 -0.5081 -0.2664
vn 0.8371 -0.5179 -0.1762
vn 0.8427 -0.5207 -0.1371
vn 0.8452 -0.5220 -0.1149
vn 0.8452 -0.5220 -0.1150
vn 0.8468 -0.5228 -0.0983
vn 0.8468 -0.5227 -0.0983
vn 0.8516 -0.5242 0.0076
vn 0.8516 -0.5241 0.0124
vn 0.8311 -0.5146 -0.2108
vn 0.8381 -0.5184 -0.1701
vn 0.8456 -0.5222 -0.1109
vn 0.8458 -0.5222 -0.1095
vn 0.8449 -0.5183 0.1328
vn 0.8449 -0.5182 0.1328
vn 0.8515 -0.5237 0.0271
vn 0.8473 -0.5228 -0.0935
vn 0.8515 -0.5238 0.0246
vn 0.8385 -0.5186 -0.1671
vn 0.8426 -0.5207 -0.1372
g Flame3b_BezierCurve.012_None
usemtl None
s 1
f 18/1/1 7/2/2 20/3/3
f 45/4/4 44/5/5 33/6/6
f 68/7/7 67/8/8 55/9/9
f 1/10/10 2/11/11 14/12/12
f 2/11/11 3/13/13 14/12/12
f 3/13/13 4/14/14 16/15/14
f 4/14/14 5/16/15 17/17/15
f 5/16/15 6/18/16 18/1/1
f 6/18/16 7/2/2 18/1/1
f 7/2/2 8/19/17 20/3/3
f 8/19/17 9/20/18 20/3/3
f 9/20/18 10/21/19 22/22/20
f 10/21/19 11/23/21 22/22/20
f 12/24/22 13/25/23 24/26/24
f 11/23/21 12/24/22 23/27/21
f 22/22/20 11/23/21 23/27/21
f 4/14/14 17/17/15 16/15/14
f 12/24/22 24/26/24 23/27/21
f 22/22/20 21/28/25 9/20/18
f 21/28/25 20/3/3 9/20/18
f 5/16/15 18/1/1 17/17/15
f 16/15/14 15/29/26 3/13/13
f 15/29/26 14/12/12 3/13/13
f 20/3/3 19/30/27 18/1/1
f 25/31/28 26/32/29 38/33/30
f 26/32/29 27/34/31 38/33/30
f 27/34/31 28/35/32 39/36/31
f 28/35/32 29/37/33 40/38/34
f 39/36/31 28/35/32 40/38/34
f 29/37/33 30/39/35 42/40/36
f 30/39/35 31/41/37 42/40/36
f 31/41/37 32/42/38 44/5/5
f 32/42/38 33/6/6 44/5/5
f 33/6/6 34/43/39 46/44/40
f 34/43/39 35/45/41 46/44/40
f 36/46/42 37/47/43 48/48/44
f 35/45/41 36/46/42 47/49/45
f 46/44/40 35/45/41 47/49/45
f 39/36/31 38/33/30 27/34/31
f 41/50/46 40/38/34 29/37/33
f 44/5/5 43/51/47 31/41/37
f 43/51/47 42/40/36 31/41/37
f 42/40/36 41/50/46 29/37/33
f 36/46/42 48/48/44 47/49/45
f 46/44/40 45/4/4 33/6/6
f 49/52/48 50/53/49 62/54/49
f 50/53/49 51/55/50 62/54/49
f 51/55/50 52/56/51 64/57/52
f 52/56/51 53/58/53 65/59/54
f 53/58/53 54/60/55 66/61/56
f 54/60/55 55/9/9 66/61/56
f 55/9/9 56/62/57 68/7/7
f 56/62/57 57/63/58 68/7/7
f 57/63/58 58/64/59 70/65/60
f 58/64/59 59/66/61 70/65/60
f 70/65/60 59/66/61 71/67/62
f 60/68/63 61/69/64 72/70/65
f 59/66/61 60/68/63 71/67/62
f 60/68/63 72/70/65 71/67/62
f 66/61/56 55/9/9 67/8/8
f 70/65/60 69/71/66 57/63/58
f 69/71/66 68/7/7 57/63/58
f 52/56/51 65/59/54 64/57/52
f 64/57/52 63/72/67 51/55/50
f 63/72/67 62/54/49 51/55/50
f 66/61/56 65/59/54 53/58/53
