# Blender v3.6.19 OBJ File: 'Candles_V3.blend'
# www.blender.org
mtllib Flame2.mtl
o Flame2_BezierCurve.006
v 1.655269 -0.919280 2.468718
v 1.658935 -0.918835 2.470206
v 1.661532 -0.918641 2.473419
v 1.663110 -0.918613 2.476985
v 1.663845 -0.918727 2.480912
v 1.663913 -0.918958 2.485212
v 1.662427 -0.919008 2.490499
v 1.662754 -0.919670 2.494966
v 1.661878 -0.920102 2.500440
v 1.662302 -0.921042 2.506342
v 1.660413 -0.920995 2.512632
v 1.658794 -0.920847 2.519352
v 1.659123 -0.921201 2.526530
v 1.652067 -0.920483 2.470757
v 1.650180 -0.921365 2.474330
v 1.649318 -0.921923 2.478092
v 1.649315 -0.922214 2.482079
v 1.650008 -0.922294 2.486328
v 1.650167 -0.921950 2.491483
v 1.652821 -0.922053 2.495764
v 1.654612 -0.921846 2.501024
v 1.657704 -0.922145 2.506711
v 1.658143 -0.921540 2.512815
v 1.658169 -0.920997 2.519402
v 1.655317 -0.919189 2.468718
v 1.655979 -0.922783 2.470280
v 1.656611 -0.925233 2.473543
v 1.657116 -0.926650 2.477135
v 1.657521 -0.927210 2.481071
v 1.657855 -0.927088 2.485363
v 1.657081 -0.926187 2.490633
v 1.658415 -0.925498 2.495074
v 1.658696 -0.924381 2.500520
v 1.660276 -0.923773 2.506392
v 1.659394 -0.922379 2.512657
v 1.658482 -0.921286 2.519359
v 1.659072 -0.921297 2.526530
v 1.654368 -0.915904 2.470766
v 1.653947 -0.913863 2.474345
v 1.653879 -0.912836 2.478110
v 1.654112 -0.912656 2.482098
v 1.654592 -0.913160 2.486347
v 1.654203 -0.913907 2.491500
v 1.656084 -0.915549 2.495777
v 1.656991 -0.917104 2.501033
v 1.659197 -0.919168 2.506717
v 1.658861 -0.920105 2.512818
v 1.658336 -0.920661 2.519403
v 1.655304 -0.919315 2.468713
v 1.657584 -0.916536 2.470425
v 1.659273 -0.914816 2.473785
v 1.660354 -0.913955 2.477430
v 1.660936 -0.913813 2.481383
v 1.661124 -0.914250 2.485663
v 1.659964 -0.914854 2.490897
v 1.660753 -0.916300 2.495289
v 1.660408 -0.917631 2.500677
v 1.661363 -0.919469 2.506493
v 1.659936 -0.920205 2.512709
v 1.658640 -0.920608 2.519376
v 1.659086 -0.921165 2.526535
v 1.653871 -0.922567 2.470509
v 1.653135 -0.924784 2.473923
v 1.652897 -0.926067 2.477599
v 1.653079 -0.926573 2.481560
v 1.653606 -0.926462 2.485833
v 1.653336 -0.925621 2.491047
v 1.655383 -0.925023 2.495411
v 1.656480 -0.924011 2.500766
v 1.658877 -0.923507 2.506549
v 1.658708 -0.922199 2.512737
v 1.658302 -0.921156 2.519384
vt 0.000000 0.000000
vt 0.000000 0.000000
vt 0.000000 0.000000
vt 0.000000 0.000000
vt 0.000000 0.000000
vt 0.000000 0.000000
vt 0.000000 0.000000
vt 0.000000 0.000000
vt 0.000000 0.000000
vt 0.000000 0.000000
vt 0.000000 0.000000
vt 0.000000 0.000000
vt 0.000000 0.000000
vt 0.000000 0.000000
vt 0.000000 0.000000
vt 0.000000 0.000000
vt 0.000000 0.000000
vt 0.000000 0.000000
vt 0.000000 0.000000
vt 0.000000 0.000000
vt 0.000000 0.000000
vt 0.000000 0.000000
vt 0.000000 0.000000
vt 0.000000 0.000000
vt 0.000000 0.000000
vt 0.000000 0.000000
vt 0.000000 0.000000
vt 0.000000 0.000000
vt 0.000000 0.000000
vt 0.000000 0.000000
vt 0.000000 0.000000
vt 0.000000 0.000000
vt 0.000000 0.000000
vt 0.000000 0.000000
vt 0.000000 0.000000
vt 0.000000 0.000000
vt 0.000000 0.000000
vt 0.000000 0.000000
vt 0.000000 0.000000
vt 0.000000 0.000000
vt 0.000000 0.000000
vt 0.000000 0.000000
vt 0.000000 0.000000
vt 0.000000 0.000000
vt 0.000000 0.000000
vt 0.000000 0.000000
vt 0.000000 0.000000
vt 0.000000 0.000000
vt 0.000000 0.000000
vt 0.000000 0.000000
vt 0.000000 0.000000
vt 0.000000 0.000000
vt 0.000000 0.000000
vt 0.000000 0.000000
vt 0.000000 0.000000
vt 0.000000 0.000000
vt 0.000000 0.000000
vt 0.000000 0.000000
vt 0.000000 0.000000
vt 0.000000 0.000000
vt 0.000000 0.000000
vt 0.000000 0.000000
vt 0.000000 0.000000
vt 0.000000 0.000000
vt 0.000000 0.000000
vt 0.000000 0.000000
vt 0.000000 0.000000
vt 0.000000 0.000000
vt 0.000000 0.000000
vt 0.000000 0.000000
vt 0.000000 0.000000
vt 0.000000 0.000000
vn 0.2140 -0.9763 -0.0327
vn 0.2405 -0.9698 -0.0396
vn 0.2174 -0.9747 -0.0528
vn -0.9567 -0.2362 0.1703
vn -0.9446 -0.2373 0.2268
vn -0.9553 -0.2364 0.1776
vn 0.8303 -0.5142 -0.2150
vn 0.8496 -0.5239 -0.0615
vn 0.8493 -0.5239 -0.0648
vn 0.2093 -0.9500 -0.2319
vn 0.2202 -0.9652 -0.1412
vn 0.2203 -0.9652 -0.1413
vn 0.2243 -0.9692 -0.1020
vn 0.2265 -0.9707 -0.0799
vn 0.2281 -0.9716 -0.0632
vn 0.2327 -0.9725 -0.0075
vn 0.2240 -0.9689 -0.1053
vn 0.2247 -0.9694 -0.0989
vn 0.2281 -0.9716 -0.0631
vn 0.2284 -0.9717 -0.0597
vn 0.2386 -0.9679 0.0788
vn 0.2346 -0.9719 0.0173
vn 0.2285 -0.9718 -0.0584
vn 0.2341 -0.9722 0.0100
vn 0.2255 -0.9700 -0.0907
vn 0.2244 -0.9691 -0.1020
vn -0.1522 -0.9858 0.0705
vn -0.9706 -0.2207 -0.0962
vn -0.9737 -0.2279 -0.0040
vn -0.9724 -0.2304 0.0356
vn -0.9711 -0.2316 0.0578
vn -0.9725 -0.2304 0.0356
vn -0.9697 -0.2325 0.0745
vn -0.9711 -0.2316 0.0579
vn -0.9736 -0.2281 -0.0007
vn -0.9737 -0.2276 -0.0078
vn -0.9693 -0.2327 0.0797
vn -0.9460 -0.2373 0.2209
vn -0.9645 -0.2345 0.1215
vn -0.9650 -0.2344 0.1172
vn -0.9710 -0.2210 -0.0910
vn -0.9737 -0.2272 -0.0163
vn -0.9692 -0.2331 0.0794
vn -0.9737 -0.2277 -0.0094
vn -0.9710 -0.2210 -0.0917
vn -0.9697 -0.2325 0.0746
vn -0.9697 -0.2325 0.0755
vn 0.8190 -0.5081 -0.2665
vn 0.8371 -0.5179 -0.1763
vn 0.8427 -0.5207 -0.1371
vn 0.8452 -0.5220 -0.1149
vn 0.8452 -0.5219 -0.1149
vn 0.8468 -0.5228 -0.0982
vn 0.8468 -0.5227 -0.0983
vn 0.8515 -0.5242 0.0076
vn 0.8516 -0.5241 0.0124
vn 0.8311 -0.5147 -0.2108
vn 0.8381 -0.5184 -0.1701
vn 0.8456 -0.5222 -0.1108
vn 0.8457 -0.5223 -0.1095
vn 0.8448 -0.5183 0.1328
vn 0.8513 -0.5239 0.0271
vn 0.8471 -0.5232 -0.0934
vn 0.8514 -0.5240 0.0246
vn 0.8385 -0.5186 -0.1672
vn 0.8426 -0.5207 -0.1371
g Flame2_BezierCurve.006_None
usemtl None
s 1
f 18/1/1 7/2/2 20/3/3
f 45/4/4 44/5/5 33/6/6
f 68/7/7 67/8/8 55/9/9
f 1/10/10 2/11/11 14/12/12
f 2/11/11 3/13/13 14/12/12
f 3/13/13 4/14/14 16/15/14
f 4/14/14 5/16/15 17/17/15
f 5/16/15 6/18/16 18/1/1
f 6/18/16 7/2/2 18/1/1
f 7/2/2 8/19/17 20/3/3
f 8/19/17 9/20/18 20/3/3
f 9/20/18 10/21/19 22/22/20
f 10/21/19 11/23/21 22/22/20
f 12/24/22 13/25/23 24/26/24
f 11/23/21 12/24/22 23/27/21
f 22/22/20 11/23/21 23/27/21
f 4/14/14 17/17/15 16/15/14
f 12/24/22 24/26/24 23/27/21
f 22/22/20 21/28/25 9/20/18
f 21/28/25 20/3/3 9/20/18
f 5/16/15 18/1/1 17/17/15
f 16/15/14 15/29/26 3/13/13
f 15/29/26 14/12/12 3/13/13
f 20/3/3 19/30/27 18/1/1
f 25/31/28 26/32/29 38/33/29
f 26/32/29 27/34/30 38/33/29
f 27/34/30 28/35/31 39/36/32
f 28/35/31 29/37/33 40/38/34
f 39/36/32 28/35/31 40/38/34
f 29/37/33 30/39/35 42/40/36
f 30/39/35 31/41/37 42/40/36
f 31/41/37 32/42/38 44/5/5
f 32/42/38 33/6/6 44/5/5
f 33/6/6 34/43/39 46/44/40
f 34/43/39 35/45/41 46/44/40
f 36/46/42 37/47/43 48/48/44
f 35/45/41 36/46/42 47/49/45
f 46/44/40 35/45/41 47/49/45
f 39/36/32 38/33/29 27/34/30
f 41/50/46 40/38/34 29/37/33
f 44/5/5 43/51/47 31/41/37
f 43/51/47 42/40/36 31/41/37
f 42/40/36 41/50/46 29/37/33
f 36/46/42 48/48/44 47/49/45
f 46/44/40 45/4/4 33/6/6
f 49/52/48 50/53/49 62/54/49
f 50/53/49 51/55/50 62/54/49
f 51/55/50 52/56/51 64/57/52
f 52/56/51 53/58/53 65/59/54
f 53/58/53 54/60/55 66/61/56
f 54/60/55 55/9/9 66/61/56
f 55/9/9 56/62/57 68/7/7
f 56/62/57 57/63/58 68/7/7
f 57/63/58 58/64/59 70/65/60
f 58/64/59 59/66/61 70/65/60
f 70/65/60 59/66/61 71/67/61
f 60/68/62 61/69/63 72/70/64
f 59/66/61 60/68/62 71/67/61
f 60/68/62 72/70/64 71/67/61
f 66/61/56 55/9/9 67/8/8
f 70/65/60 69/71/65 57/63/58
f 69/71/65 68/7/7 57/63/58
f 52/56/51 65/59/54 64/57/52
f 64/57/52 63/72/66 51/55/50
f 63/72/66 62/54/49 51/55/50
f 66/61/56 65/59/54 53/58/53
