# Blender v3.6.19 OBJ File: 'Candles_V3.blend'
# www.blender.org
mtllib Flame2aux.mtl
o Flame2aux_BezierCurve.021
v 1.860125 -0.663814 2.285322
v 1.863310 -0.663427 2.286614
v 1.865565 -0.663259 2.289406
v 1.866936 -0.663234 2.292503
v 1.867574 -0.663333 2.295914
v 1.867634 -0.663533 2.299649
v 1.866343 -0.663578 2.304242
v 1.866626 -0.664152 2.308122
v 1.865865 -0.664528 2.312877
v 1.866234 -0.665344 2.318003
v 1.864593 -0.665303 2.323467
v 1.863187 -0.665175 2.329304
v 1.863472 -0.665482 2.335538
v 1.857344 -0.664859 2.287093
v 1.855705 -0.665625 2.290197
v 1.854956 -0.666109 2.293464
v 1.854953 -0.666362 2.296927
v 1.855555 -0.666432 2.300619
v 1.855694 -0.666133 2.305096
v 1.857998 -0.666223 2.308814
v 1.859555 -0.666042 2.313383
v 1.862240 -0.666302 2.318323
v 1.862621 -0.665776 2.323625
v 1.862644 -0.665305 2.329347
v 1.860167 -0.663735 2.285322
v 1.860742 -0.666856 2.286679
v 1.861290 -0.668984 2.289513
v 1.861729 -0.670216 2.292633
v 1.862082 -0.670702 2.296052
v 1.862372 -0.670596 2.299781
v 1.861699 -0.669813 2.304358
v 1.862858 -0.669215 2.308216
v 1.863102 -0.668244 2.312945
v 1.864474 -0.667716 2.318046
v 1.863708 -0.666505 2.323488
v 1.862916 -0.665556 2.329309
v 1.863428 -0.665565 2.335539
v 1.859342 -0.660881 2.287101
v 1.858976 -0.659108 2.290210
v 1.858917 -0.658216 2.293480
v 1.859120 -0.658060 2.296944
v 1.859537 -0.658497 2.300635
v 1.859199 -0.659147 2.305111
v 1.860833 -0.660573 2.308826
v 1.861621 -0.661924 2.313392
v 1.863537 -0.663716 2.318329
v 1.863245 -0.664530 2.323628
v 1.862789 -0.665013 2.329348
v 1.860155 -0.663844 2.285318
v 1.862136 -0.661430 2.286805
v 1.863603 -0.659936 2.289723
v 1.864542 -0.659188 2.292890
v 1.865047 -0.659065 2.296323
v 1.865211 -0.659445 2.300040
v 1.864203 -0.659969 2.304587
v 1.864889 -0.661225 2.308402
v 1.864589 -0.662381 2.313082
v 1.865418 -0.663978 2.318134
v 1.864179 -0.664617 2.323533
v 1.863053 -0.664967 2.329324
v 1.863440 -0.665451 2.335543
v 1.858910 -0.666669 2.286878
v 1.858271 -0.668595 2.289844
v 1.858065 -0.669708 2.293036
v 1.858223 -0.670148 2.296477
v 1.858680 -0.670052 2.300188
v 1.858446 -0.669321 2.304717
v 1.860224 -0.668802 2.308508
v 1.861177 -0.667923 2.313160
v 1.863259 -0.667485 2.318183
v 1.863112 -0.666349 2.323557
v 1.862760 -0.665443 2.329331
vt 0.000000 0.000000
vt 0.000000 0.000000
vt 0.000000 0.000000
vt 0.000000 0.000000
vt 0.000000 0.000000
vt 0.000000 0.000000
vt 0.000000 0.000000
vt 0.000000 0.000000
vt 0.000000 0.000000
vt 0.000000 0.000000
vt 0.000000 0.000000
vt 0.000000 0.000000
vt 0.000000 0.000000
vt 0.000000 0.000000
vt 0.000000 0.000000
vt 0.000000 0.000000
vt 0.000000 0.000000
vt 0.000000 0.000000
vt 0.000000 0.000000
vt 0.000000 0.000000
vt 0.000000 0.000000
vt 0.000000 0.000000
vt 0.000000 0.000000
vt 0.000000 0.000000
vt 0.000000 0.000000
vt 0.000000 0.000000
vt 0.000000 0.000000
vt 0.000000 0.000000
vt 0.000000 0.000000
vt 0.000000 0.000000
vt 0.000000 0.000000
vt 0.000000 0.000000
vt 0.000000 0.000000
vt 0.000000 0.000000
vt 0.000000 0.000000
vt 0.000000 0.000000
vt 0.000000 0.000000
vt 0.000000 0.000000
vt 0.000000 0.000000
vt 0.000000 0.000000
vt 0.000000 0.000000
vt 0.000000 0.000000
vt 0.000000 0.000000
vt 0.000000 0.000000
vt 0.000000 0.000000
vt 0.000000 0.000000
vt 0.000000 0.000000
vt 0.000000 0.000000
vt 0.000000 0.000000
vt 0.000000 0.000000
vt 0.000000 0.000000
vt 0.000000 0.000000
vt 0.000000 0.000000
vt 0.000000 0.000000
vt 0.000000 0.000000
vt 0.000000 0.000000
vt 0.000000 0.000000
vt 0.000000 0.000000
vt 0.000000 0.000000
vt 0.000000 0.000000
vt 0.000000 0.000000
vt 0.000000 0.000000
vt 0.000000 0.000000
vt 0.000000 0.000000
vt 0.000000 0.000000
vt 0.000000 0.000000
vt 0.000000 0.000000
vt 0.000000 0.000000
vt 0.000000 0.000000
vt 0.000000 0.000000
vt 0.000000 0.000000
vt 0.000000 0.000000
vn 0.2140 -0.9763 -0.0327
vn 0.2405 -0.9698 -0.0396
vn 0.2174 -0.9747 -0.0528
vn -0.9567 -0.2362 0.1703
vn -0.9446 -0.2374 0.2268
vn -0.9553 -0.2364 0.1776
vn 0.8303 -0.5142 -0.2150
vn 0.8495 -0.5239 -0.0615
vn 0.8493 -0.5238 -0.0648
vn 0.2093 -0.9500 -0.2318
vn 0.2203 -0.9652 -0.1413
vn 0.2202 -0.9652 -0.1413
vn 0.2244 -0.9691 -0.1020
vn 0.2265 -0.9707 -0.0799
vn 0.2265 -0.9707 -0.0798
vn 0.2281 -0.9716 -0.0632
vn 0.2280 -0.9716 -0.0632
vn 0.2328 -0.9725 -0.0075
vn 0.2240 -0.9689 -0.1053
vn 0.2247 -0.9694 -0.0989
vn 0.2281 -0.9716 -0.0631
vn 0.2284 -0.9717 -0.0597
vn 0.2386 -0.9679 0.0788
vn 0.2347 -0.9719 0.0173
vn 0.2286 -0.9718 -0.0584
vn 0.2342 -0.9721 0.0100
vn 0.2255 -0.9700 -0.0907
vn 0.2244 -0.9692 -0.1020
vn -0.1521 -0.9858 0.0705
vn -0.9706 -0.2206 -0.0963
vn -0.9737 -0.2279 -0.0040
vn -0.9725 -0.2304 0.0356
vn -0.9711 -0.2316 0.0578
vn -0.9725 -0.2303 0.0356
vn -0.9697 -0.2325 0.0746
vn -0.9711 -0.2316 0.0579
vn -0.9736 -0.2281 -0.0007
vn -0.9737 -0.2276 -0.0078
vn -0.9693 -0.2327 0.0797
vn -0.9460 -0.2372 0.2209
vn -0.9645 -0.2345 0.1215
vn -0.9651 -0.2344 0.1172
vn -0.9710 -0.2211 -0.0910
vn -0.9737 -0.2271 -0.0164
vn -0.9692 -0.2331 0.0793
vn -0.9737 -0.2276 -0.0094
vn -0.9709 -0.2210 -0.0917
vn -0.9697 -0.2325 0.0755
vn 0.8191 -0.5080 -0.2664
vn 0.8371 -0.5178 -0.1762
vn 0.8371 -0.5179 -0.1762
vn 0.8427 -0.5207 -0.1371
vn 0.8452 -0.5220 -0.1149
vn 0.8468 -0.5227 -0.0983
vn 0.8468 -0.5227 -0.0982
vn 0.8516 -0.5242 0.0076
vn 0.8515 -0.5241 0.0124
vn 0.8311 -0.5146 -0.2108
vn 0.8381 -0.5183 -0.1701
vn 0.8456 -0.5221 -0.1108
vn 0.8457 -0.5222 -0.1094
vn 0.8448 -0.5183 0.1328
vn 0.8514 -0.5239 0.0271
vn 0.8470 -0.5233 -0.0935
vn 0.8514 -0.5239 0.0246
vn 0.8385 -0.5186 -0.1672
vn 0.8426 -0.5208 -0.1371
g Flame2aux_BezierCurve.021_None
usemtl None
s 1
f 18/1/1 7/2/2 20/3/3
f 45/4/4 44/5/5 33/6/6
f 68/7/7 67/8/8 55/9/9
f 1/10/10 2/11/11 14/12/12
f 2/11/11 3/13/13 14/12/12
f 3/13/13 4/14/14 16/15/15
f 4/14/14 5/16/16 17/17/17
f 5/16/16 6/18/18 18/1/1
f 6/18/18 7/2/2 18/1/1
f 7/2/2 8/19/19 20/3/3
f 8/19/19 9/20/20 20/3/3
f 9/20/20 10/21/21 22/22/22
f 10/21/21 11/23/23 22/22/22
f 12/24/24 13/25/25 24/26/26
f 11/23/23 12/24/24 23/27/23
f 22/22/22 11/23/23 23/27/23
f 4/14/14 17/17/17 16/15/15
f 12/24/24 24/26/26 23/27/23
f 22/22/22 21/28/27 9/20/20
f 21/28/27 20/3/3 9/20/20
f 5/16/16 18/1/1 17/17/17
f 16/15/15 15/29/28 3/13/13
f 15/29/28 14/12/12 3/13/13
f 20/3/3 19/30/29 18/1/1
f 25/31/30 26/32/31 38/33/31
f 26/32/31 27/34/32 38/33/31
f 27/34/32 28/35/33 39/36/34
f 28/35/33 29/37/35 40/38/36
f 39/36/34 28/35/33 40/38/36
f 29/37/35 30/39/37 42/40/38
f 30/39/37 31/41/39 42/40/38
f 31/41/39 32/42/40 44/5/5
f 32/42/40 33/6/6 44/5/5
f 33/6/6 34/43/41 46/44/42
f 34/43/41 35/45/43 46/44/42
f 36/46/44 37/47/45 48/48/46
f 35/45/43 36/46/44 47/49/47
f 46/44/42 35/45/43 47/49/47
f 39/36/34 38/33/31 27/34/32
f 41/50/35 40/38/36 29/37/35
f 44/5/5 43/51/48 31/41/39
f 43/51/48 42/40/38 31/41/39
f 42/40/38 41/50/35 29/37/35
f 36/46/44 48/48/46 47/49/47
f 46/44/42 45/4/4 33/6/6
f 49/52/49 50/53/50 62/54/51
f 50/53/50 51/55/52 62/54/51
f 51/55/52 52/56/53 64/57/53
f 52/56/53 53/58/54 65/59/55
f 53/58/54 54/60/56 66/61/57
f 54/60/56 55/9/9 66/61/57
f 55/9/9 56/62/58 68/7/7
f 56/62/58 57/63/59 68/7/7
f 57/63/59 58/64/60 70/65/61
f 58/64/60 59/66/62 70/65/61
f 70/65/61 59/66/62 71/67/62
f 60/68/63 61/69/64 72/70/65
f 59/66/62 60/68/63 71/67/62
f 60/68/63 72/70/65 71/67/62
f 66/61/57 55/9/9 67/8/8
f 70/65/61 69/71/66 57/63/59
f 69/71/66 68/7/7 57/63/59
f 52/56/53 65/59/55 64/57/53
f 64/57/53 63/72/67 51/55/52
f 63/72/67 62/54/51 51/55/52
f 66/61/57 65/59/55 53/58/54
