# Blender v3.6.19 OBJ File: 'Candles_V3.blend'
# www.blender.org
mtllib Flame3aux.mtl
o Flame3aux_BezierCurve.023
v 1.705028 1.951874 2.285662
v 1.708695 1.952318 2.287150
v 1.711292 1.952513 2.290363
v 1.712870 1.952540 2.293929
v 1.713605 1.952427 2.297857
v 1.713673 1.952196 2.302156
v 1.712187 1.952145 2.307443
v 1.712513 1.951484 2.311910
v 1.711637 1.951051 2.317384
v 1.712061 1.950112 2.323286
v 1.710173 1.950159 2.329576
v 1.708553 1.950306 2.336296
v 1.708882 1.949952 2.343474
v 1.701827 1.950670 2.287701
v 1.699940 1.949789 2.291275
v 1.699077 1.949231 2.295036
v 1.699074 1.948940 2.299023
v 1.699767 1.948859 2.303272
v 1.699927 1.949203 2.308427
v 1.702580 1.949100 2.312708
v 1.704372 1.949308 2.317968
v 1.707464 1.949008 2.323655
v 1.707902 1.949614 2.329759
v 1.707929 1.950157 2.336346
v 1.705077 1.951964 2.285662
v 1.705739 1.948370 2.287225
v 1.706370 1.945920 2.290487
v 1.706875 1.944503 2.294079
v 1.707281 1.943943 2.298015
v 1.707615 1.944066 2.302308
v 1.706840 1.944967 2.307577
v 1.708175 1.945656 2.312018
v 1.708455 1.946773 2.317464
v 1.710035 1.947381 2.323336
v 1.709153 1.948775 2.329601
v 1.708242 1.949867 2.336303
v 1.708831 1.949857 2.343474
v 1.704127 1.955249 2.287710
v 1.703706 1.957291 2.291290
v 1.703638 1.958318 2.295054
v 1.703871 1.958497 2.299042
v 1.704351 1.957994 2.303291
v 1.703963 1.957246 2.308444
v 1.705844 1.955604 2.312721
v 1.706750 1.954049 2.317977
v 1.708957 1.951986 2.323661
v 1.708620 1.951048 2.329762
v 1.708095 1.950493 2.336347
v 1.705063 1.951839 2.285657
v 1.707343 1.954618 2.287369
v 1.709032 1.956338 2.290729
v 1.710114 1.957199 2.294374
v 1.710695 1.957340 2.298327
v 1.710884 1.956903 2.302607
v 1.709724 1.956299 2.307841
v 1.710513 1.954854 2.312233
v 1.710168 1.953522 2.317621
v 1.711123 1.951684 2.323437
v 1.709695 1.950949 2.329653
v 1.708399 1.950546 2.336320
v 1.708845 1.949989 2.343479
v 1.703630 1.948586 2.287453
v 1.702894 1.946369 2.290868
v 1.702656 1.945087 2.294543
v 1.702839 1.944581 2.298505
v 1.703365 1.944691 2.302777
v 1.703095 1.945533 2.307991
v 1.705142 1.946131 2.312355
v 1.706240 1.947142 2.317710
v 1.708637 1.947647 2.323493
v 1.708468 1.948955 2.329681
v 1.708062 1.949998 2.336328
vt 0.000000 0.000000
vt 0.000000 0.000000
vt 0.000000 0.000000
vt 0.000000 0.000000
vt 0.000000 0.000000
vt 0.000000 0.000000
vt 0.000000 0.000000
vt 0.000000 0.000000
vt 0.000000 0.000000
vt 0.000000 0.000000
vt 0.000000 0.000000
vt 0.000000 0.000000
vt 0.000000 0.000000
vt 0.000000 0.000000
vt 0.000000 0.000000
vt 0.000000 0.000000
vt 0.000000 0.000000
vt 0.000000 0.000000
vt 0.000000 0.000000
vt 0.000000 0.000000
vt 0.000000 0.000000
vt 0.000000 0.000000
vt 0.000000 0.000000
vt 0.000000 0.000000
vt 0.000000 0.000000
vt 0.000000 0.000000
vt 0.000000 0.000000
vt 0.000000 0.000000
vt 0.000000 0.000000
vt 0.000000 0.000000
vt 0.000000 0.000000
vt 0.000000 0.000000
vt 0.000000 0.000000
vt 0.000000 0.000000
vt 0.000000 0.000000
vt 0.000000 0.000000
vt 0.000000 0.000000
vt 0.000000 0.000000
vt 0.000000 0.000000
vt 0.000000 0.000000
vt 0.000000 0.000000
vt 0.000000 0.000000
vt 0.000000 0.000000
vt 0.000000 0.000000
vt 0.000000 0.000000
vt 0.000000 0.000000
vt 0.000000 0.000000
vt 0.000000 0.000000
vt 0.000000 0.000000
vt 0.000000 0.000000
vt 0.000000 0.000000
vt 0.000000 0.000000
vt 0.000000 0.000000
vt 0.000000 0.000000
vt 0.000000 0.000000
vt 0.000000 0.000000
vt 0.000000 0.000000
vt 0.000000 0.000000
vt 0.000000 0.000000
vt 0.000000 0.000000
vt 0.000000 0.000000
vt 0.000000 0.000000
vt 0.000000 0.000000
vt 0.000000 0.000000
vt 0.000000 0.000000
vt 0.000000 0.000000
vt 0.000000 0.000000
vt 0.000000 0.000000
vt 0.000000 0.000000
vt 0.000000 0.000000
vt 0.000000 0.000000
vt 0.000000 0.000000
vn 0.2140 -0.9763 -0.0327
vn 0.2406 -0.9698 -0.0396
vn 0.2174 -0.9747 -0.0529
vn -0.9567 -0.2362 0.1703
vn -0.9446 -0.2373 0.2268
vn -0.9553 -0.2364 0.1776
vn 0.8303 -0.5142 -0.2150
vn 0.8496 -0.5239 -0.0615
vn 0.8493 -0.5238 -0.0648
vn 0.2093 -0.9499 -0.2320
vn 0.2202 -0.9652 -0.1412
vn 0.2202 -0.9652 -0.1413
vn 0.2243 -0.9691 -0.1021
vn 0.2265 -0.9707 -0.0799
vn 0.2265 -0.9707 -0.0798
vn 0.2281 -0.9716 -0.0632
vn 0.2281 -0.9716 -0.0631
vn 0.2328 -0.9725 -0.0075
vn 0.2240 -0.9689 -0.1054
vn 0.2247 -0.9694 -0.0989
vn 0.2284 -0.9717 -0.0597
vn 0.2385 -0.9679 0.0788
vn 0.2345 -0.9720 0.0172
vn 0.2285 -0.9718 -0.0584
vn 0.2340 -0.9722 0.0100
vn 0.2255 -0.9700 -0.0907
vn 0.2244 -0.9691 -0.1020
vn -0.1521 -0.9858 0.0706
vn -0.9706 -0.2206 -0.0962
vn -0.9737 -0.2279 -0.0040
vn -0.9737 -0.2278 -0.0040
vn -0.9725 -0.2304 0.0356
vn -0.9711 -0.2316 0.0578
vn -0.9697 -0.2325 0.0746
vn -0.9711 -0.2316 0.0579
vn -0.9736 -0.2281 -0.0007
vn -0.9737 -0.2276 -0.0078
vn -0.9693 -0.2327 0.0797
vn -0.9460 -0.2373 0.2209
vn -0.9645 -0.2345 0.1215
vn -0.9651 -0.2344 0.1172
vn -0.9710 -0.2212 -0.0910
vn -0.9738 -0.2269 -0.0164
vn -0.9693 -0.2327 0.0793
vn -0.9738 -0.2274 -0.0095
vn -0.9709 -0.2211 -0.0917
vn -0.9697 -0.2325 0.0754
vn 0.8191 -0.5081 -0.2663
vn 0.8371 -0.5179 -0.1763
vn 0.8371 -0.5179 -0.1762
vn 0.8427 -0.5207 -0.1371
vn 0.8452 -0.5220 -0.1150
vn 0.8452 -0.5220 -0.1149
vn 0.8468 -0.5228 -0.0983
vn 0.8468 -0.5227 -0.0982
vn 0.8516 -0.5242 0.0076
vn 0.8516 -0.5241 0.0124
vn 0.8311 -0.5146 -0.2108
vn 0.8381 -0.5184 -0.1701
vn 0.8456 -0.5222 -0.1109
vn 0.8457 -0.5222 -0.1095
vn 0.8449 -0.5183 0.1328
vn 0.8449 -0.5182 0.1328
vn 0.8513 -0.5239 0.0271
vn 0.8473 -0.5229 -0.0934
vn 0.8513 -0.5240 0.0246
vn 0.8385 -0.5186 -0.1672
vn 0.8426 -0.5207 -0.1371
g Flame3aux_BezierCurve.023_None
usemtl None
s 1
f 18/1/1 7/2/2 20/3/3
f 45/4/4 44/5/5 33/6/6
f 68/7/7 67/8/8 55/9/9
f 1/10/10 2/11/11 14/12/12
f 2/11/11 3/13/13 14/12/12
f 3/13/13 4/14/14 16/15/15
f 4/14/14 5/16/16 17/17/17
f 5/16/16 6/18/18 18/1/1
f 6/18/18 7/2/2 18/1/1
f 7/2/2 8/19/19 20/3/3
f 8/19/19 9/20/20 20/3/3
f 9/20/20 10/21/17 22/22/21
f 10/21/17 11/23/22 22/22/21
f 12/24/23 13/25/24 24/26/25
f 11/23/22 12/24/23 23/27/22
f 22/22/21 11/23/22 23/27/22
f 4/14/14 17/17/17 16/15/15
f 12/24/23 24/26/25 23/27/22
f 22/22/21 21/28/26 9/20/20
f 21/28/26 20/3/3 9/20/20
f 5/16/16 18/1/1 17/17/17
f 16/15/15 15/29/27 3/13/13
f 15/29/27 14/12/12 3/13/13
f 20/3/3 19/30/28 18/1/1
f 25/31/29 26/32/30 38/33/31
f 26/32/30 27/34/32 38/33/31
f 27/34/32 28/35/33 39/36/32
f 28/35/33 29/37/34 40/38/35
f 39/36/32 28/35/33 40/38/35
f 29/37/34 30/39/36 42/40/37
f 30/39/36 31/41/38 42/40/37
f 31/41/38 32/42/39 44/5/5
f 32/42/39 33/6/6 44/5/5
f 33/6/6 34/43/40 46/44/41
f 34/43/40 35/45/42 46/44/41
f 36/46/43 37/47/44 48/48/45
f 35/45/42 36/46/43 47/49/46
f 46/44/41 35/45/42 47/49/46
f 39/36/32 38/33/31 27/34/32
f 41/50/34 40/38/35 29/37/34
f 44/5/5 43/51/47 31/41/38
f 43/51/47 42/40/37 31/41/38
f 42/40/37 41/50/34 29/37/34
f 36/46/43 48/48/45 47/49/46
f 46/44/41 45/4/4 33/6/6
f 49/52/48 50/53/49 62/54/50
f 50/53/49 51/55/51 62/54/50
f 51/55/51 52/56/52 64/57/53
f 52/56/52 53/58/54 65/59/55
f 53/58/54 54/60/56 66/61/57
f 54/60/56 55/9/9 66/61/57
f 55/9/9 56/62/58 68/7/7
f 56/62/58 57/63/59 68/7/7
f 57/63/59 58/64/60 70/65/61
f 58/64/60 59/66/62 70/65/61
f 70/65/61 59/66/62 71/67/63
f 60/68/64 61/69/65 72/70/66
f 59/66/62 60/68/64 71/67/63
f 60/68/64 72/70/66 71/67/63
f 66/61/57 55/9/9 67/8/8
f 70/65/61 69/71/67 57/63/59
f 69/71/67 68/7/7 57/63/59
f 52/56/52 65/59/55 64/57/53
f 64/57/53 63/72/68 51/55/51
f 63/72/68 62/54/50 51/55/51
f 66/61/57 65/59/55 53/58/54
