# Blender v3.6.19 OBJ File: 'Candles_V3.blend'
# www.blender.org
mtllib Flame4t.mtl
o Flame4t_BezierCurve.018
v 0.068155 1.804579 3.162668
v 0.072885 1.805551 3.164071
v 0.076157 1.805665 3.166834
v 0.078086 1.805306 3.169833
v 0.078902 1.804536 3.173086
v 0.078834 1.803419 3.176609
v 0.076629 1.802033 3.181014
v 0.076965 1.800394 3.184537
v 0.075622 1.798613 3.188975
v 0.076066 1.796365 3.193607
v 0.073266 1.794827 3.198883
v 0.070788 1.793383 3.204552
v 0.070956 1.791598 3.210445
v 0.064003 1.802058 3.163969
v 0.061475 1.799893 3.166664
v 0.060247 1.798293 3.169626
v 0.060109 1.797148 3.172868
v 0.060849 1.796348 3.176401
v 0.060773 1.795799 3.180831
v 0.064118 1.795344 3.184388
v 0.066225 1.794919 3.188866
v 0.070120 1.794027 3.193538
v 0.070330 1.793672 3.198848
v 0.069981 1.793065 3.204543
v 0.068205 1.804702 3.162698
v 0.069582 1.800033 3.162823
v 0.070660 1.796455 3.164749
v 0.071392 1.794078 3.167290
v 0.071841 1.792686 3.170402
v 0.072070 1.792062 3.174037
v 0.070660 1.792006 3.178743
v 0.072122 1.792254 3.182693
v 0.072071 1.792637 3.187620
v 0.073807 1.792552 3.192742
v 0.072131 1.792896 3.198444
v 0.070444 1.792773 3.204412
v 0.070903 1.791469 3.210414
v 0.066331 1.808222 3.165493
v 0.065287 1.809990 3.169161
v 0.064864 1.810523 3.172652
v 0.064964 1.810011 3.176050
v 0.065489 1.808642 3.179443
v 0.064858 1.806624 3.183509
v 0.067421 1.804097 3.186554
v 0.068633 1.801300 3.190444
v 0.071631 1.798034 3.194529
v 0.071056 1.795603 3.199326
v 0.070148 1.793517 3.204655
v 0.068207 1.804544 3.162653
v 0.070717 1.808120 3.165009
v 0.072535 1.809937 3.168394
v 0.073669 1.810507 3.171733
v 0.074240 1.810022 3.175091
v 0.074365 1.808674 3.178530
v 0.072683 1.806670 3.182709
v 0.073761 1.804156 3.185912
v 0.073269 1.801370 3.189983
v 0.074564 1.798119 3.194249
v 0.072504 1.795707 3.199206
v 0.070545 1.793647 3.204650
v 0.070901 1.791635 3.210461
v 0.066738 1.799851 3.163080
v 0.065957 1.796270 3.165205
v 0.065677 1.793902 3.167859
v 0.065820 1.792529 3.171009
v 0.066308 1.791932 3.174623
v 0.065580 1.791910 3.179265
v 0.068006 1.792197 3.183122
v 0.069060 1.792624 3.187942
v 0.071900 1.792584 3.192957
v 0.071188 1.792973 3.198568
v 0.070183 1.792896 3.204475
v 0.068152 1.804660 3.162691
v 0.072413 1.802215 3.163170
v 0.075378 1.800093 3.165326
v 0.077141 1.798511 3.167994
v 0.077907 1.797364 3.171145
v 0.077882 1.796544 3.174749
v 0.075790 1.795963 3.179372
v 0.076286 1.795466 3.183203
v 0.075126 1.794994 3.187995
v 0.075753 1.794054 3.192981
v 0.073113 1.793654 3.198565
v 0.070748 1.793008 3.204450
v 0.070959 1.791513 3.210421
v 0.063833 1.805540 3.164973
v 0.061196 1.805588 3.168307
v 0.059909 1.805187 3.171615
v 0.059753 1.804397 3.174960
v 0.060509 1.803275 3.178400
v 0.060473 1.801897 3.182590
v 0.063876 1.800274 3.185811
v 0.066049 1.798510 3.189902
v 0.070009 1.796279 3.194188
v 0.070276 1.794753 3.199161
v 0.069968 1.793311 3.204614
vt 0.000000 0.000000
vt 0.000000 0.000000
vt 0.000000 0.000000
vt 0.000000 0.000000
vt 0.000000 0.000000
vt 0.000000 0.000000
vt 0.000000 0.000000
vt 0.000000 0.000000
vt 0.000000 0.000000
vt 0.000000 0.000000
vt 0.000000 0.000000
vt 0.000000 0.000000
vt 0.000000 0.000000
vt 0.000000 0.000000
vt 0.000000 0.000000
vt 0.000000 0.000000
vt 0.000000 0.000000
vt 0.000000 0.000000
vt 0.000000 0.000000
vt 0.000000 0.000000
vt 0.000000 0.000000
vt 0.000000 0.000000
vt 0.000000 0.000000
vt 0.000000 0.000000
vt 0.000000 0.000000
vt 0.000000 0.000000
vt 0.000000 0.000000
vt 0.000000 0.000000
vt 0.000000 0.000000
vt 0.000000 0.000000
vt 0.000000 0.000000
vt 0.000000 0.000000
vt 0.000000 0.000000
vt 0.000000 0.000000
vt 0.000000 0.000000
vt 0.000000 0.000000
vt 0.000000 0.000000
vt 0.000000 0.000000
vt 0.000000 0.000000
vt 0.000000 0.000000
vt 0.000000 0.000000
vt 0.000000 0.000000
vt 0.000000 0.000000
vt 0.000000 0.000000
vt 0.000000 0.000000
vt 0.000000 0.000000
vt 0.000000 0.000000
vt 0.000000 0.000000
vt 0.000000 0.000000
vt 0.000000 0.000000
vt 0.000000 0.000000
vt 0.000000 0.000000
vt 0.000000 0.000000
vt 0.000000 0.000000
vt 0.000000 0.000000
vt 0.000000 0.000000
vt 0.000000 0.000000
vt 0.000000 0.000000
vt 0.000000 0.000000
vt 0.000000 0.000000
vt 0.000000 0.000000
vt 0.000000 0.000000
vt 0.000000 0.000000
vt 0.000000 0.000000
vt 0.000000 0.000000
vt 0.000000 0.000000
vt 0.000000 0.000000
vt 0.000000 0.000000
vt 0.000000 0.000000
vt 0.000000 0.000000
vt 0.000000 0.000000
vt 0.000000 0.000000
vt 0.000000 0.000000
vt 0.000000 0.000000
vt 0.000000 0.000000
vt 0.000000 0.000000
vt 0.000000 0.000000
vt 0.000000 0.000000
vt 0.000000 0.000000
vt 0.000000 0.000000
vt 0.000000 0.000000
vt 0.000000 0.000000
vt 0.000000 0.000000
vt 0.000000 0.000000
vt 0.000000 0.000000
vt 0.000000 0.000000
vt 0.000000 0.000000
vt 0.000000 0.000000
vt 0.000000 0.000000
vt 0.000000 0.000000
vt 0.000000 0.000000
vt 0.000000 0.000000
vt 0.000000 0.000000
vt 0.000000 0.000000
vt 0.000000 0.000000
vt 0.000000 0.000000
vn 0.3276 -0.9122 -0.2461
vn 0.3634 -0.8992 -0.2437
vn 0.3385 -0.9031 -0.2643
vn -0.9098 -0.3987 0.1153
vn -0.8790 -0.4215 0.2228
vn -0.9058 -0.4026 0.1322
vn -0.8964 0.3770 0.2331
vn -0.8783 0.4561 -0.1433
vn -0.3716 -0.9028 -0.2167
vn -0.3943 -0.8974 -0.1978
vn -0.3772 -0.9078 -0.1833
vn 0.3175 -0.7921 -0.5214
vn 0.3409 -0.8556 -0.3895
vn 0.3474 -0.8736 -0.3407
vn 0.3509 -0.8835 -0.3103
vn 0.3533 -0.8903 -0.2873
vn 0.3534 -0.8903 -0.2872
vn 0.3597 -0.9086 -0.2125
vn 0.3458 -0.8693 -0.3532
vn 0.3481 -0.8756 -0.3348
vn 0.3518 -0.8859 -0.3022
vn 0.3530 -0.8892 -0.2911
vn 0.3656 -0.9276 -0.0764
vn 0.3625 -0.9174 -0.1641
vn 0.3539 -0.8923 -0.2803
vn 0.3617 -0.9148 -0.1799
vn 0.3502 -0.8815 -0.3166
vn 0.3474 -0.8737 -0.3406
vn -0.0042 -0.9924 -0.1230
vn -0.9224 -0.2791 -0.2668
vn -0.9355 -0.3310 -0.1239
vn -0.9355 -0.3309 -0.1238
vn -0.9348 -0.3478 -0.0717
vn -0.9331 -0.3574 -0.0398
vn -0.9349 -0.3477 -0.0717
vn -0.9311 -0.3645 -0.0156
vn -0.9331 -0.3574 -0.0397
vn -0.9355 -0.3324 -0.1195
vn -0.9353 -0.3274 -0.1345
vn -0.9321 -0.3613 -0.0267
vn -0.8830 -0.4193 0.2111
vn -0.9186 -0.3884 0.0727
vn -0.9207 -0.3855 0.0613
vn -0.9237 -0.2822 -0.2591
vn -0.9345 -0.3203 -0.1551
vn -0.9304 -0.3665 -0.0085
vn -0.9351 -0.3249 -0.1415
vn -0.9235 -0.2817 -0.2604
vn -0.9331 -0.3574 -0.0399
vn -0.8937 0.3714 0.2518
vn -0.8846 0.3553 0.3021
vn -0.8846 0.3552 0.3021
vn -0.8457 0.3047 0.4382
vn -0.8937 0.3713 0.2518
vn -0.8980 0.3807 0.2207
vn -0.9006 0.3874 0.1971
vn -0.9039 0.4261 0.0384
vn -0.9045 0.4235 0.0506
vn -0.9053 0.4081 0.1181
vn -0.9050 0.4057 0.1281
vn -0.8654 0.3281 0.3788
vn -0.8883 0.3613 0.2836
vn -0.8868 0.3588 0.2913
vn -0.8678 0.3312 0.3706
vn -0.8957 0.3755 0.2384
vn -0.9022 0.4311 0.0136
vn -0.9012 0.3894 0.1900
vn -0.9017 0.4323 0.0073
vn -0.4032 -0.7924 -0.4577
vn -0.4002 -0.8579 -0.3223
vn -0.4001 -0.8579 -0.3222
vn -0.3969 -0.8766 -0.2721
vn -0.3943 -0.8868 -0.2411
vn -0.3942 -0.8868 -0.2411
vn -0.3920 -0.8939 -0.2176
vn -0.3940 -0.8876 -0.2384
vn -0.3804 -0.9171 -0.1195
vn -0.3853 -0.9093 -0.1571
vn -0.3873 -0.9055 -0.1736
vn -0.3878 -0.9044 -0.1782
vn -0.3952 -0.8834 -0.2519
vn -0.3939 -0.8881 -0.2368
vn -0.3913 -0.8958 -0.2105
vn -0.3935 -0.8894 -0.2326
vn -0.3953 -0.8830 -0.2530
vn -0.3862 -0.9078 -0.1638
vn -0.3968 -0.8766 -0.2721
vn -0.1543 -0.9381 -0.3100
g Flame4t_BezierCurve.018_None
usemtl None
s 1
f 18/1/1 7/2/2 20/3/3
f 45/4/4 44/5/5 33/6/6
f 70/7/7 71/8/8 59/9/8
f 90/10/9 79/11/10 92/12/11
f 1/13/12 2/14/13 14/15/13
f 2/14/13 3/16/14 14/15/13
f 3/16/14 4/17/15 16/18/15
f 4/17/15 5/19/16 17/20/17
f 5/19/16 6/21/18 18/1/1
f 6/21/18 7/2/2 18/1/1
f 7/2/2 8/22/19 20/3/3
f 8/22/19 9/23/20 20/3/3
f 9/23/20 10/24/21 22/25/22
f 10/24/21 11/26/23 22/25/22
f 12/27/24 13/28/25 24/29/26
f 11/26/23 12/27/24 23/30/23
f 22/25/22 11/26/23 23/30/23
f 4/17/15 17/20/17 16/18/15
f 12/27/24 24/29/26 23/30/23
f 22/25/22 21/31/27 9/23/20
f 21/31/27 20/3/3 9/23/20
f 5/19/16 18/1/1 17/20/17
f 16/18/15 15/32/28 3/16/14
f 15/32/28 14/15/13 3/16/14
f 20/3/3 19/33/29 18/1/1
f 25/34/30 26/35/31 38/36/32
f 26/35/31 27/37/33 38/36/32
f 27/37/33 28/38/34 39/39/35
f 28/38/34 29/40/36 40/41/37
f 39/39/35 28/38/34 40/41/37
f 29/40/36 30/42/38 42/43/39
f 30/42/38 31/44/40 42/43/39
f 31/44/40 32/45/41 44/5/5
f 32/45/41 33/6/6 44/5/5
f 33/6/6 34/46/42 46/47/43
f 34/46/42 35/48/44 46/47/43
f 36/49/45 37/50/46 48/51/47
f 35/48/44 36/49/45 47/52/48
f 46/47/43 35/48/44 47/52/48
f 39/39/35 38/36/32 27/37/33
f 41/53/36 40/41/37 29/40/36
f 44/5/5 43/54/49 31/44/40
f 43/54/49 42/43/39 31/44/40
f 42/43/39 41/53/36 29/40/36
f 36/49/45 48/51/47 47/52/48
f 46/47/43 45/4/4 33/6/6
f 51/55/50 50/56/51 62/57/52
f 50/56/51 49/58/53 62/57/52
f 62/57/52 63/59/54 51/55/50
f 63/59/54 64/60/55 52/61/55
f 64/60/55 65/62/56 52/61/55
f 65/62/56 66/63/57 54/64/58
f 66/63/57 67/65/59 55/66/60
f 68/67/61 69/68/62 57/69/63
f 69/68/62 70/7/7 57/69/63
f 66/63/57 55/66/60 54/64/58
f 67/65/59 68/67/61 55/66/60
f 52/61/55 51/55/50 63/59/54
f 54/64/58 53/70/56 65/62/56
f 53/70/56 52/61/55 65/62/56
f 57/69/63 56/71/64 68/67/61
f 56/71/64 55/66/60 68/67/61
f 59/9/8 58/72/65 70/7/7
f 58/72/65 57/69/63 70/7/7
f 72/73/66 61/74/67 60/75/68
f 72/73/66 60/75/68 71/8/8
f 60/75/68 59/9/8 71/8/8
f 73/76/69 74/77/70 86/78/71
f 74/77/70 75/79/72 86/78/71
f 75/79/72 76/80/73 88/81/74
f 76/80/73 77/82/75 89/83/75
f 77/82/75 78/84/76 90/10/9
f 78/84/76 79/11/10 90/10/9
f 79/11/10 80/85/77 92/12/11
f 80/85/77 81/86/78 92/12/11
f 81/86/78 82/87/79 94/88/80
f 82/87/79 83/89/81 94/88/80
f 84/90/82 85/91/83 96/92/84
f 83/89/81 84/90/82 95/93/85
f 94/88/80 83/89/81 95/93/85
f 76/80/73 89/83/75 88/81/74
f 84/90/82 96/92/84 95/93/85
f 94/88/80 93/94/86 81/86/78
f 93/94/86 92/12/11 81/86/78
f 77/82/75 90/10/9 89/83/75
f 88/81/74 87/95/87 75/79/72
f 87/95/87 86/78/71 75/79/72
f 92/12/11 91/96/88 90/10/9
