# Blender v3.6.19 OBJ File: 'Candles_V3.blend'
# www.blender.org
mtllib Flame6b.mtl
o Flame6b_BezierCurve.017
v 1.302215 2.330955 2.469218
v 1.300232 2.328197 2.472137
v 1.298731 2.327251 2.476264
v 1.297746 2.327428 2.480310
v 1.297186 2.328567 2.484357
v 1.296958 2.330507 2.488486
v 1.297925 2.334096 2.493043
v 1.297127 2.336147 2.497314
v 1.297340 2.339524 2.502177
v 1.296229 2.342278 2.507798
v 1.297560 2.346587 2.513205
v 1.298810 2.350790 2.519155
v 1.298317 2.353827 2.526135
v 1.303213 2.335296 2.469684
v 1.303657 2.338985 2.472210
v 1.303732 2.341685 2.475384
v 1.303492 2.343587 2.479167
v 1.302993 2.344882 2.483519
v 1.303246 2.346769 2.488665
v 1.301438 2.346414 2.493767
v 1.300493 2.347034 2.499582
v 1.298225 2.347031 2.506156
v 1.298545 2.348934 2.512394
v 1.299081 2.351435 2.518932
v 1.302268 2.330859 2.469260
v 1.298498 2.333126 2.470053
v 1.295825 2.335468 2.472789
v 1.294199 2.337441 2.476075
v 1.293440 2.339134 2.479888
v 1.293366 2.340632 2.484203
v 1.294753 2.343034 2.489263
v 1.294550 2.343401 2.494246
v 1.295446 2.344846 2.499925
v 1.295017 2.345671 2.506362
v 1.296940 2.348300 2.512480
v 1.298606 2.351323 2.518928
v 1.298261 2.353928 2.526091
v 1.305966 2.330585 2.471775
v 1.308170 2.331269 2.475636
v 1.309199 2.332339 2.479534
v 1.309242 2.333758 2.483531
v 1.308489 2.335488 2.487690
v 1.308086 2.338498 2.492337
v 1.305352 2.339726 2.496736
v 1.303347 2.342159 2.501747
v 1.300017 2.343970 2.507515
v 1.299410 2.347460 2.513049
v 1.299285 2.351092 2.519085
v 1.302160 2.330944 2.469217
v 1.303263 2.328067 2.472466
v 1.303780 2.327044 2.476809
v 1.303898 2.327181 2.480973
v 1.303677 2.328309 2.485055
v 1.303177 2.330261 2.489154
v 1.303415 2.333881 2.493633
v 1.301582 2.335974 2.497792
v 1.300608 2.339399 2.502526
v 1.298312 2.342203 2.508019
v 1.298610 2.346554 2.513315
v 1.299134 2.350788 2.519186
v 1.298375 2.353839 2.526136
v 1.300086 2.334898 2.469551
v 1.298529 2.338335 2.471991
v 1.297518 2.340899 2.475119
v 1.296955 2.342761 2.478888
v 1.296744 2.344093 2.483252
v 1.297743 2.346075 2.488429
v 1.296987 2.345853 2.493576
v 1.297247 2.346625 2.499442
v 1.296185 2.346776 2.506068
v 1.297559 2.348812 2.512351
v 1.298846 2.351409 2.518921
v 1.302271 2.330913 2.469239
v 1.298269 2.330286 2.471140
v 1.295445 2.330734 2.474601
v 1.293737 2.331673 2.478283
v 1.292952 2.333046 2.482217
v 1.292899 2.334800 2.486435
v 1.294340 2.337885 2.491233
v 1.294215 2.339222 2.495845
v 1.295200 2.341781 2.501098
v 1.294861 2.343718 2.507110
v 1.296862 2.347314 2.512857
v 1.298582 2.351017 2.519045
v 1.298258 2.353871 2.526113
v 1.305659 2.333504 2.470609
v 1.307660 2.336053 2.473723
v 1.308578 2.338135 2.477216
v 1.308587 2.339854 2.481093
v 1.307862 2.341315 2.485360
v 1.307532 2.343630 2.490285
v 1.304903 2.343876 2.495076
v 1.303018 2.345185 2.500536
v 1.299808 2.345872 2.506755
v 1.299305 2.348378 2.512681
v 1.299254 2.351310 2.518997
vt 0.000000 0.000000
vt 0.000000 0.000000
vt 0.000000 0.000000
vt 0.000000 0.000000
vt 0.000000 0.000000
vt 0.000000 0.000000
vt 0.000000 0.000000
vt 0.000000 0.000000
vt 0.000000 0.000000
vt 0.000000 0.000000
vt 0.000000 0.000000
vt 0.000000 0.000000
vt 0.000000 0.000000
vt 0.000000 0.000000
vt 0.000000 0.000000
vt 0.000000 0.000000
vt 0.000000 0.000000
vt 0.000000 0.000000
vt 0.000000 0.000000
vt 0.000000 0.000000
vt 0.000000 0.000000
vt 0.000000 0.000000
vt 0.000000 0.000000
vt 0.000000 0.000000
vt 0.000000 0.000000
vt 0.000000 0.000000
vt 0.000000 0.000000
vt 0.000000 0.000000
vt 0.000000 0.000000
vt 0.000000 0.000000
vt 0.000000 0.000000
vt 0.000000 0.000000
vt 0.000000 0.000000
vt 0.000000 0.000000
vt 0.000000 0.000000
vt 0.000000 0.000000
vt 0.000000 0.000000
vt 0.000000 0.000000
vt 0.000000 0.000000
vt 0.000000 0.000000
vt 0.000000 0.000000
vt 0.000000 0.000000
vt 0.000000 0.000000
vt 0.000000 0.000000
vt 0.000000 0.000000
vt 0.000000 0.000000
vt 0.000000 0.000000
vt 0.000000 0.000000
vt 0.000000 0.000000
vt 0.000000 0.000000
vt 0.000000 0.000000
vt 0.000000 0.000000
vt 0.000000 0.000000
vt 0.000000 0.000000
vt 0.000000 0.000000
vt 0.000000 0.000000
vt 0.000000 0.000000
vt 0.000000 0.000000
vt 0.000000 0.000000
vt 0.000000 0.000000
vt 0.000000 0.000000
vt 0.000000 0.000000
vt 0.000000 0.000000
vt 0.000000 0.000000
vt 0.000000 0.000000
vt 0.000000 0.000000
vt 0.000000 0.000000
vt 0.000000 0.000000
vt 0.000000 0.000000
vt 0.000000 0.000000
vt 0.000000 0.000000
vt 0.000000 0.000000
vt 0.000000 0.000000
vt 0.000000 0.000000
vt 0.000000 0.000000
vt 0.000000 0.000000
vt 0.000000 0.000000
vt 0.000000 0.000000
vt 0.000000 0.000000
vt 0.000000 0.000000
vt 0.000000 0.000000
vt 0.000000 0.000000
vt 0.000000 0.000000
vt 0.000000 0.000000
vt 0.000000 0.000000
vt 0.000000 0.000000
vt 0.000000 0.000000
vt 0.000000 0.000000
vt 0.000000 0.000000
vt 0.000000 0.000000
vt 0.000000 0.000000
vt 0.000000 0.000000
vt 0.000000 0.000000
vt 0.000000 0.000000
vt 0.000000 0.000000
vt 0.000000 0.000000
vn 0.9204 -0.3442 0.1855
vn 0.9214 -0.3319 0.2020
vn 0.9310 -0.3173 0.1803
vn -0.3644 -0.8936 0.2622
vn -0.3793 -0.7986 0.4672
vn -0.3793 -0.7990 0.4666
vn -0.8970 -0.4391 -0.0514
vn -0.9182 -0.3812 0.1075
vn -0.9180 -0.3827 0.1038
vn 0.4057 -0.8399 0.3605
vn 0.4040 -0.8510 0.3356
vn 0.3890 -0.8525 0.3493
vn 0.9209 -0.3012 0.2473
vn 0.9149 -0.2855 0.2853
vn 0.8938 -0.2456 0.3752
vn 0.9237 -0.3100 0.2253
vn 0.9254 -0.3164 0.2087
vn 0.7179 -0.6642 0.2082
vn 0.9289 -0.3371 0.1532
vn 0.9214 -0.3025 0.2440
vn 0.9204 -0.2996 0.2513
vn 0.9279 -0.3673 0.0644
vn 0.9253 -0.3159 0.2100
vn 0.9256 -0.3174 0.2061
vn 0.9294 -0.3436 0.1348
vn 0.9258 -0.3185 0.2038
vn 0.9295 -0.3464 0.1269
vn 0.9225 -0.3060 0.2353
vn -0.3726 -0.8614 0.3453
vn -0.3754 -0.8440 0.3830
vn -0.3795 -0.7960 0.4715
vn -0.3707 -0.8706 0.3233
vn -0.3707 -0.8706 0.3234
vn -0.3692 -0.8773 0.3068
vn -0.3757 -0.8418 0.3875
vn -0.3693 -0.8766 0.3085
vn -0.3688 -0.8785 0.3035
vn -0.3489 -0.9254 0.1480
vn -0.3752 -0.8454 0.3801
vn -0.3568 -0.9121 0.2020
vn -0.3500 -0.9239 0.1547
vn -0.3639 -0.8952 0.2574
vn -0.3759 -0.8408 0.3895
vn -0.3689 -0.8790 0.3022
vn -0.3763 -0.8373 0.3965
vn -0.3579 -0.9098 0.2103
vn -0.8844 -0.4552 -0.1029
vn -0.9052 -0.4249 -0.0093
vn -0.9052 -0.4250 -0.0093
vn -0.9111 -0.4111 0.0295
vn -0.9138 -0.4029 0.0517
vn -0.9138 -0.4030 0.0517
vn -0.9155 -0.3966 0.0684
vn -0.9154 -0.3966 0.0684
vn -0.9192 -0.3538 0.1727
vn -0.9191 -0.3516 0.1778
vn -0.8979 -0.4376 -0.0469
vn -0.9062 -0.4228 -0.0031
vn -0.9140 -0.4022 0.0535
vn -0.9141 -0.4016 0.0551
vn -0.9083 -0.2967 0.2950
vn -0.9186 -0.3448 0.1931
vn -0.9158 -0.3948 0.0731
vn -0.9187 -0.3459 0.1905
vn -0.9068 -0.4217 0.0002
vn -0.9111 -0.4112 0.0295
vn 0.3896 -0.8282 0.4029
vn 0.3848 -0.8111 0.4406
vn 0.3707 -0.7638 0.5284
vn 0.3848 -0.8111 0.4405
vn 0.3920 -0.8373 0.3810
vn 0.3936 -0.8440 0.3644
vn 0.6091 -0.7013 0.3703
vn 0.3937 -0.8439 0.3645
vn 0.3920 -0.8375 0.3806
vn 0.3972 -0.8590 0.3230
vn 0.3989 -0.8667 0.2995
vn 0.3913 -0.8346 0.3877
vn 0.3961 -0.8539 0.3376
vn 0.3959 -0.8533 0.3392
vn 0.3925 -0.8399 0.3747
vn 0.3940 -0.8458 0.3597
vn 0.3924 -0.8391 0.3768
vn 0.3913 -0.8343 0.3883
vn 0.3970 -0.8579 0.3261
g Flame6b_BezierCurve.017_None
usemtl None
s 1
f 18/1/1 20/2/2 7/3/3
f 46/4/4 47/5/5 35/6/6
f 68/7/7 67/8/8 55/9/9
f 90/10/10 92/11/11 79/12/12
f 3/13/13 2/14/14 15/15/13
f 2/14/14 1/16/15 14/17/14
f 15/15/13 2/14/14 14/17/14
f 15/15/13 16/18/16 3/13/13
f 16/18/16 17/19/17 4/20/16
f 3/13/13 16/18/16 4/20/16
f 18/1/1 19/21/18 20/2/2
f 17/19/17 18/1/1 5/22/17
f 5/22/17 4/20/16 17/19/17
f 7/3/3 6/23/19 18/1/1
f 6/23/19 5/22/17 18/1/1
f 9/24/20 8/25/21 20/2/2
f 8/25/21 7/3/3 20/2/2
f 11/26/22 10/27/23 22/28/24
f 10/27/23 9/24/20 22/28/24
f 24/29/25 13/30/26 12/31/27
f 12/31/27 11/26/22 23/32/22
f 11/26/22 22/28/24 23/32/22
f 22/28/24 9/24/20 21/33/28
f 23/32/22 24/29/25 12/31/27
f 20/2/2 21/33/28 9/24/20
f 27/34/29 26/35/30 38/36/30
f 26/35/30 25/37/31 38/36/30
f 38/36/30 39/38/29 27/34/29
f 39/38/29 40/39/32 28/40/33
f 40/39/32 41/41/34 29/42/34
f 42/43/35 43/44/36 31/45/37
f 43/44/36 44/46/38 31/45/37
f 40/39/32 29/42/34 28/40/33
f 41/41/34 42/43/35 29/42/34
f 28/40/33 27/34/29 39/38/29
f 31/45/37 30/47/39 42/43/35
f 30/47/39 29/42/34 42/43/35
f 33/48/40 32/49/41 44/46/38
f 32/49/41 31/45/37 44/46/38
f 35/6/6 34/50/42 46/4/4
f 34/50/42 33/48/40 46/4/4
f 48/51/43 37/52/44 36/53/45
f 36/53/45 35/6/6 47/5/5
f 44/46/38 45/54/46 33/48/40
f 45/54/46 46/4/4 33/48/40
f 47/5/5 48/51/43 36/53/45
f 49/55/47 50/56/48 62/57/49
f 50/56/48 51/58/50 62/57/49
f 51/58/50 52/59/51 64/60/52
f 52/59/51 53/61/53 65/62/54
f 53/61/53 54/63/55 66/64/56
f 54/63/55 55/9/9 66/64/56
f 55/9/9 56/65/57 68/7/7
f 56/65/57 57/66/58 68/7/7
f 57/66/58 58/67/59 70/68/60
f 58/67/59 59/69/61 70/68/60
f 70/68/60 59/69/61 71/70/61
f 60/71/62 61/72/63 72/73/64
f 59/69/61 60/71/62 71/70/61
f 60/71/62 72/73/64 71/70/61
f 66/64/56 55/9/9 67/8/8
f 70/68/60 69/74/65 57/66/58
f 69/74/65 68/7/7 57/66/58
f 52/59/51 65/62/54 64/60/52
f 64/60/52 63/75/66 51/58/50
f 63/75/66 62/57/49 51/58/50
f 66/64/56 65/62/54 53/61/53
f 75/76/67 74/77/68 87/78/67
f 74/77/68 73/79/69 86/80/70
f 87/78/67 74/77/68 86/80/70
f 87/78/67 88/81/71 75/76/67
f 88/81/71 89/82/72 76/83/71
f 75/76/67 88/81/71 76/83/71
f 90/10/10 91/84/73 92/11/11
f 89/82/72 90/10/10 77/85/74
f 77/85/74 76/83/71 89/82/72
f 79/12/12 78/86/75 90/10/10
f 78/86/75 77/85/74 90/10/10
f 81/87/76 80/88/77 92/11/11
f 80/88/77 79/12/12 92/11/11
f 83/89/78 82/90/79 94/91/80
f 82/90/79 81/87/76 94/91/80
f 96/92/81 85/93/82 84/94/83
f 84/94/83 83/89/78 95/95/84
f 83/89/78 94/91/80 95/95/84
f 94/91/80 81/87/76 93/96/85
f 95/95/84 96/92/81 84/94/83
f 92/11/11 93/96/85 81/87/76
