# Blender v3.6.19 OBJ File: 'Candles_V3.blend'
# www.blender.org
mtllib Flame3.mtl
o Flame3_BezierCurve.001
v 1.563850 -0.740573 2.489078
v 1.561504 -0.744954 2.490919
v 1.559728 -0.747952 2.494933
v 1.558563 -0.749696 2.499397
v 1.557901 -0.750399 2.504322
v 1.557631 -0.750273 2.509718
v 1.558776 -0.748569 2.516367
v 1.557832 -0.748392 2.521970
v 1.558085 -0.747062 2.528848
v 1.556771 -0.746770 2.536249
v 1.558346 -0.744693 2.544162
v 1.559826 -0.742989 2.552611
v 1.559243 -0.743041 2.561619
v 1.565030 -0.736098 2.491659
v 1.565557 -0.733313 2.496157
v 1.565645 -0.731910 2.500884
v 1.565362 -0.731661 2.505888
v 1.564772 -0.732340 2.511217
v 1.565072 -0.732759 2.517689
v 1.562933 -0.735583 2.523041
v 1.561815 -0.737693 2.529631
v 1.559132 -0.740841 2.536745
v 1.559512 -0.741765 2.544407
v 1.560146 -0.742184 2.552679
v 1.563913 -0.740698 2.489078
v 1.559451 -0.738623 2.491021
v 1.556289 -0.737397 2.495103
v 1.554366 -0.736833 2.499603
v 1.553468 -0.736825 2.504539
v 1.553381 -0.737267 2.509926
v 1.555022 -0.737088 2.516550
v 1.554783 -0.739074 2.522119
v 1.555843 -0.740225 2.528956
v 1.555337 -0.742411 2.536318
v 1.557613 -0.742492 2.544196
v 1.559584 -0.742304 2.552621
v 1.559177 -0.742910 2.561619
v 1.568289 -0.742196 2.491670
v 1.570897 -0.743303 2.496174
v 1.572115 -0.744009 2.500905
v 1.572166 -0.744385 2.505910
v 1.571275 -0.744502 2.511238
v 1.570798 -0.743466 2.517707
v 1.567564 -0.744241 2.523056
v 1.565192 -0.744005 2.529642
v 1.561253 -0.744803 2.536752
v 1.560534 -0.743673 2.544410
v 1.560388 -0.742629 2.552680
v 1.563785 -0.740585 2.489072
v 1.565090 -0.745252 2.491213
v 1.565703 -0.748436 2.495424
v 1.565843 -0.750280 2.499996
v 1.565581 -0.751012 2.504953
v 1.564990 -0.750859 2.510324
v 1.565272 -0.749084 2.516901
v 1.563104 -0.748807 2.522404
v 1.561952 -0.747364 2.529166
v 1.559235 -0.746958 2.536453
v 1.559588 -0.744781 2.544265
v 1.560209 -0.743006 2.552644
v 1.559311 -0.743028 2.561625
v 1.561330 -0.736465 2.491326
v 1.559489 -0.733912 2.495610
v 1.558293 -0.732634 2.500221
v 1.557627 -0.732421 2.505191
v 1.557378 -0.733067 2.510551
v 1.558561 -0.733398 2.517102
v 1.557666 -0.736099 2.522566
v 1.557975 -0.738069 2.529285
v 1.556718 -0.741075 2.536528
v 1.558345 -0.741876 2.544302
v 1.559868 -0.742207 2.552654
v 1.563917 -0.740629 2.489082
v 1.559181 -0.742217 2.490839
v 1.555840 -0.743387 2.494799
v 1.553819 -0.744132 2.499233
v 1.552891 -0.744527 2.504149
v 1.552828 -0.744647 2.509552
v 1.554534 -0.743602 2.516220
v 1.554387 -0.744360 2.521851
v 1.555553 -0.744104 2.528760
v 1.555152 -0.744883 2.536193
v 1.557520 -0.743739 2.544133
v 1.559556 -0.742691 2.552601
v 1.559173 -0.742982 2.561615
v 1.567925 -0.738480 2.491803
v 1.570293 -0.737211 2.496392
v 1.571380 -0.736628 2.501168
v 1.571391 -0.736621 2.506187
v 1.570533 -0.737081 2.511503
v 1.570144 -0.736931 2.517940
v 1.567033 -0.738956 2.523244
v 1.564803 -0.740151 2.529779
v 1.561006 -0.742382 2.536838
v 1.560411 -0.742504 2.544451
v 1.560351 -0.742351 2.552689
vt 0.000000 0.000000
vt 0.000000 0.000000
vt 0.000000 0.000000
vt 0.000000 0.000000
vt 0.000000 0.000000
vt 0.000000 0.000000
vt 0.000000 0.000000
vt 0.000000 0.000000
vt 0.000000 0.000000
vt 0.000000 0.000000
vt 0.000000 0.000000
vt 0.000000 0.000000
vt 0.000000 0.000000
vt 0.000000 0.000000
vt 0.000000 0.000000
vt 0.000000 0.000000
vt 0.000000 0.000000
vt 0.000000 0.000000
vt 0.000000 0.000000
vt 0.000000 0.000000
vt 0.000000 0.000000
vt 0.000000 0.000000
vt 0.000000 0.000000
vt 0.000000 0.000000
vt 0.000000 0.000000
vt 0.000000 0.000000
vt 0.000000 0.000000
vt 0.000000 0.000000
vt 0.000000 0.000000
vt 0.000000 0.000000
vt 0.000000 0.000000
vt 0.000000 0.000000
vt 0.000000 0.000000
vt 0.000000 0.000000
vt 0.000000 0.000000
vt 0.000000 0.000000
vt 0.000000 0.000000
vt 0.000000 0.000000
vt 0.000000 0.000000
vt 0.000000 0.000000
vt 0.000000 0.000000
vt 0.000000 0.000000
vt 0.000000 0.000000
vt 0.000000 0.000000
vt 0.000000 0.000000
vt 0.000000 0.000000
vt 0.000000 0.000000
vt 0.000000 0.000000
vt 0.000000 0.000000
vt 0.000000 0.000000
vt 0.000000 0.000000
vt 0.000000 0.000000
vt 0.000000 0.000000
vt 0.000000 0.000000
vt 0.000000 0.000000
vt 0.000000 0.000000
vt 0.000000 0.000000
vt 0.000000 0.000000
vt 0.000000 0.000000
vt 0.000000 0.000000
vt 0.000000 0.000000
vt 0.000000 0.000000
vt 0.000000 0.000000
vt 0.000000 0.000000
vt 0.000000 0.000000
vt 0.000000 0.000000
vt 0.000000 0.000000
vt 0.000000 0.000000
vt 0.000000 0.000000
vt 0.000000 0.000000
vt 0.000000 0.000000
vt 0.000000 0.000000
vt 0.000000 0.000000
vt 0.000000 0.000000
vt 0.000000 0.000000
vt 0.000000 0.000000
vt 0.000000 0.000000
vt 0.000000 0.000000
vt 0.000000 0.000000
vt 0.000000 0.000000
vt 0.000000 0.000000
vt 0.000000 0.000000
vt 0.000000 0.000000
vt 0.000000 0.000000
vt 0.000000 0.000000
vt 0.000000 0.000000
vt 0.000000 0.000000
vt 0.000000 0.000000
vt 0.000000 0.000000
vt 0.000000 0.000000
vt 0.000000 0.000000
vt 0.000000 0.000000
vt 0.000000 0.000000
vt 0.000000 0.000000
vt 0.000000 0.000000
vt 0.000000 0.000000
vn 0.9204 -0.3897 0.0305
vn 0.9215 -0.3852 0.0506
vn 0.9311 -0.3630 0.0366
vn -0.3644 -0.9233 -0.1213
vn -0.3794 -0.9193 0.1046
vn -0.3793 -0.9194 0.1039
vn -0.8970 -0.3809 -0.2244
vn -0.9182 -0.3922 -0.0556
vn -0.9180 -0.3920 -0.0596
vn 0.4058 -0.9139 -0.0097
vn 0.4040 -0.9140 -0.0370
vn 0.3890 -0.9209 -0.0251
vn 0.9210 -0.3754 0.1044
vn 0.9149 -0.3765 0.1455
vn 0.8938 -0.3763 0.2439
vn 0.9237 -0.3745 0.0807
vn 0.9254 -0.3738 0.0629
vn 0.7180 -0.6917 -0.0780
vn 0.9289 -0.3702 0.0038
vn 0.9214 -0.3753 0.1009
vn 0.9204 -0.3756 0.1087
vn 0.9279 -0.3620 -0.0896
vn 0.9253 -0.3738 0.0643
vn 0.9256 -0.3736 0.0602
vn 0.9294 -0.3686 -0.0157
vn 0.9259 -0.3734 0.0578
vn 0.9295 -0.3680 -0.0240
vn 0.9225 -0.3750 0.0914
vn -0.3726 -0.9274 -0.0323
vn -0.3754 -0.9268 0.0092
vn -0.3794 -0.9187 0.1095
vn -0.3726 -0.9274 -0.0324
vn -0.3707 -0.9271 -0.0561
vn -0.3691 -0.9264 -0.0740
vn -0.3691 -0.9264 -0.0739
vn -0.3757 -0.9266 0.0142
vn -0.3693 -0.9265 -0.0721
vn -0.3688 -0.9263 -0.0774
vn -0.3489 -0.9063 -0.2386
vn -0.3752 -0.9269 0.0060
vn -0.3568 -0.9159 -0.1839
vn -0.3500 -0.9076 -0.2319
vn -0.3639 -0.9229 -0.1263
vn -0.3758 -0.9265 0.0164
vn -0.3688 -0.9262 -0.0791
vn -0.3763 -0.9262 0.0242
vn -0.3579 -0.9171 -0.1753
vn -0.8844 -0.3749 -0.2781
vn -0.9051 -0.3850 -0.1802
vn -0.9052 -0.3850 -0.1802
vn -0.9111 -0.3880 -0.1392
vn -0.9138 -0.3895 -0.1155
vn -0.9137 -0.3895 -0.1155
vn -0.9154 -0.3904 -0.0977
vn -0.9192 -0.3935 0.0150
vn -0.9191 -0.3935 0.0206
vn -0.8979 -0.3814 -0.2197
vn -0.9062 -0.3855 -0.1737
vn -0.9140 -0.3896 -0.1135
vn -0.9141 -0.3897 -0.1119
vn -0.9083 -0.3905 0.1500
vn -0.9186 -0.3935 0.0373
vn -0.9159 -0.3907 -0.0925
vn -0.9187 -0.3935 0.0345
vn -0.9067 -0.3858 -0.1702
vn -0.9111 -0.3881 -0.1391
vn 0.3896 -0.9204 0.0338
vn 0.3848 -0.9199 0.0751
vn 0.3896 -0.9204 0.0337
vn 0.3706 -0.9123 0.1744
vn 0.3848 -0.9199 0.0750
vn 0.3920 -0.9199 0.0100
vn 0.3937 -0.9192 -0.0078
vn 0.3920 -0.9199 0.0101
vn 0.6091 -0.7911 0.0552
vn 0.3921 -0.9199 0.0095
vn 0.3973 -0.9162 -0.0518
vn 0.3989 -0.9138 -0.0764
vn 0.3913 -0.9201 0.0173
vn 0.3961 -0.9175 -0.0364
vn 0.3960 -0.9176 -0.0346
vn 0.3926 -0.9197 0.0032
vn 0.3941 -0.9190 -0.0129
vn 0.3924 -0.9198 0.0054
vn 0.3912 -0.9201 0.0179
vn 0.3970 -0.9165 -0.0485
g Flame3_BezierCurve.001_None
usemtl None
s 1
f 18/1/1 20/2/2 7/3/3
f 46/4/4 47/5/5 35/6/6
f 68/7/7 67/8/8 55/9/9
f 90/10/10 92/11/11 79/12/12
f 3/13/13 2/14/14 15/15/13
f 2/14/14 1/16/15 14/17/14
f 15/15/13 2/14/14 14/17/14
f 15/15/13 16/18/16 3/13/13
f 16/18/16 17/19/17 4/20/16
f 3/13/13 16/18/16 4/20/16
f 18/1/1 19/21/18 20/2/2
f 17/19/17 18/1/1 5/22/17
f 5/22/17 4/20/16 17/19/17
f 7/3/3 6/23/19 18/1/1
f 6/23/19 5/22/17 18/1/1
f 9/24/20 8/25/21 20/2/2
f 8/25/21 7/3/3 20/2/2
f 11/26/22 10/27/23 22/28/24
f 10/27/23 9/24/20 22/28/24
f 24/29/25 13/30/26 12/31/27
f 12/31/27 11/26/22 23/32/22
f 11/26/22 22/28/24 23/32/22
f 22/28/24 9/24/20 21/33/28
f 23/32/22 24/29/25 12/31/27
f 20/2/2 21/33/28 9/24/20
f 27/34/29 26/35/30 38/36/30
f 26/35/30 25/37/31 38/36/30
f 38/36/30 39/38/32 27/34/29
f 39/38/32 40/39/33 28/40/33
f 40/39/33 41/41/34 29/42/35
f 42/43/36 43/44/37 31/45/38
f 43/44/37 44/46/39 31/45/38
f 40/39/33 29/42/35 28/40/33
f 41/41/34 42/43/36 29/42/35
f 28/40/33 27/34/29 39/38/32
f 31/45/38 30/47/40 42/43/36
f 30/47/40 29/42/35 42/43/36
f 33/48/41 32/49/42 44/46/39
f 32/49/42 31/45/38 44/46/39
f 35/6/6 34/50/43 46/4/4
f 34/50/43 33/48/41 46/4/4
f 48/51/44 37/52/45 36/53/46
f 36/53/46 35/6/6 47/5/5
f 44/46/39 45/54/47 33/48/41
f 45/54/47 46/4/4 33/48/41
f 47/5/5 48/51/44 36/53/46
f 49/55/48 50/56/49 62/57/50
f 50/56/49 51/58/51 62/57/50
f 51/58/51 52/59/52 64/60/53
f 52/59/52 53/61/54 65/62/54
f 53/61/54 54/63/55 66/64/56
f 54/63/55 55/9/9 66/64/56
f 55/9/9 56/65/57 68/7/7
f 56/65/57 57/66/58 68/7/7
f 57/66/58 58/67/59 70/68/60
f 58/67/59 59/69/61 70/68/60
f 70/68/60 59/69/61 71/70/61
f 60/71/62 61/72/63 72/73/64
f 59/69/61 60/71/62 71/70/61
f 60/71/62 72/73/64 71/70/61
f 66/64/56 55/9/9 67/8/8
f 70/68/60 69/74/65 57/66/58
f 69/74/65 68/7/7 57/66/58
f 52/59/52 65/62/54 64/60/53
f 64/60/53 63/75/66 51/58/51
f 63/75/66 62/57/50 51/58/51
f 66/64/56 65/62/54 53/61/54
f 75/76/67 74/77/68 87/78/69
f 74/77/68 73/79/70 86/80/71
f 87/78/69 74/77/68 86/80/71
f 87/78/69 88/81/72 75/76/67
f 88/81/72 89/82/73 76/83/74
f 75/76/67 88/81/72 76/83/74
f 90/10/10 91/84/75 92/11/11
f 89/82/73 90/10/10 77/85/73
f 77/85/73 76/83/74 89/82/73
f 79/12/12 78/86/76 90/10/10
f 78/86/76 77/85/73 90/10/10
f 81/87/77 80/88/78 92/11/11
f 80/88/78 79/12/12 92/11/11
f 83/89/79 82/90/80 94/91/81
f 82/90/80 81/87/77 94/91/81
f 96/92/82 85/93/83 84/94/84
f 84/94/84 83/89/79 95/95/85
f 83/89/79 94/91/81 95/95/85
f 94/91/81 81/87/77 93/96/86
f 95/95/85 96/92/82 84/94/84
f 92/11/11 93/96/86 81/87/77
